<svg width="55" height="55" viewBox="0 0 55 55" fill="none" xmlns="http://www.w3.org/2000/svg">
<path d="M27.2437 4.91068C34.5178 4.91068 35.3805 4.93793 38.2548 5.06961C45.6378 5.40561 49.0864 8.9087 49.4224 16.2373C49.5541 19.1092 49.5791 19.9719 49.5791 27.246C49.5791 34.5224 49.5518 35.3828 49.4224 38.2548C49.0841 45.5765 45.6446 49.0864 38.2548 49.4224C35.3805 49.5541 34.5224 49.5813 27.2437 49.5813C19.9697 49.5813 19.1069 49.5541 16.235 49.4224C8.83378 49.0841 5.40334 45.5652 5.06734 38.2525C4.93566 35.3805 4.90841 34.5201 4.90841 27.2437C4.90841 19.9697 4.93793 19.1092 5.06734 16.235C5.40561 8.9087 8.84513 5.40334 16.235 5.06734C19.1092 4.93793 19.9697 4.91068 27.2437 4.91068ZM27.2437 0C19.8448 0 18.9185 0.0317844 16.0125 0.163462C6.11849 0.617525 0.619795 6.10714 0.165733 16.0102C0.0317844 18.9185 0 19.8448 0 27.2437C0 34.6427 0.0317844 35.5712 0.163462 38.4772C0.617525 48.3713 6.10714 53.87 16.0102 54.324C18.9185 54.4557 19.8448 54.4875 27.2437 54.4875C34.6427 54.4875 35.5712 54.4557 38.4772 54.324C48.3622 53.87 53.8745 48.3803 54.3217 38.4772C54.4557 35.5712 54.4875 34.6427 54.4875 27.2437C54.4875 19.8448 54.4557 18.9185 54.324 16.0125C53.879 6.12757 48.3826 0.619795 38.4795 0.165733C35.5712 0.0317844 34.6427 0 27.2437 0V0ZM27.2437 13.2541C19.5179 13.2541 13.2541 19.5179 13.2541 27.2437C13.2541 34.9696 19.5179 41.2357 27.2437 41.2357C34.9696 41.2357 41.2334 34.9719 41.2334 27.2437C41.2334 19.5179 34.9696 13.2541 27.2437 13.2541ZM27.2437 36.325C22.2286 36.325 18.1625 32.2611 18.1625 27.2437C18.1625 22.2286 22.2286 18.1625 27.2437 18.1625C32.2589 18.1625 36.325 22.2286 36.325 27.2437C36.325 32.2611 32.2589 36.325 27.2437 36.325ZM41.7874 9.43315C39.9802 9.43315 38.5158 10.8975 38.5158 12.7024C38.5158 14.5073 39.9802 15.9716 41.7874 15.9716C43.5923 15.9716 45.0543 14.5073 45.0543 12.7024C45.0543 10.8975 43.5923 9.43315 41.7874 9.43315Z" fill="white"/>
</svg>
