<svg width="35" height="35" viewBox="0 0 35 35" fill="none" xmlns="http://www.w3.org/2000/svg">
<circle cx="17.5" cy="17.5" r="17.5" fill="#FF6600"/>
<path fill-rule="evenodd" clip-rule="evenodd" d="M13.5168 9.76537C13.1892 9.03769 12.8445 9.02294 12.5332 9.01016C12.2783 8.99935 11.9867 9.00001 11.6955 9.00001C11.4039 9.00001 10.9304 9.10944 10.5301 9.54683C10.1294 9.98423 9 11.0415 9 13.1921C9 15.3427 10.5664 17.4206 10.7846 17.7125C11.0032 18.0041 13.8084 22.5583 18.2515 24.3102C21.9436 25.7662 22.6949 25.4765 23.4966 25.4038C24.298 25.3311 26.0827 24.3465 26.4467 23.3259C26.811 22.3053 26.811 21.4309 26.7019 21.2481C26.5925 21.0656 26.3012 20.9565 25.8638 20.7379C25.4267 20.5194 23.2778 19.4618 22.8771 19.316C22.4764 19.1702 22.1851 19.0975 21.8935 19.5348C21.6022 19.9722 20.7651 20.9565 20.5099 21.2481C20.255 21.54 20.0001 21.5764 19.5627 21.3578C19.1256 21.1386 17.7178 20.6776 16.0478 19.1885C14.7484 18.03 13.8713 16.5992 13.6161 16.1618C13.3612 15.7244 13.5889 15.4879 13.8081 15.27C14.0043 15.0741 14.2451 14.7595 14.464 14.5043C14.6819 14.2491 14.7549 14.0669 14.9004 13.7756C15.0462 13.4837 14.9735 13.2285 14.864 13.01C14.7549 12.7914 13.9054 10.6297 13.5168 9.76537" fill="white"/>
</svg>
