<svg width="17" height="22" viewBox="0 0 17 22" fill="none" xmlns="http://www.w3.org/2000/svg">
<path class="hover-path" d="M11.6323 21.0912C11.0076 20.9009 10.3924 20.6323 9.78657 20.2857L9.71975 20.2471C7.63587 19.0334 5.66417 16.8928 3.80465 13.8253C3.41422 13.1812 3.06344 12.5535 2.75232 11.9422C1.1384 8.77129 0.591722 6.04136 1.11213 3.75293C1.35315 2.69309 2.113 1.84374 3.13751 1.46637L3.42329 1.37535L4.59658 1.05817C5.6132 0.78335 6.70818 1.23801 7.25445 2.13125L7.37049 2.34504L8.35931 4.41483C8.65115 5.02572 8.64981 5.7032 8.38829 6.2738C8.33621 6.38747 8.2738 6.4969 8.20133 6.60071C8.15254 6.6706 8.09919 6.73794 8.04136 6.80232L7.87364 6.96933L5.98916 8.64844C6.13256 9.83546 6.51617 10.9777 7.14 12.0751C7.67472 13.0157 8.31506 13.7987 9.06101 14.4241L9.44278 14.7237L12.067 13.9347C12.9314 13.6748 13.8851 13.9497 14.5017 14.616L14.6612 14.8073L16.0423 16.6504C16.6901 17.5149 16.6493 18.666 15.9719 19.427L15.8171 19.5838L14.9388 20.3864C14.068 21.182 12.8102 21.4502 11.6323 21.0912Z" fill="#F5F5F5"/>
</svg>
