<svg width="35" height="35" viewBox="0 0 35 35" fill="none" xmlns="http://www.w3.org/2000/svg">
<circle cx="17.5" cy="17.5" r="17.5" fill="#FF6600"/>
<path d="M25 10H10C8.89543 10 8 10.8954 8 12V20C8 21.1046 8.89543 22 10 22H25C26.1046 22 27 21.1046 27 20V12C27 10.8954 26.1046 10 25 10Z" stroke="white" stroke-width="2"/>
<path d="M22.5 25H12.5C12.2239 25 12 25.2239 12 25.5C12 25.7761 12.2239 26 12.5 26H22.5C22.7761 26 23 25.7761 23 25.5C23 25.2239 22.7761 25 22.5 25Z" stroke="white" stroke-width="2"/>
</svg>
