<svg width="25" height="24" viewBox="0 0 25 24" fill="none" xmlns="http://www.w3.org/2000/svg">
<path fill-rule="evenodd" clip-rule="evenodd" d="M20.8648 7.2C21.5368 7.2 22.0648 7.716 22.0648 8.4C22.0648 8.71826 21.9384 9.02348 21.7134 9.24853C21.4883 9.47357 21.1831 9.6 20.8648 9.6C20.1808 9.6 19.6648 9.06 19.6648 8.4C19.6648 7.716 20.1808 7.2 20.8648 7.2ZM2.86484 0C1.26524 0 0.464844 0.8004 0.464844 2.4V10.8C0.464844 14.352 3.09284 17.4 6.63284 17.892C7.37684 21.504 10.5688 24 14.2648 24C15.2892 24 16.3034 23.7982 17.2498 23.4063C18.1961 23.0143 19.056 22.4397 19.7803 21.7154C20.5046 20.9911 21.0791 20.1313 21.4711 19.1849C21.8631 18.2386 22.0648 17.2243 22.0648 16.2V11.772C23.4568 11.268 24.4648 9.948 24.4648 8.4C24.4648 7.44522 24.0856 6.52955 23.4104 5.85442C22.7353 5.17929 21.8196 4.8 20.8648 4.8C19.9101 4.8 18.9944 5.17929 18.3193 5.85442C17.6441 6.52955 17.2648 7.44522 17.2648 8.4C17.2648 9.948 18.2728 11.28 19.6648 11.772V16.092C19.6648 19.092 17.2648 21.492 14.2648 21.492C11.8648 21.492 9.84884 20.04 9.12884 17.88C12.4648 17.16 14.8648 14.16 14.8648 10.8V2.4C14.8648 0.8004 14.0644 0 12.4648 0H11.2648C10.4644 0 10.0648 0.3996 10.0648 1.2C10.0648 2.0004 10.4644 2.4 11.2648 2.4H12.4648V10.8C12.4648 12.073 11.9591 13.2939 11.059 14.1941C10.1588 15.0943 8.93788 15.6 7.66484 15.6C6.3918 15.6 5.17091 15.0943 4.27073 14.1941C3.37056 13.2939 2.86484 12.073 2.86484 10.8V2.4H4.06484C4.86524 2.4 5.26484 2.0004 5.26484 1.2C5.26484 0.3996 4.86524 0 4.06484 0H2.86484Z" fill="white"/>
</svg>
