<svg width="21" height="22" viewBox="0 0 21 22" fill="none" xmlns="http://www.w3.org/2000/svg">
<path d="M6.17913 10.4844C6.17913 10.7852 6.40234 11 6.71484 11H8.50056C8.76842 11 9.03627 10.7852 9.03627 10.4844V8.76562C9.03627 8.50781 8.76842 8.25 8.50056 8.25H6.71484C6.40234 8.25 6.17913 8.50781 6.17913 8.76562V10.4844ZM12.4291 11H14.2148C14.4827 11 14.7506 10.7852 14.7506 10.4844V8.76562C14.7506 8.50781 14.4827 8.25 14.2148 8.25H12.4291C12.1166 8.25 11.8934 8.50781 11.8934 8.76562V10.4844C11.8934 10.7852 12.1166 11 12.4291 11ZM9.03627 14.6094V12.8906C9.03627 12.6328 8.76842 12.375 8.50056 12.375H6.71484C6.40234 12.375 6.17913 12.6328 6.17913 12.8906V14.6094C6.17913 14.9102 6.40234 15.125 6.71484 15.125H8.50056C8.76842 15.125 9.03627 14.9102 9.03627 14.6094ZM12.4291 15.125H14.2148C14.4827 15.125 14.7506 14.9102 14.7506 14.6094V12.8906C14.7506 12.6328 14.4827 12.375 14.2148 12.375H12.4291C12.1166 12.375 11.8934 12.6328 11.8934 12.8906V14.6094C11.8934 14.9102 12.1166 15.125 12.4291 15.125ZM20.4648 20.4531C20.4648 20.1953 20.197 19.9375 19.9291 19.9375H19.0363V3.69531C19.0363 3.17969 18.5452 2.75 17.9648 2.75H14.0363V1.03125C14.0363 0.472656 13.5452 0 12.9648 0H7.96484C7.33984 0 6.89342 0.472656 6.89342 1.03125V2.75H2.9202C2.33984 2.75 1.84877 3.17969 1.84877 3.69531V19.9375H1.00056C0.688058 19.9375 0.464844 20.1953 0.464844 20.4531V22H20.4648V20.4531ZM3.99163 19.8945V4.8125H6.89342V5.84375C6.89342 6.44531 7.33984 6.875 7.96484 6.875H12.9648C13.5452 6.875 14.0363 6.44531 14.0363 5.84375V4.8125H16.8934V19.8945H11.8934V17.0156C11.8934 16.7578 11.6256 16.5 11.3577 16.5H9.57199C9.25949 16.5 9.03627 16.7578 9.03627 17.0156V19.8945H3.99163ZM12.3398 2.75C12.4738 2.75 12.6077 2.87891 12.6077 3.00781V3.86719C12.6077 4.03906 12.4738 4.125 12.3398 4.125H11.1791V5.24219C11.1791 5.41406 11.0452 5.5 10.9113 5.5H10.0184C9.83984 5.5 9.75056 5.41406 9.75056 5.24219V4.125H8.58984C8.41127 4.125 8.32199 4.03906 8.32199 3.86719V3.00781C8.32199 2.87891 8.41127 2.75 8.58984 2.75H9.75056V1.63281C9.75056 1.50391 9.83984 1.375 10.0184 1.375H10.9113C11.0452 1.375 11.1791 1.50391 11.1791 1.63281V2.75H12.3398Z" fill="white"/>
</svg>
