<svg width="39" height="39" viewBox="0 0 39 39" fill="none" xmlns="http://www.w3.org/2000/svg">
<g filter="url(#filter0_f_155_203)">
<path d="M14.444 27.4873L14.7907 27.6927C16.2466 28.5568 17.9158 29.0137 19.6182 29.0146H19.6218C24.8496 29.0146 29.1042 24.761 29.1064 19.5328C29.1073 16.9993 28.1217 14.6168 26.3309 12.8247C24.5401 11.0326 22.159 10.0452 19.6254 10.0442C14.3936 10.0442 10.1389 14.2973 10.137 19.5251C10.1362 21.3166 10.6376 23.0614 11.5869 24.5712L11.8126 24.9298L10.8543 28.4285L14.444 27.4873ZM8.1145 31.1388L9.73349 25.2276C8.73495 23.4976 8.20961 21.535 8.21025 19.5245C8.21281 13.2345 13.3316 8.11719 19.6218 8.11719C22.6742 8.11868 25.5393 9.30658 27.6941 11.4629C29.8482 13.6192 31.0344 16.4853 31.0333 19.5336C31.0306 25.8232 25.9109 30.9413 19.6218 30.9413C19.6213 30.9413 19.6223 30.9413 19.6218 30.9413H19.6169C17.7072 30.9406 15.8307 30.4615 14.1638 29.5525L8.1145 31.1388Z" fill="#B3B3B3"/>
</g>
<path d="M8 31.0216L9.61898 25.1104C8.62045 23.3805 8.09511 21.4178 8.09575 19.4073C8.09831 13.1173 13.2171 8 19.5073 8C22.5597 8.00149 25.4248 9.18939 27.5796 11.3457C29.7337 13.502 30.9199 16.3681 30.9188 19.4165C30.9161 25.706 25.7964 30.8242 19.5073 30.8242C19.5068 30.8242 19.5078 30.8242 19.5073 30.8242H19.5024C17.5927 30.8234 15.7162 30.3443 14.0493 29.4354L8 31.0216Z" fill="white"/>
<path d="M19.5131 9.92773C14.2813 9.92773 10.0266 14.1809 10.0247 19.4087C10.0239 21.2001 10.5252 22.945 11.4746 24.4548L11.7003 24.8134L10.7419 28.3121L14.3317 27.3708L14.6784 27.5763C16.1343 28.4404 17.8035 28.8973 19.5058 28.8981H19.5094C24.7372 28.8981 28.9919 24.6445 28.994 19.4163C28.995 16.8828 28.0094 14.5004 26.2186 12.7083C24.4278 10.9162 22.0466 9.9288 19.5131 9.92773Z" fill="url(#paint0_linear_155_203)"/>
<path fill-rule="evenodd" clip-rule="evenodd" d="M16.6563 14.6379C16.4426 14.1633 16.2177 14.1536 16.0147 14.1453C15.8484 14.1382 15.6582 14.1387 15.4682 14.1387C15.278 14.1387 14.9691 14.2101 14.7079 14.4954C14.4466 14.7807 13.7098 15.4704 13.7098 16.8733C13.7098 18.2762 14.7317 19.6317 14.874 19.8221C15.0166 20.0123 16.8465 22.9831 19.7449 24.1259C22.1533 25.0757 22.6434 24.8868 23.1664 24.8394C23.6892 24.7919 24.8534 24.1497 25.0908 23.4839C25.3285 22.8181 25.3285 22.2477 25.2573 22.1284C25.1859 22.0094 24.9959 21.9382 24.7106 21.7957C24.4255 21.6531 23.0236 20.9632 22.7623 20.8681C22.5009 20.773 22.3109 20.7255 22.1207 21.0109C21.9306 21.2962 21.3846 21.9382 21.2181 22.1284C21.0518 22.3189 20.8855 22.3426 20.6002 22.2C20.3151 22.0571 19.3967 21.7563 18.3073 20.785C17.4597 20.0292 16.8875 19.0959 16.721 18.8105C16.5548 18.5252 16.7033 18.3709 16.8463 18.2288C16.9743 18.101 17.1314 17.8958 17.2742 17.7293C17.4163 17.5628 17.464 17.444 17.5589 17.254C17.654 17.0635 17.6065 16.897 17.5351 16.7545C17.464 16.6119 16.9098 15.2018 16.6563 14.6379" fill="white"/>
<defs>
<filter id="filter0_f_155_203" x="0.452382" y="0.455068" width="38.2431" height="38.3457" filterUnits="userSpaceOnUse" color-interpolation-filters="sRGB">
<feFlood flood-opacity="0" result="BackgroundImageFix"/>
<feBlend mode="normal" in="SourceGraphic" in2="BackgroundImageFix" result="shape"/>
<feGaussianBlur stdDeviation="3.83106" result="effect1_foregroundBlur_155_203"/>
</filter>
<linearGradient id="paint0_linear_155_203" x1="19.3162" y1="11.0662" x2="19.4125" y2="27.2775" gradientUnits="userSpaceOnUse">
<stop stop-color="#57D163"/>
<stop offset="1" stop-color="#23B33A"/>
</linearGradient>
</defs>
</svg>
