<svg width="36" height="36" viewBox="0 0 36 36" fill="none" xmlns="http://www.w3.org/2000/svg">
<path d="M0 35.2914L2.48185 26.2296C0.951131 23.5777 0.145799 20.569 0.146781 17.487C0.150704 7.84461 7.99762 0 17.6403 0C22.3196 0.00228246 26.7116 1.8233 30.0148 5.12883C33.3171 8.43436 35.1355 12.828 35.1338 17.5011C35.1296 27.1428 27.2813 34.9887 17.6403 34.9887C17.6396 34.9887 17.641 34.9887 17.6403 34.9887H17.6328C14.7053 34.9875 11.8287 34.2531 9.27344 32.8597L0 35.2914Z" fill="white"/>
<path d="M17.648 2.95557C9.6278 2.95557 3.10549 9.4755 3.10254 17.4895C3.10135 20.2358 3.86991 22.9106 5.32527 25.225L5.67126 25.7748L4.20205 31.1382L9.70512 29.6953L10.2365 30.0102C12.4684 31.3348 15.0272 32.0353 17.6368 32.0366H17.6424C25.6564 32.0366 32.1787 25.516 32.182 17.5013C32.1834 13.6175 30.6726 9.96532 27.9273 7.21808C25.182 4.47085 21.5318 2.9572 17.648 2.95557Z" fill="url(#paint0_linear_381_16)"/>
<path fill-rule="evenodd" clip-rule="evenodd" d="M13.2697 10.1765C12.9421 9.44882 12.5974 9.43408 12.2862 9.4213C12.0313 9.41048 11.7397 9.41114 11.4484 9.41114C11.1568 9.41114 10.6834 9.52057 10.283 9.95797C9.8823 10.3954 8.75293 11.4526 8.75293 13.6033C8.75293 15.7539 10.3194 17.8317 10.5376 18.1237C10.7561 18.4153 13.5613 22.9694 18.0044 24.7213C21.6966 26.1773 22.4478 25.8877 23.2496 25.8149C24.051 25.7422 25.8356 24.7577 26.1996 23.7371C26.5639 22.7165 26.5639 21.842 26.4548 21.6592C26.3454 21.4767 26.0541 21.3676 25.6167 21.1491C25.1797 20.9305 23.0307 19.8729 22.63 19.7271C22.2293 19.5813 21.938 19.5086 21.6464 19.946C21.3552 20.3834 20.518 21.3676 20.2628 21.6592C20.0079 21.9511 19.753 21.9875 19.3156 21.769C18.8786 21.5498 17.4707 21.0888 15.8007 19.5997C14.5013 18.4411 13.6242 17.0104 13.369 16.573C13.1141 16.1356 13.3418 15.899 13.561 15.6811C13.7573 15.4852 13.9981 15.1707 14.2169 14.9154C14.4348 14.6602 14.5079 14.478 14.6533 14.1868C14.7991 13.8949 14.7264 13.6396 14.617 13.4211C14.5079 13.2026 13.6583 11.0408 13.2697 10.1765" fill="white"/>
<defs>
<linearGradient id="paint0_linear_381_16" x1="17.3462" y1="4.70074" x2="17.4937" y2="29.5521" gradientUnits="userSpaceOnUse">
<stop stop-color="#57D163"/>
<stop offset="1" stop-color="#23B33A"/>
</linearGradient>
</defs>
</svg>
