<svg width="24" height="25" viewBox="0 0 24 25" fill="none" xmlns="http://www.w3.org/2000/svg">
<path d="M6.71255 20.304L7.07372 20.518C8.59055 21.4183 10.3296 21.8944 12.1032 21.8952H12.107C17.5535 21.8952 21.9862 17.4637 21.9884 12.0167C21.9894 9.37715 20.9626 6.89504 19.0968 5.02795C17.2311 3.16086 14.7503 2.13212 12.1107 2.13101C6.66 2.13101 2.2273 6.56215 2.2253 12.0087C2.22449 13.8751 2.74679 15.693 3.73589 17.2659L3.97103 17.6396L2.97258 21.2847L6.71255 20.304ZM0.118164 24.1084L1.80489 17.9497C0.764577 16.1474 0.217253 14.1027 0.21792 12.008C0.220586 5.45481 5.55355 0.123413 12.107 0.123413C15.2871 0.124964 18.272 1.36257 20.517 3.6091C22.7613 5.85562 23.9971 8.84163 23.996 12.0176C23.9931 18.5703 18.6593 23.9026 12.107 23.9026C12.1065 23.9026 12.1074 23.9026 12.107 23.9026H12.1018C10.1123 23.9018 8.15723 23.4027 6.42063 22.4557L0.118164 24.1084Z" fill="#B3B3B3"/>
<path d="M0 23.985L1.68673 17.8263C0.646413 16.024 0.0990889 13.9793 0.0997562 11.8846C0.102422 5.3314 5.43539 0 11.9888 0C15.169 0.00155122 18.1539 1.23916 20.3988 3.48568C22.6431 5.73221 23.879 8.71822 23.8778 11.8942C23.8749 18.4469 18.5411 23.7792 11.9888 23.7792C11.9883 23.7792 11.9893 23.7792 11.9888 23.7792H11.9837C9.99412 23.7784 8.03907 23.2793 6.30246 22.3323L0 23.985Z" fill="white"/>
<path d="M11.9963 2.00879C6.54558 2.00879 2.11284 6.4399 2.11084 11.8864C2.11003 13.7528 2.63236 15.5707 3.62146 17.1437L3.85661 17.5173L2.85809 21.1624L6.59812 20.1818L6.95927 20.3958C8.4761 21.2961 10.2152 21.7721 11.9887 21.773H11.9925C17.439 21.773 21.8717 17.3414 21.874 11.8944C21.8749 9.2549 20.8481 6.7728 18.9824 4.9057C17.1166 3.03861 14.6359 2.0099 11.9963 2.00879Z" fill="url(#paint0_linear_324_8)"/>
<path fill-rule="evenodd" clip-rule="evenodd" d="M9.02091 6.91604C8.79824 6.42149 8.56399 6.41147 8.35245 6.40278C8.17921 6.39543 7.98104 6.39588 7.78308 6.39588C7.58491 6.39588 7.26315 6.47025 6.99104 6.76752C6.71872 7.06478 5.95117 7.78334 5.95117 9.24495C5.95117 10.7066 7.01576 12.1187 7.16406 12.3171C7.31258 12.5153 9.21908 15.6104 12.2387 16.801C14.748 17.7906 15.2586 17.5938 15.8035 17.5443C16.3481 17.4949 17.561 16.8258 17.8084 16.1321C18.056 15.4385 18.056 14.8442 17.9818 14.72C17.9075 14.5959 17.7095 14.5218 17.4122 14.3733C17.1152 14.2248 15.6547 13.506 15.3824 13.4069C15.1101 13.3078 14.9121 13.2584 14.7139 13.5556C14.516 13.8529 13.947 14.5218 13.7736 14.72C13.6003 14.9184 13.4271 14.9431 13.1298 14.7946C12.8328 14.6456 11.876 14.3323 10.741 13.3203C9.85793 12.5329 9.26184 11.5605 9.08838 11.2632C8.91514 10.966 9.06989 10.8052 9.21886 10.6571C9.35224 10.524 9.5159 10.3102 9.66465 10.1367C9.81272 9.96328 9.86238 9.83948 9.96125 9.64152C10.0603 9.44313 10.0109 9.26966 9.93653 9.12114C9.86238 8.97262 9.285 7.50344 9.02091 6.91604Z" fill="white"/>
<defs>
<linearGradient id="paint0_linear_324_8" x1="11.7912" y1="3.19485" x2="11.8915" y2="20.0845" gradientUnits="userSpaceOnUse">
<stop stop-color="#57D163"/>
<stop offset="1" stop-color="#23B33A"/>
</linearGradient>
</defs>
</svg>
