<svg width="56" height="55" viewBox="0 0 56 55" fill="none" xmlns="http://www.w3.org/2000/svg">
<path d="M27.8648 4.91068C35.1389 4.91068 36.0016 4.93793 38.8758 5.06961C46.2589 5.40561 49.7075 8.9087 50.0435 16.2373C50.1752 19.1092 50.2002 19.9719 50.2002 27.246C50.2002 34.5224 50.1729 35.3828 50.0435 38.2548C49.7052 45.5765 46.2657 49.0864 38.8758 49.4224C36.0016 49.5541 35.1435 49.5813 27.8648 49.5813C20.5908 49.5813 19.728 49.5541 16.8561 49.4224C9.45488 49.0841 6.02444 45.5652 5.68843 38.2525C5.55675 35.3805 5.52951 34.5201 5.52951 27.2437C5.52951 19.9697 5.55902 19.1092 5.68843 16.235C6.02671 8.9087 9.46623 5.40334 16.8561 5.06734C19.7303 4.93793 20.5908 4.91068 27.8648 4.91068ZM27.8648 0C20.4659 0 19.5396 0.0317844 16.6336 0.163462C6.73958 0.617525 1.24089 6.10714 0.786826 16.0102C0.652878 18.9185 0.621094 19.8448 0.621094 27.2437C0.621094 34.6427 0.652878 35.5712 0.784556 38.4772C1.23862 48.3713 6.72823 53.87 16.6313 54.324C19.5396 54.4557 20.4659 54.4875 27.8648 54.4875C35.2638 54.4875 36.1923 54.4557 39.0983 54.324C48.9833 53.87 54.4956 48.3803 54.9428 38.4772C55.0768 35.5712 55.1086 34.6427 55.1086 27.2437C55.1086 19.8448 55.0768 18.9185 54.9451 16.0125C54.5001 6.12757 49.0037 0.619795 39.1006 0.165733C36.1923 0.0317844 35.2638 0 27.8648 0Z" fill="white"/>
<path d="M20.5737 39.9562V20.9468H14.2552V39.9562H20.5743H20.5737ZM17.4158 18.3518C19.6187 18.3518 20.9901 16.8921 20.9901 15.0679C20.9489 13.2022 19.6187 11.7832 17.4577 11.7832C15.2952 11.7832 13.8828 13.2022 13.8828 15.0678C13.8828 16.892 15.2538 18.3517 17.3744 18.3517H17.4153L17.4158 18.3518ZM24.071 39.9562H30.3889V29.3416C30.3889 28.7742 30.4302 28.2054 30.5971 27.8001C31.0536 26.6645 32.0932 25.489 33.8391 25.489C36.1248 25.489 37.0397 27.2321 37.0397 29.7878V39.9562H43.3575V29.0568C43.3575 23.2182 40.2408 20.5011 36.0839 20.5011C32.6758 20.5011 31.179 22.406 30.3474 23.7034H30.3894V20.9475H24.0713C24.1538 22.7308 24.0708 39.9568 24.0708 39.9568L24.071 39.9562Z" fill="white"/>
</svg>
