<svg width="25" height="24" viewBox="0 0 25 24" fill="none" xmlns="http://www.w3.org/2000/svg">
<path d="M15.8965 6.966L16.0048 7.31963H16.3746H22.2492C22.7569 7.35862 23.1193 7.49031 23.3725 7.67905C23.6223 7.86528 23.8041 8.1352 23.9039 8.52426C24.0907 9.25274 23.8592 9.97086 23.0087 10.7222L18.5575 13.9973L18.2766 14.204L18.3735 14.539L20.2467 21.0142L20.2507 21.0282L20.2556 21.042C20.4127 21.4861 20.423 21.8513 20.3308 22.1591C20.2385 22.4673 20.0275 22.7707 19.6481 23.0626L19.6478 23.0629C19.2761 23.3493 18.9108 23.4816 18.5445 23.493C18.1785 23.5044 17.7682 23.3963 17.3055 23.1285L12.7554 19.9425L12.4695 19.7423L12.183 19.9417L7.52652 23.1829C6.43726 23.6686 5.69003 23.5664 5.13708 23.0826L5.13674 23.0823C4.8181 22.804 4.62846 22.5085 4.53848 22.1971C4.44829 21.8849 4.44785 21.5204 4.56587 21.0887C4.56606 21.088 4.56625 21.0874 4.56644 21.0867L6.42523 14.5366L6.51839 14.2083L6.24662 14.0019L1.9321 10.7253C1.09296 9.97887 0.846729 9.25344 1.01507 8.51053L1.01517 8.51009C1.10328 8.11962 1.27496 7.85385 1.51249 7.67219C1.75412 7.48738 2.10704 7.35696 2.61171 7.31963H8.44862H8.8164L8.92593 6.96853L10.5935 1.62302C10.7628 1.23331 10.9948 0.964469 11.2805 0.787892C11.5748 0.606018 11.9621 0.5 12.4686 0.5C12.9753 0.5 13.3509 0.606926 13.6278 0.785539C13.8976 0.959649 14.1125 1.22681 14.2604 1.62191L15.8965 6.966ZM2.91303 8.71364H1.421L2.61175 9.61267L8.2562 13.8743L5.99209 21.4253L5.5714 22.8283L6.76217 21.9754L12.5172 17.8532L18.2435 22.0049L19.4638 22.8896L19.0142 21.451L16.6466 13.8737L22.3545 9.61312L23.5611 8.71243H22.0554H15.2572L12.9713 2.23365L12.5018 0.902783L12.0287 2.23242L9.72299 8.71364H2.91543H2.91303Z" fill="white" stroke="white"/>
</svg>
