<svg width="139" height="47" viewBox="0 0 139 47" fill="none" xmlns="http://www.w3.org/2000/svg">
<path d="M127.224 0.000150172H11.0141C10.5905 0.000150172 10.172 0.000150172 9.74955 0.0024605C9.39589 0.00477084 9.04506 0.0114824 8.68801 0.0171311C7.91233 0.026259 7.13847 0.0944999 6.37317 0.221261C5.60894 0.350781 4.86865 0.594964 4.17734 0.94555C3.48687 1.2991 2.85597 1.75851 2.30753 2.3071C1.7562 2.85415 1.29663 3.48646 0.946486 4.17973C0.595373 4.87161 0.351911 5.61303 0.224507 6.37838C0.0958915 7.14276 0.0266825 7.91595 0.0175008 8.69102C0.00678083 9.0452 0.00564876 9.40055 0 9.75477V36.4556C0.00564876 36.8143 0.00678083 37.1617 0.0175008 37.5205C0.0266853 38.2956 0.0958943 39.0687 0.224507 39.8331C0.351559 40.5989 0.595036 41.3407 0.946486 42.0328C1.29647 42.7239 1.75611 43.3536 2.30753 43.8976C2.85389 44.4487 3.4852 44.9084 4.17734 45.2592C4.86864 45.6108 5.60885 45.8564 6.37317 45.9879C7.13861 46.1137 7.91238 46.1819 8.68801 46.1921C9.04506 46.2 9.39589 46.2045 9.74955 46.2045C10.172 46.2068 10.5906 46.2068 11.0141 46.2068H127.224C127.639 46.2068 128.061 46.2068 128.476 46.2045C128.828 46.2045 129.189 46.2 129.541 46.1921C130.315 46.1825 131.088 46.1142 131.851 45.9879C132.618 45.8555 133.361 45.6099 134.056 45.2592C134.747 44.9082 135.378 44.4485 135.924 43.8976C136.474 43.3515 136.935 42.7222 137.289 42.0328C137.638 41.3402 137.879 40.5984 138.004 39.8331C138.133 39.0686 138.205 38.2956 138.218 37.5205C138.223 37.1617 138.223 36.8143 138.223 36.4556C138.232 36.0359 138.232 35.6186 138.232 35.1921V11.016C138.232 10.5929 138.232 10.1733 138.223 9.75477C138.223 9.40055 138.223 9.0452 138.218 8.69098C138.205 7.91584 138.133 7.14282 138.004 6.37833C137.878 5.61343 137.637 4.87207 137.289 4.17968C136.576 2.7901 135.445 1.659 134.056 0.945446C133.361 0.595716 132.618 0.351599 131.851 0.221157C131.088 0.0938374 130.315 0.0255728 129.541 0.0169694C129.189 0.0113322 128.828 0.00456291 128.476 0.00231033C128.061 0 127.639 0 127.224 0V0.000150172Z" fill="#A6A6A6"/>
<path d="M9.75819 45.1967C9.40623 45.1967 9.06278 45.1922 8.71358 45.1844C7.9902 45.1749 7.2685 45.112 6.55441 44.9959C5.88856 44.8813 5.24354 44.668 4.6406 44.363C4.0432 44.0606 3.49832 43.6641 3.02684 43.1887C2.54853 42.7189 2.15031 42.1739 1.84798 41.5755C1.54231 40.9732 1.33077 40.3276 1.22072 39.6612C1.10188 38.9451 1.03759 38.221 1.02839 37.4952C1.02106 37.2516 1.01147 36.4404 1.01147 36.4404V9.75544C1.01147 9.75544 1.02169 8.95675 1.02844 8.7221C1.03725 7.99745 1.10118 7.27451 1.21966 6.55955C1.32991 5.89131 1.54161 5.24384 1.84745 4.63955C2.14867 4.04153 2.54467 3.4962 3.0201 3.02468C3.49499 2.54869 4.04162 2.15013 4.64004 1.84356C5.24158 1.53962 5.88539 1.3278 6.5499 1.21522C7.26633 1.09804 7.99053 1.0347 8.71642 1.0257L9.75875 1.0116H128.474L129.528 1.02627C130.248 1.03481 130.965 1.0976 131.675 1.21409C132.346 1.32808 132.997 1.54137 133.605 1.84694C134.804 2.46478 135.78 3.44226 136.395 4.64237C136.696 5.24248 136.904 5.88467 137.013 6.54714C137.133 7.26797 137.2 7.99659 137.214 8.72719C137.217 9.05433 137.217 9.40573 137.217 9.75544C137.226 10.1886 137.226 10.6009 137.226 11.0166V35.1927C137.226 35.6124 137.226 36.0219 137.217 36.4348C137.217 36.8104 137.217 37.1546 137.213 37.5087C137.199 38.2263 137.133 38.9419 137.015 39.6498C136.908 40.3211 136.697 40.9717 136.392 41.579C136.087 42.1709 135.691 42.7111 135.218 43.1797C134.747 43.6577 134.201 44.0565 133.602 44.3608C132.995 44.6681 132.346 44.8822 131.675 44.9959C130.961 45.1126 130.239 45.1756 129.516 45.1844C129.178 45.1922 128.823 45.1967 128.479 45.1967L127.227 45.199L9.75819 45.1967Z" fill="black"/>
<path d="M38.6041 14.5419V8.6447H40.2687C40.7818 8.6447 41.2354 8.75811 41.6296 8.98492C42.0239 9.21174 42.3276 9.53441 42.5409 9.95295C42.757 10.3715 42.8663 10.8521 42.869 11.3949V11.7715C42.869 12.3278 42.761 12.8152 42.545 13.2337C42.3317 13.6522 42.0252 13.9735 41.6256 14.1977C41.2286 14.4218 40.7656 14.5365 40.2363 14.5419H38.6041ZM39.3817 9.28465V13.906H40.1999C40.7993 13.906 41.2651 13.7197 41.5972 13.3471C41.932 12.9745 42.0995 12.4439 42.0995 11.7553V11.4111C42.0995 10.7414 41.9415 10.2216 41.6256 9.85169C41.3124 9.47906 40.8668 9.29005 40.289 9.28465H39.3817ZM45.7488 14.6229C45.1547 14.6229 44.6714 14.4285 44.2988 14.0397C43.9261 13.6482 43.7398 13.1257 43.7398 12.4722V12.3345C43.7398 11.8998 43.8222 11.5123 43.9869 11.1721C44.1543 10.8292 44.3865 10.5618 44.6836 10.3701C44.9833 10.1757 45.3073 10.0785 45.6556 10.0785C46.2254 10.0785 46.6682 10.2662 46.9841 10.6415C47.3 11.0168 47.458 11.5542 47.458 12.2535V12.5654H44.4891C44.4999 12.9974 44.6255 13.3471 44.8658 13.6144C45.1088 13.879 45.4167 14.0113 45.7893 14.0113C46.0539 14.0113 46.278 13.9573 46.4616 13.8493C46.6452 13.7413 46.8059 13.5982 46.9436 13.42L47.4013 13.7764C47.0341 14.3408 46.4832 14.6229 45.7488 14.6229ZM45.6556 10.6941C45.3532 10.6941 45.0994 10.8049 44.8942 11.0263C44.689 11.245 44.562 11.5528 44.5134 11.9497H46.7087V11.893C46.6871 11.5123 46.5845 11.218 46.4009 11.0101C46.2173 10.7995 45.9688 10.6941 45.6556 10.6941ZM50.8805 13.3795C50.8805 13.177 50.8035 13.0204 50.6496 12.9097C50.4984 12.7963 50.2325 12.699 49.8517 12.618C49.4737 12.537 49.1726 12.4398 48.9485 12.3264C48.7271 12.213 48.5624 12.078 48.4544 11.9214C48.3491 11.7648 48.2964 11.5785 48.2964 11.3624C48.2964 11.0033 48.4476 10.6996 48.75 10.4511C49.0552 10.2027 49.444 10.0785 49.9165 10.0785C50.4134 10.0785 50.8157 10.2068 51.1235 10.4633C51.434 10.7198 51.5893 11.0479 51.5893 11.4475H50.836C50.836 11.2423 50.7482 11.0654 50.5727 10.9169C50.3999 10.7684 50.1812 10.6941 49.9165 10.6941C49.6438 10.6941 49.4305 10.7536 49.2766 10.8724C49.1227 10.9912 49.0457 11.1464 49.0457 11.3381C49.0457 11.5191 49.1173 11.6554 49.2604 11.7472C49.4035 11.839 49.6614 11.9268 50.034 12.0105C50.4093 12.0942 50.7131 12.1941 50.9453 12.3102C51.1775 12.4263 51.349 12.5667 51.4597 12.7314C51.5731 12.8935 51.6298 13.0919 51.6298 13.3268C51.6298 13.7184 51.4732 14.0329 51.16 14.2706C50.8468 14.5055 50.4404 14.6229 49.9408 14.6229C49.5898 14.6229 49.2793 14.5608 49.0093 14.4366C48.7392 14.3124 48.5273 14.1396 48.3734 13.9182C48.2222 13.6941 48.1466 13.4524 48.1466 13.1932H48.8959C48.9094 13.4443 49.0093 13.6441 49.1956 13.7926C49.3846 13.9384 49.633 14.0113 49.9408 14.0113C50.2244 14.0113 50.4512 13.9546 50.6213 13.8412C50.7941 13.7251 50.8805 13.5712 50.8805 13.3795ZM54.3638 14.0113C54.6311 14.0113 54.8646 13.9303 55.0645 13.7683C55.2643 13.6063 55.375 13.4038 55.3966 13.1608H56.1054C56.0919 13.4119 56.0055 13.6509 55.8462 13.8777C55.6869 14.1045 55.4735 14.2854 55.2062 14.4204C54.9416 14.5554 54.6608 14.6229 54.3638 14.6229C53.767 14.6229 53.2918 14.4245 52.9381 14.0275C52.587 13.6279 52.4115 13.0825 52.4115 12.3912V12.2657C52.4115 11.839 52.4898 11.4597 52.6464 11.1275C52.803 10.7954 53.0272 10.5375 53.3188 10.3539C53.6131 10.1703 53.9601 10.0785 54.3597 10.0785C54.8511 10.0785 55.2589 10.2257 55.5829 10.52C55.9096 10.8143 56.0838 11.1964 56.1054 11.6662H55.3966C55.375 11.3827 55.267 11.1505 55.0726 10.9696C54.8808 10.786 54.6432 10.6941 54.3597 10.6941C53.979 10.6941 53.6833 10.8319 53.4727 11.1073C53.2648 11.38 53.1608 11.7756 53.1608 12.294V12.4358C53.1608 12.9407 53.2648 13.3295 53.4727 13.6023C53.6806 13.875 53.9776 14.0113 54.3638 14.0113ZM59.6534 14.5419C59.6102 14.4555 59.5751 14.3016 59.5481 14.0802C59.1998 14.442 58.784 14.6229 58.3006 14.6229C57.8686 14.6229 57.5135 14.5014 57.2354 14.2584C56.96 14.0127 56.8223 13.7022 56.8223 13.3268C56.8223 12.8705 56.9951 12.5168 57.3407 12.2657C57.6891 12.0118 58.1778 11.8849 58.8069 11.8849H59.536V11.5407C59.536 11.2787 59.4577 11.0708 59.3011 10.9169C59.1445 10.7603 58.9136 10.682 58.6085 10.682C58.3411 10.682 58.117 10.7495 57.9361 10.8845C57.7552 11.0195 57.6647 11.1829 57.6647 11.3746H56.9114C56.9114 11.1559 56.9884 10.9453 57.1423 10.7428C57.2989 10.5375 57.5095 10.3755 57.7741 10.2567C58.0414 10.1379 58.3344 10.0785 58.653 10.0785C59.158 10.0785 59.5535 10.2054 59.8398 10.4592C60.126 10.7104 60.2745 11.0573 60.2853 11.5002V13.5172C60.2853 13.9195 60.3366 14.2395 60.4392 14.4771V14.5419H59.6534ZM58.41 13.9708C58.6449 13.9708 58.8677 13.9101 59.0783 13.7886C59.2889 13.6671 59.4415 13.5091 59.536 13.3147V12.4155H58.9487C58.0306 12.4155 57.5716 12.6842 57.5716 13.2215C57.5716 13.4565 57.6499 13.6401 57.8065 13.7724C57.9631 13.9047 58.1643 13.9708 58.41 13.9708ZM59.1026 8.32068H60.0099L58.9244 9.51146H58.3209L59.1026 8.32068ZM63.5782 10.8319C63.4648 10.813 63.3419 10.8035 63.2096 10.8035C62.7182 10.8035 62.3847 11.0128 62.2092 11.4313V14.5419H61.4599V10.1595H62.1889L62.2011 10.6658C62.4468 10.2743 62.7951 10.0785 63.2461 10.0785C63.3919 10.0785 63.5026 10.0974 63.5782 10.1352V10.8319ZM64.0116 12.3143C64.0116 11.6311 64.1695 11.0884 64.4854 10.686C64.8014 10.281 65.2199 10.0785 65.741 10.0785C66.2757 10.0785 66.6929 10.2675 66.9926 10.6455L67.029 10.1595H67.7135V14.4366C67.7135 15.0037 67.5448 15.4505 67.2072 15.7773C66.8724 16.104 66.4215 16.2674 65.8544 16.2674C65.5385 16.2674 65.2294 16.1999 64.9269 16.0648C64.6245 15.9298 64.3936 15.7449 64.2343 15.51L64.6232 15.0604C64.9445 15.4573 65.3374 15.6558 65.8018 15.6558C66.1663 15.6558 66.4498 15.5532 66.6524 15.3479C66.8576 15.1427 66.9602 14.8538 66.9602 14.4812V14.1045C66.6605 14.4501 66.2514 14.6229 65.7329 14.6229C65.2199 14.6229 64.8041 14.4164 64.4854 14.0032C64.1695 13.5901 64.0116 13.0271 64.0116 12.3143ZM64.7649 12.3993C64.7649 12.8935 64.8662 13.2823 65.0687 13.5658C65.2712 13.8466 65.5547 13.987 65.9193 13.987C66.3918 13.987 66.7388 13.7724 66.9602 13.343V11.3422C66.7307 10.9237 66.3864 10.7144 65.9274 10.7144C65.5628 10.7144 65.278 10.8562 65.0727 11.1397C64.8675 11.4232 64.7649 11.8431 64.7649 12.3993ZM71.5532 14.5419C71.51 14.4555 71.4749 14.3016 71.4479 14.0802C71.0996 14.442 70.6838 14.6229 70.2004 14.6229C69.7684 14.6229 69.4133 14.5014 69.1352 14.2584C68.8598 14.0127 68.7221 13.7022 68.7221 13.3268C68.7221 12.8705 68.8949 12.5168 69.2405 12.2657C69.5888 12.0118 70.0776 11.8849 70.7067 11.8849H71.4358V11.5407C71.4358 11.2787 71.3575 11.0708 71.2008 10.9169C71.0442 10.7603 70.8134 10.682 70.5082 10.682C70.2409 10.682 70.0168 10.7495 69.8359 10.8845C69.655 11.0195 69.5645 11.1829 69.5645 11.3746H68.8112C68.8112 11.1559 68.8881 10.9453 69.042 10.7428C69.1986 10.5375 69.4093 10.3755 69.6739 10.2567C69.9412 10.1379 70.2342 10.0785 70.5528 10.0785C71.0577 10.0785 71.4533 10.2054 71.7395 10.4592C72.0258 10.7104 72.1743 11.0573 72.1851 11.5002V13.5172C72.1851 13.9195 72.2364 14.2395 72.339 14.4771V14.5419H71.5532ZM70.3098 13.9708C70.5447 13.9708 70.7675 13.9101 70.9781 13.7886C71.1887 13.6671 71.3413 13.5091 71.4358 13.3147V12.4155H70.8485C69.9304 12.4155 69.4714 12.6842 69.4714 13.2215C69.4714 13.4565 69.5497 13.6401 69.7063 13.7724C69.8629 13.9047 70.0641 13.9708 70.3098 13.9708ZM74.1738 14.5419H73.4245V8.32068H74.1738V14.5419ZM75.1782 12.3102C75.1782 11.8809 75.2619 11.4948 75.4293 11.1518C75.5995 10.8089 75.8344 10.5443 76.1341 10.358C76.4365 10.1717 76.7808 10.0785 77.1669 10.0785C77.7637 10.0785 78.2457 10.2851 78.6129 10.6982C78.9828 11.1113 79.1678 11.6608 79.1678 12.3467V12.3993C79.1678 12.826 79.0854 13.2094 78.9207 13.5496C78.7587 13.8871 78.5251 14.1504 78.22 14.3394C77.9176 14.5284 77.5693 14.6229 77.175 14.6229C76.581 14.6229 76.099 14.4164 75.7291 14.0032C75.3618 13.5901 75.1782 13.0433 75.1782 12.3629V12.3102ZM75.9316 12.3993C75.9316 12.8854 76.0436 13.2755 76.2678 13.5699C76.4946 13.8642 76.797 14.0113 77.175 14.0113C77.5558 14.0113 77.8582 13.8628 78.0823 13.5658C78.3064 13.2661 78.4185 12.8476 78.4185 12.3102C78.4185 11.8296 78.3037 11.4408 78.0742 11.1437C77.8474 10.844 77.545 10.6941 77.1669 10.6941C76.797 10.6941 76.4986 10.8413 76.2718 11.1356C76.045 11.43 75.9316 11.8512 75.9316 12.3993ZM83.9836 14.6229C83.3895 14.6229 82.9062 14.4285 82.5336 14.0397C82.1609 13.6482 81.9746 13.1257 81.9746 12.4722V12.3345C81.9746 11.8998 82.057 11.5123 82.2217 11.1721C82.3891 10.8292 82.6213 10.5618 82.9183 10.3701C83.2181 10.1757 83.5421 10.0785 83.8904 10.0785C84.4602 10.0785 84.903 10.2662 85.2189 10.6415C85.5348 11.0168 85.6928 11.5542 85.6928 12.2535V12.5654H82.7239C82.7347 12.9974 82.8603 13.3471 83.1006 13.6144C83.3436 13.879 83.6515 14.0113 84.0241 14.0113C84.2887 14.0113 84.5128 13.9573 84.6964 13.8493C84.88 13.7413 85.0407 13.5982 85.1784 13.42L85.6361 13.7764C85.2689 14.3408 84.718 14.6229 83.9836 14.6229ZM83.8904 10.6941C83.588 10.6941 83.3342 10.8049 83.129 11.0263C82.9237 11.245 82.7968 11.5528 82.7482 11.9497H84.9435V11.893C84.9219 11.5123 84.8193 11.218 84.6357 11.0101C84.4521 10.7995 84.2036 10.6941 83.8904 10.6941ZM87.2724 10.1595L87.2967 10.7104C87.6315 10.2891 88.069 10.0785 88.609 10.0785C89.5352 10.0785 90.0023 10.601 90.0104 11.646V14.5419H89.2611V11.6419C89.2584 11.326 89.1855 11.0924 89.0424 10.9412C88.902 10.79 88.6819 10.7144 88.3822 10.7144C88.1392 10.7144 87.9259 10.7792 87.7423 10.9088C87.5586 11.0384 87.4155 11.2085 87.3129 11.4192V14.5419H86.5636V10.1595H87.2724Z" fill="white"/>
<path d="M28.0538 22.6522C28.0276 19.5248 30.6133 18.0049 30.7269 17.935C29.2593 15.8035 26.9881 15.5065 26.1932 15.4803C24.2888 15.2794 22.4369 16.6246 21.4672 16.6246C20.4801 16.6246 18.9776 15.5065 17.3703 15.5327C15.3 15.5677 13.3519 16.7644 12.2949 18.6338C10.1023 22.4338 11.7359 28.0245 13.8411 31.0994C14.8981 32.6019 16.1211 34.2879 17.7372 34.2267C19.3096 34.1656 19.9036 33.2221 21.7992 33.2221C23.6861 33.2221 24.2364 34.2267 25.8787 34.1918C27.5734 34.1656 28.6304 32.6805 29.6524 31.1606C30.8667 29.4397 31.3559 27.7362 31.3733 27.6489C31.3296 27.6314 28.0888 26.391 28.0538 22.6522" fill="white"/>
<path d="M24.9539 13.4266C25.8013 12.3696 26.3778 10.9283 26.2206 9.46069C24.9976 9.51311 23.4601 10.308 22.5779 11.3476C21.8004 12.2648 21.1016 13.7586 21.2763 15.165C22.6565 15.2698 24.0716 14.4661 24.9539 13.4266" fill="white"/>
<path d="M49.3652 33.9849H47.0509L45.7836 29.9992H41.3755L40.1725 33.9849H37.9225L42.2847 20.4208H44.9846L49.3652 33.9849ZM45.4071 28.3278L44.2591 24.7922C44.1398 24.4248 43.9102 23.5799 43.5796 22.2391H43.5336C43.3959 22.8177 43.1847 23.6718 42.8908 24.7922L41.7612 28.3278H45.4071Z" fill="white"/>
<path d="M60.5807 28.9749C60.5807 30.6371 60.1307 31.9503 59.2215 32.9146C58.4133 33.7779 57.4031 34.2003 56.2093 34.2003C54.9144 34.2003 53.9869 33.7411 53.4175 32.8136V37.9472H51.241V27.4137C51.241 26.3667 51.2134 25.3014 51.1583 24.1994H53.0685L53.1879 25.7514H53.2246C53.9501 24.5851 55.0522 23.9974 56.5215 23.9974C57.6787 23.9974 58.6337 24.4566 59.4052 25.3657C60.195 26.2841 60.5807 27.4779 60.5807 28.9749V28.9749ZM58.3674 29.0483C58.3674 28.0932 58.1562 27.3126 57.7246 26.6973C57.2562 26.0545 56.6225 25.7331 55.8328 25.7331C55.3001 25.7331 54.8134 25.9167 54.3726 26.2657C53.9409 26.6239 53.6471 27.0831 53.5185 27.6616C53.4542 27.9279 53.4175 28.1483 53.4175 28.3228V29.9575C53.4175 30.6646 53.6379 31.2708 54.0695 31.7575C54.5011 32.2442 55.0705 32.4922 55.7685 32.4922C56.5858 32.4922 57.2195 32.1707 57.6787 31.5463C58.1378 30.9126 58.3674 30.0861 58.3674 29.0483V29.0483Z" fill="white"/>
<path d="M71.8182 28.9749C71.8182 30.6371 71.3682 31.9503 70.459 32.9146C69.6509 33.7779 68.6407 34.2003 67.4468 34.2003C66.152 34.2003 65.2244 33.7411 64.655 32.8136V37.9472H62.4785V27.4137C62.4785 26.3667 62.451 25.3014 62.3959 24.1994H64.3061L64.4254 25.7514H64.4622C65.1877 24.5851 66.2897 23.9974 67.7591 23.9974C68.9162 23.9974 69.8713 24.4566 70.6427 25.3657C71.4325 26.2841 71.8182 27.4779 71.8182 28.9749ZM69.605 29.0483C69.605 28.0932 69.3938 27.3126 68.9621 26.6973C68.4938 26.0545 67.8601 25.7331 67.0703 25.7331C66.5377 25.7331 66.0509 25.9167 65.6101 26.2657C65.1785 26.6239 64.8938 27.0831 64.7561 27.6616C64.6918 27.9279 64.655 28.1483 64.655 28.3228V29.9575C64.655 30.6646 64.8754 31.2708 65.3071 31.7575C65.7387 32.2442 66.3081 32.4922 67.006 32.4922C67.8234 32.4922 68.4662 32.1707 68.9162 31.5463C69.3846 30.9126 69.605 30.0861 69.605 29.0483V29.0483Z" fill="white"/>
<path d="M84.4006 30.1818C84.4006 31.3389 83.9966 32.2756 83.1976 33.0011C82.316 33.7909 81.0854 34.1858 79.5058 34.1858C78.0456 34.1858 76.8793 33.9011 75.9977 33.3409L76.5028 31.5318C77.4579 32.092 78.5048 32.3767 79.6436 32.3767C80.4609 32.3767 81.1037 32.193 81.5537 31.8256C82.0129 31.4583 82.2425 30.9624 82.2425 30.3471C82.2425 29.7961 82.0496 29.3369 81.6823 28.9604C81.3058 28.5838 80.6813 28.2349 79.8089 27.9134C77.4119 27.0226 76.2273 25.7278 76.2273 24.0288C76.2273 22.9176 76.6497 22.0084 77.4854 21.2921C78.3211 20.585 79.4323 20.2268 80.8191 20.2268C82.0496 20.2268 83.0782 20.438 83.8955 20.8697L83.3445 22.6329C82.5731 22.2196 81.7099 22.0084 80.7364 22.0084C79.9742 22.0084 79.368 22.2013 78.9364 22.5686C78.5783 22.9084 78.3946 23.3125 78.3946 23.7992C78.3946 24.3319 78.6058 24.7819 79.0191 25.1216C79.3772 25.4431 80.0384 25.792 80.9935 26.1686C82.1599 26.6369 83.0139 27.1879 83.5649 27.8216C84.1251 28.4553 84.4006 29.2451 84.4006 30.1818" fill="white"/>
<path d="M91.599 25.8371H89.2021V30.585C89.2021 31.788 89.6246 32.3941 90.4694 32.3941C90.8552 32.3941 91.1766 32.3574 91.4337 32.2931L91.498 33.9461C91.0664 34.1023 90.5062 34.1849 89.8082 34.1849C88.945 34.1849 88.2838 33.9186 87.797 33.3951C87.3103 32.8717 87.0715 31.99 87.0715 30.7594V25.8279H85.6481V24.2024H87.0715V22.4116L89.2021 21.7687V24.2024H91.599V25.8371" fill="white"/>
<path d="M102.381 29.0147C102.381 30.5208 101.949 31.7514 101.095 32.7157C100.195 33.7075 99.0015 34.2034 97.5138 34.2034C96.0811 34.2034 94.9332 33.7259 94.0791 32.7799C93.2251 31.834 92.8026 30.631 92.8026 29.18C92.8026 27.6647 93.2434 26.4249 94.1159 25.4606C94.9975 24.4964 96.1822 24.0096 97.6699 24.0096C99.1025 24.0096 100.26 24.4872 101.132 25.4423C101.968 26.3606 102.381 27.5545 102.381 29.0147V29.0147ZM100.131 29.0606C100.131 28.1606 99.9382 27.3984 99.5525 26.7555C99.0934 25.9749 98.4413 25.5892 97.5964 25.5892C96.724 25.5892 96.0536 25.9749 95.6036 26.7555C95.2087 27.3984 95.025 28.179 95.025 29.1065C95.025 30.0065 95.2179 30.7779 95.6036 31.4116C96.072 32.1922 96.7332 32.5779 97.5781 32.5779C98.4046 32.5779 99.0566 32.183 99.5342 31.3932C99.9291 30.732 100.131 29.9606 100.131 29.0606V29.0606Z" fill="white"/>
<path d="M109.453 26.1096C109.241 26.0729 109.012 26.0545 108.764 26.0545C108.002 26.0545 107.405 26.3392 106.991 26.9177C106.633 27.4228 106.45 28.0749 106.45 28.8463V33.9799H104.273V27.2759C104.273 26.1463 104.255 25.1178 104.209 24.1994H106.101L106.183 26.0729H106.247C106.477 25.43 106.835 24.9065 107.331 24.5208C107.818 24.1719 108.341 23.9974 108.902 23.9974C109.104 23.9974 109.287 24.0157 109.443 24.0341L109.453 26.1096" fill="white"/>
<path d="M119.172 28.6288C119.172 29.0145 119.144 29.3451 119.089 29.6114H112.569C112.596 30.5757 112.909 31.3196 113.515 31.8247C114.066 32.2747 114.773 32.5042 115.645 32.5042C116.61 32.5042 117.491 32.3481 118.281 32.0451L118.621 33.5512C117.693 33.9553 116.601 34.1573 115.342 34.1573C113.827 34.1573 112.633 33.7073 111.77 32.8165C110.907 31.9257 110.475 30.7226 110.475 29.2257C110.475 27.7563 110.879 26.5257 111.687 25.5431C112.532 24.4962 113.671 23.9727 115.104 23.9727C116.509 23.9727 117.583 24.4962 118.299 25.5431C118.878 26.388 119.172 27.4074 119.172 28.6288V28.6288ZM117.096 28.0686C117.115 27.4257 116.968 26.8655 116.674 26.3972C116.297 25.7911 115.719 25.488 114.947 25.488C114.24 25.488 113.662 25.7819 113.221 26.3696C112.863 26.838 112.642 27.4074 112.578 28.0594L117.096 28.0686V28.0686Z" fill="white"/>
</svg>
