<svg width="121" height="53" viewBox="0 0 121 53" fill="none" xmlns="http://www.w3.org/2000/svg">
<path fill-rule="evenodd" clip-rule="evenodd" d="M19.7946 48.8167C-8.73062 28.1095 30.3732 28.1504 19.1471 0C20.8852 21.641 -7.51736 42.6073 11.0769 7.76351C7.84048 10.6806 5.02367 14.0319 2.70675 17.7218C-6.01101 32.5127 8.1119 42.4096 19.8151 48.7895L19.7946 48.8167ZM20.2786 48.6872C27.1901 40.7669 41.6879 34.2849 31.5865 9.8356C46.4932 26.5827 38.9342 40.1467 20.2786 48.6804V48.6872ZM18.8336 45.2383C6.56465 30.9245 29.9029 28.3685 26.4744 5.97088C36.4599 29.9498 14.6962 25.9011 18.8336 45.2315V45.2383Z" fill="white"/>
<path opacity="0.5" fill-rule="evenodd" clip-rule="evenodd" d="M34.8179 1.08321L34.668 0.817383C36.0925 1.10366 37.6466 2.25557 38.7576 3.1144L45.9145 11.1233L46.5961 12.3297L47.0255 13.1613L47.4345 14.0133L47.823 14.8858L48.1842 15.7787L48.5182 16.692C48.675 17.1555 48.8181 17.619 48.9613 18.0552L49.2816 19.2549L49.5066 20.2636L49.7383 21.4087L49.9087 22.5675L50.0314 23.7194L50.0996 24.7963C50.0996 25.2462 50.0996 25.6961 50.0996 26.1595L50.0791 26.9911V27.032C50.0791 26.7389 50.0791 26.439 50.0791 26.1459V25.1508V24.5714L50.0314 23.9648L49.9701 23.3445L49.8951 22.7311L49.7383 22.1381L49.6497 21.5791L45.6487 11.7027L45.3419 11.4368L45.2533 11.355L45.1511 11.2596L45.0352 11.1369C44.6671 10.7348 44.3536 10.3054 43.9992 9.88276L43.0381 8.6695L42.5814 8.12421L42.0839 7.54485L41.559 6.95185L41.0069 6.36567L40.4548 5.80675L34.9679 1.21953L34.8179 1.08321Z" fill="#ED6F00"/>
<path opacity="0.5" fill-rule="evenodd" clip-rule="evenodd" d="M38.484 3.4953L38.3477 3.22266C39.1928 3.35898 40.3107 4.46318 40.9241 5.00165L45.968 11.0952L46.6496 12.3017L47.3312 13.5831L47.9447 14.9463L48.5036 16.3572L49.0012 17.8295L49.4238 19.3563L49.7373 20.924L50.0236 22.4917L50.1735 23.8549L50.2076 24.3252V24.8228V25.3408C50.2076 25.6089 50.2076 25.877 50.2076 26.1451V27.5083C50.1497 28.7265 50.0154 29.9399 49.8055 31.1413L49.6896 31.6593V31.4821C49.9412 29.7186 50.0732 27.9401 50.0849 26.1587L47.6925 15.6756C47.1837 15.0319 46.7278 14.348 46.3293 13.6308L45.1433 11.586L43.4052 9.03677L38.6339 3.65888L38.484 3.4953Z" fill="#ED6F00"/>
<path opacity="0.5" fill-rule="evenodd" clip-rule="evenodd" d="M39.2258 4.35507L39.703 4.68906L40.3096 5.173L41.0321 5.81371L41.8432 6.61119L42.7225 7.56544L43.6018 8.67646L44.5356 9.94425L45.4626 11.3688L46.3282 12.8615L47.1189 14.4769L47.8345 16.215L48.4548 18.0554L48.966 19.9843L49.3477 21.9883L49.5931 24.0331L49.6817 26.1324V27.1617L49.634 28.1841L49.5522 29.1997L49.4363 30.2016L49.2864 31.19L49.1023 32.1647L48.8842 33.1257L48.6388 34.08L48.1004 35.3069L48.373 34.5094L48.7547 33.0303L49.0342 31.6671L49.2318 30.3857L49.3613 29.1997L49.4363 28.1023V27.0935V26.1461L49.3 24.1012L49.0546 22.4245C48.4384 19.5812 47.4795 16.8233 46.1987 14.2111L44.8355 11.7301L44.556 11.2666L44.2834 10.7963L43.9767 10.3328L43.6631 9.87609L43.3496 9.43305C43.0633 9.01499 42.7611 8.59694 42.443 8.17889L40.1937 5.58196C39.7527 5.16153 39.3469 4.7056 38.9805 4.21875L39.219 4.34826L39.2258 4.35507ZM48.0867 35.3069L45.8511 40.4394L47.2143 37.7743L47.5619 36.9223L47.8686 36.0839L48.114 35.3137L48.0867 35.3069ZM45.8511 40.4394L45.483 41.2846L45.3126 41.5095L45.8511 40.4394Z" fill="#ED6F00"/>
<path opacity="0.5" fill-rule="evenodd" clip-rule="evenodd" d="M42.3538 7.41749L42.6128 7.66287L42.9196 7.97641L43.274 8.36493L43.6693 8.8216L44.0919 9.35326L44.5418 9.95307L45.0121 10.6347L45.496 11.3776L47.4182 14.997L48.0998 16.7419L48.7064 18.6299L49.204 20.6748C49.3948 21.7585 49.5516 22.8082 49.6879 23.9056L49.8038 26.1617V27.7498L49.6743 29.3107L49.4766 30.8852L49.1904 32.4461L48.8223 33.9729L48.3724 35.4861L47.8544 36.9379L47.275 38.342L47.0706 38.7851L46.8252 39.2963L46.5389 39.862L46.2185 40.4618L45.8709 41.0821L45.5029 41.7023L45.1212 42.309L44.7326 42.8952L42.9537 45.1854L42.8991 45.2331L43.0082 45.0763C43.6012 44.3061 44.126 43.6245 44.6509 42.8338L46.2117 40.2164L47.4386 37.5582L48.277 35.1794L48.8291 33.08L49.1699 31.2601C49.3984 29.5686 49.4828 27.8607 49.4221 26.1549L49.3539 25.2211L49.2585 24.3759C49.0521 22.9627 48.7723 21.5613 48.4201 20.1772L47.8476 18.221L47.6431 17.6007L47.3841 16.8578L47.0706 16.0262L46.7025 15.1401L46.3003 14.2336L45.8641 13.3407L45.4211 12.4887L44.9644 11.7184L43.1241 8.76026C42.7505 8.28707 42.4176 7.78316 42.1289 7.25391L42.3538 7.41749Z" fill="#ED6F00"/>
<path opacity="0.5" fill-rule="evenodd" clip-rule="evenodd" d="M43.3728 9.12592L43.6795 9.50762L43.8908 9.78708L44.1089 10.0802L44.3271 10.3869L44.6611 10.8777L44.886 11.2253L45.1177 11.5865L47.0126 15.1854L47.6942 16.9031L48.2872 18.7639L48.7643 20.7473C48.9484 21.8106 49.0983 22.8467 49.2278 23.9236L49.3369 26.1388L49.2687 28.3813L49.0233 30.617L48.6007 32.8186L48.0146 34.9657L47.2784 37.0105L46.406 38.9803L45.3972 40.8956L44.2862 42.5997L43.3796 43.8538L42.3436 44.9035L42.6912 44.4877L44.143 42.5042L45.7993 39.696L47.0126 37.1468L47.7964 34.8702L48.3145 32.8254L48.6416 30.9987C48.8317 29.3815 48.9114 27.7532 48.8802 26.1252L48.3077 21.354L48.0895 20.3452C47.9532 19.7999 47.8101 19.2546 47.6601 18.7093L46.6582 15.7784L46.2628 14.831L45.8402 13.8904C45.4926 13.2088 45.1586 12.4862 44.7565 11.791L44.7088 11.7024L44.6611 11.6206L43.2978 9.40538C43.0635 9.11647 42.8813 8.78894 42.7594 8.4375L43.3864 9.11911L43.3728 9.12592ZM42.3709 44.9103L40.6259 46.6825L42.1664 45.1489L42.3709 44.9035V44.9103ZM40.6259 46.6825L38.6561 48.6864H38.6016L40.6259 46.6825Z" fill="#ED6F00"/>
<path opacity="0.5" fill-rule="evenodd" clip-rule="evenodd" d="M45.765 12.7654L46.3307 13.8151L46.9442 15.0624C47.2645 15.8054 47.5576 16.5347 47.8439 17.2913L48.3823 19.0021L48.839 20.8697L49.1798 22.9145C49.2889 24.0119 49.3639 25.0684 49.4116 26.1658L49.357 28.3197L49.1389 30.494L48.7504 32.6683L48.1915 34.8154L47.4894 36.9011L46.617 38.9459L45.6014 40.8953L44.4631 42.7289L44.0201 43.3627L43.5702 43.983L43.1067 44.5828L42.6296 45.169L42.1456 45.7347L41.6549 46.28L41.1573 46.8049L40.6529 47.3093L39.5146 48.1476L39.8827 47.8136L40.5643 47.132L41.2459 46.4504C42.3551 45.243 43.3713 43.9533 44.2859 42.5925L45.7991 40.0092C47.8946 35.6929 48.9409 30.9426 48.8527 26.1453L48.5936 22.9486L48.2324 20.7811L48.0075 19.7655L47.7416 18.7295L47.4417 17.7207C47.1963 16.9573 46.9305 16.2007 46.6442 15.4441L45.6491 13.0517C45.458 12.732 45.3242 12.3814 45.2538 12.0156L45.7786 12.7722L45.765 12.7654ZM39.5146 48.1476L36.5701 50.3629L38.9148 48.6725L39.5146 48.1476ZM36.5701 50.3629L35.2069 51.3989H35.1523L36.5701 50.3629Z" fill="#ED6F00"/>
<path opacity="0.5" fill-rule="evenodd" clip-rule="evenodd" d="M45.4506 12.8192L46.1322 14.1211L46.8138 15.5456L47.4068 17.0861L47.9317 18.7287L48.3406 20.4464L48.6678 22.2731L48.8791 24.1748L48.9609 26.131L48.8859 28.3326L48.6337 30.5274L48.2111 32.7153L47.6317 34.8283L46.8956 36.8731L46.0232 38.8225L45.0348 40.6629L43.9442 42.3805L43.3444 43.2189L42.731 44.0232L42.1039 44.7866L41.4632 45.5091L40.7816 46.1907L40.1 46.8382L39.4184 47.4449L38.7368 48.0106L36.2557 49.8509C35.718 50.2395 35.1398 50.5685 34.5312 50.8325L34.6948 50.6961L36.4398 49.5442L36.985 49.1625L37.544 48.7536L38.1097 48.3173L38.9617 47.6357L39.6978 46.9541L40.3794 46.2725L41.0202 45.5909L41.62 44.9093C42.3357 44.0573 42.9832 43.1848 43.6648 42.2647L44.9803 40.0971L46.0027 38.0523L46.7866 36.062L47.4818 34.0785L47.9248 32.17L48.2316 30.2411L48.3747 28.2508L48.4156 26.1446V25.463L48.3815 24.7814L48.327 24.0998L48.252 23.4182L48.1634 22.6889L48.0475 21.9459L47.9248 21.128L47.7681 20.3442L47.3318 18.5856L47.0115 17.6314L46.6775 16.6226L46.3299 15.6343C45.9891 14.7822 45.6483 13.9439 45.2257 13.1123L44.6054 11.865L44.3259 11.2924C44.2912 11.235 44.2746 11.1685 44.2782 11.1016L44.4418 11.2651C44.5713 11.4219 44.6804 11.5923 44.7963 11.7627L45.4506 12.8192Z" fill="#ED6F00"/>
<path opacity="0.5" fill-rule="evenodd" clip-rule="evenodd" d="M47.2987 16.7337L47.6531 17.722L47.9803 18.7717L48.2802 19.8759L48.5392 21.0347L48.7573 22.2479L48.9209 23.5089L49.0572 24.8108L49.1049 26.174L49.0572 28.2665L48.8323 30.4136L48.4438 32.5538L47.8849 34.6736L47.1692 36.7184L46.2626 38.7496L45.2538 40.665L44.1224 42.478L43.1613 43.8412L42.1457 45.0954L41.0824 46.2678L39.985 47.3515L38.8331 48.3126L37.7357 49.2123L36.6111 50.0166L35.4932 50.7391L30.9946 52.8794L30.8242 52.9203L30.8787 52.8862L31.0083 52.818L32.6509 52.0751L33.2507 51.7888L33.8642 51.4752L34.4913 51.1344L35.1252 50.7664L35.7659 50.371L37.2041 49.3827L38.4991 48.3671L39.6579 47.3447L40.7007 46.3223L41.6345 45.3067L42.4661 44.3047L43.2158 43.3164L43.8974 42.3417L45.0357 40.4468L45.9627 38.5929L46.7193 36.7457L47.3396 34.8781L47.8371 32.9355L48.2188 30.8907L48.4642 28.6278L48.5392 26.1603L48.4847 24.6404L48.3756 23.2771L48.2529 22.2752L48.0893 21.2255L47.8917 20.1758L47.6599 19.1534C47.4759 18.4241 47.2714 17.7016 47.0465 16.9791L46.5148 15.3432C46.4443 15.182 46.4072 15.0081 46.4058 14.832L46.7057 15.316C46.9238 15.7931 47.1078 16.2634 47.2987 16.7337Z" fill="#ED6F00"/>
<path fill-rule="evenodd" clip-rule="evenodd" d="M73.7499 27.5587C73.7913 25.935 73.1913 24.3604 72.08 23.176C71.5466 22.6052 70.8987 22.1536 70.1786 21.8505C69.4586 21.5475 68.6827 21.3999 67.9017 21.4174C67.115 21.4026 66.3339 21.5513 65.6076 21.854C64.8813 22.1567 64.2258 22.6068 63.6826 23.176C63.1182 23.7368 62.6723 24.4053 62.3714 25.1418C62.0705 25.8783 61.9206 26.6678 61.9308 27.4633C61.9102 28.2679 62.0558 29.0682 62.3583 29.8141C62.6609 30.5599 63.114 31.2354 63.6894 31.7983C64.2733 32.3779 64.9689 32.8327 65.7341 33.1351C66.4993 33.4374 67.3179 33.5809 68.1403 33.5569C68.8909 33.5673 69.6351 33.417 70.3229 33.116C71.0106 32.815 71.626 32.3704 72.1277 31.8119C73.2153 30.6694 73.8059 29.1425 73.7704 27.5655L73.7499 27.5587ZM73.9544 18.8205V10.5117H78.6643V37.776H73.9544V36.0788C72.1539 37.5545 69.8886 38.3442 67.5609 38.3077C66.3117 38.3165 65.0706 38.1066 63.8939 37.6874C62.7622 37.2868 61.7152 36.6789 60.8062 35.8948C59.5745 34.8526 58.5877 33.5517 57.9162 32.0846C57.2479 30.6192 56.906 29.0261 56.9142 27.4156C56.9156 25.9082 57.2309 24.4176 57.84 23.0388C58.449 21.6599 59.3385 20.423 60.4517 19.4067C61.3769 18.5171 62.4708 17.8218 63.6689 17.3619C64.9045 16.8996 66.2145 16.6685 67.5336 16.6803C68.7264 16.6608 69.9143 16.8357 71.0507 17.1983C72.1004 17.556 73.0754 18.1036 73.9271 18.8137L73.9544 18.8205ZM85.2827 14.7309H82.6449V10.5117H85.2827V14.7581V14.7309ZM82.6517 37.7624V17.171H85.2895V37.7624H82.6517ZM105.704 20.4018C106.496 19.2454 107.567 18.3076 108.819 17.6754C110.113 17.0445 111.537 16.7269 112.976 16.7484C115.771 16.7484 117.802 17.5868 119.07 19.2636C120.338 20.9403 120.974 23.6395 120.978 27.3611V37.7624H118.45V26.8567C118.45 24.1302 117.995 22.1945 117.087 21.0494C116.194 19.8906 114.721 19.3181 112.697 19.3181C111.621 19.2964 110.557 19.5448 109.602 20.0406C108.719 20.5108 107.984 21.2191 107.483 22.0854C107.155 22.6861 106.925 23.3349 106.801 24.0075C106.633 25.2497 106.565 26.5033 106.597 27.7564V37.7624H104.109V26.2364C104.109 23.8644 103.627 22.115 102.664 20.988C101.709 19.8566 100.23 19.2976 98.2537 19.2976C97.1582 19.2741 96.074 19.5223 95.0979 20.0201C94.2066 20.4872 93.4648 21.1959 92.9576 22.065C92.6185 22.6603 92.3878 23.3111 92.276 23.9871C92.1104 25.2295 92.0443 26.4831 92.0783 27.7359V37.7624H89.4814V17.171H92.0783V19.5158C92.8338 18.6302 93.783 17.9305 94.8525 17.4709C95.9985 16.9949 97.2311 16.7627 98.4718 16.7893C99.9576 16.7489 101.431 17.0694 102.766 17.7231C103.98 18.3178 105 19.2472 105.704 20.4018Z" fill="white"/>
</svg>
