<svg width="20" height="20" viewBox="0 0 20 20" fill="none" xmlns="http://www.w3.org/2000/svg">
<path d="M12 0.999999C12 1.26522 12.1054 1.51957 12.2929 1.70711C12.4804 1.89464 12.7348 2 13 2L17 2C17.2652 2 17.5196 2.10536 17.7071 2.29289C17.8946 2.48043 18 2.73478 18 3L18 17C18 17.2652 17.8946 17.5196 17.7071 17.7071C17.5196 17.8946 17.2652 18 17 18L13 18C12.7348 18 12.4804 18.1054 12.2929 18.2929C12.1054 18.4804 12 18.7348 12 19C12 19.2652 12.1054 19.5196 12.2929 19.7071C12.4804 19.8946 12.7348 20 13 20L17 20C17.7956 20 18.5587 19.6839 19.1213 19.1213C19.6839 18.5587 20 17.7956 20 17L20 3C20 2.20435 19.6839 1.44129 19.1213 0.878678C18.5587 0.31607 17.7956 -7.77873e-07 17 -7.43094e-07L13 -5.68248e-07C12.7348 -5.56655e-07 12.4804 0.105356 12.2929 0.292892C12.1054 0.480428 12 0.734783 12 0.999999ZM13.71 10.71C13.801 10.6149 13.8724 10.5028 13.92 10.38C13.9729 10.2603 14.0002 10.1309 14.0002 10C14.0002 9.86913 13.9729 9.7397 13.92 9.62C13.8724 9.49725 13.801 9.3851 13.71 9.29L9.71 5.29C9.5217 5.1017 9.2663 4.99591 9 4.99591C8.7337 4.99591 8.4783 5.1017 8.29 5.29C8.1017 5.4783 7.99591 5.7337 7.99591 6C7.99591 6.2663 8.1017 6.5217 8.29 6.71L10.59 9L1 9C0.734783 9 0.480429 9.10536 0.292893 9.29289C0.105356 9.48043 -4.48707e-07 9.73478 -4.37114e-07 10C-4.25521e-07 10.2652 0.105356 10.5196 0.292893 10.7071C0.480429 10.8946 0.734783 11 1 11L10.59 11L8.29 13.29C8.19676 13.3832 8.1228 13.4939 8.07234 13.6157C8.02188 13.7376 7.99591 13.8681 7.99591 14C7.99591 14.1319 8.02188 14.2624 8.07234 14.3842C8.1228 14.5061 8.19676 14.6168 8.29 14.71C8.38324 14.8032 8.49393 14.8772 8.61575 14.9277C8.73757 14.9781 8.86814 15.0041 9 15.0041C9.13186 15.0041 9.26243 14.9781 9.38425 14.9277C9.50607 14.8772 9.61676 14.8032 9.71 14.71L13.71 10.71Z" fill="white"/>
</svg>
