<svg width="245" height="44" viewBox="0 0 245 44" fill="none" xmlns="http://www.w3.org/2000/svg">
<path fill-rule="evenodd" clip-rule="evenodd" d="M190.209 32.3199C190.372 32.6265 190.64 32.9427 190.947 33.1535C191.541 33.5847 192.355 33.7763 192.767 33.0864C193.122 32.5403 193.265 31.5821 193.582 30.9593C193.677 30.6718 193.821 30.3843 193.965 30.0969C194.051 29.9819 195.182 28.2093 195.613 27.5098C195.776 27.2223 198.076 24.2136 198.344 24.0699C198.334 24.0699 198.698 23.7633 198.727 23.7824C198.727 23.7824 199.446 23.2075 200.136 23.3321C200.586 23.4471 200.519 24.1945 200.49 24.5298C200.423 25.0568 199.369 27.4044 199.369 27.4044C198.976 28.0943 198.909 28.0368 198.478 28.7267C197.922 29.4836 197.405 29.7999 196.83 30.3748C196.14 31.0647 194.559 31.3809 195.613 32.6744C197.501 34.9932 200.423 31.3617 201.429 29.8765C202.004 29.0429 202.694 28.2955 203.298 27.6056C203.508 27.3661 203.892 27.0307 204.179 26.8678C204.218 26.8391 204.265 26.8295 204.313 26.8103C204.333 26.8103 204.361 26.8007 204.39 26.7911C204.438 26.772 204.486 26.7624 204.524 26.7337C204.668 26.6762 204.783 26.6283 204.888 26.5995C204.812 26.9828 204.86 27.6631 204.869 27.7781C205.013 28.4201 205.377 28.88 205.76 29.407C205.952 29.7136 206.316 30.0107 206.613 30.2406C207.341 30.7868 208.271 30.9305 208.549 30.9114C209.765 30.6239 210.628 29.0908 211.346 28.1614C211.557 27.8931 211.711 27.6343 211.835 27.3852L211.893 27.3086C211.787 27.8835 211.701 28.468 211.605 29.062C211.414 30.1161 211.318 31.0934 211.864 32.0995C212.123 32.4828 212.123 32.4828 212.295 32.6744C212.889 33.3931 213.704 33.9392 214.614 34.2075C215.237 34.3704 215.812 34.3225 216.406 34.0159C217.239 33.5655 217.987 32.8661 218.61 32.1953C219.204 31.5246 219.664 30.7868 220.191 30.0873C220.631 29.4932 221.829 28.1518 222.404 27.4715L222.452 27.4331C222.481 27.5194 222.519 27.6056 222.576 27.7014C222.912 28.2955 223.87 29.2058 224.493 28.4392L224.78 28.0368C225.585 26.7337 227.77 24.0603 228.22 23.4566C228.843 22.623 229.418 21.7607 230.108 20.9654C230.012 21.1282 229.466 22.1535 229.303 22.4793C229.006 22.968 228.364 24.3861 228.297 24.5777C228.038 25.3443 228.009 26.0342 227.942 26.8486C227.923 27.2319 227.846 27.6152 227.846 27.9985C227.846 28.4009 227.866 28.7842 228.038 29.1675C228.153 29.3783 228.297 29.6465 228.469 29.8382C229.456 30.9593 230.098 30.9114 230.29 30.988C231.267 31.2946 232.321 30.1736 232.973 29.5028C233.806 28.5925 234.506 27.5385 235.292 26.5612C235.694 26.015 237.035 24.8173 236.892 23.9741C236.729 23.1404 236.221 23.6866 236.01 24.0028C235.531 24.5969 234.765 25.1718 234.17 25.7276C233.356 26.4175 232.542 27.1648 231.708 27.8356C231.277 28.1901 230.75 28.6692 230.223 28.8608C230.156 28.88 229.916 28.9279 229.916 28.9566L229.897 28.9279C229.897 28.9279 229.849 28.353 229.897 28.3338C229.916 27.8835 230.874 24.1945 231.334 23.4758C232.168 22.211 233.988 21.0612 233.442 19.3173C232.944 17.6692 231.65 17.6213 230.644 18.5795C230.146 19.0298 226.438 24.0124 226.888 23.4087L224.809 26.4174C224.79 26.4174 224.857 26.015 224.809 26.1587C224.876 25.4209 225.116 24.6735 225.192 23.9357C225.24 23.677 225.547 22.1918 225.7 21.7702C225.815 21.4636 226.457 20.1892 226.677 20.0072C227.032 19.7101 227.233 19.4227 227.473 19.1161C227.645 18.6849 227.204 17.5255 226.63 17.4296C226.179 17.3626 225.719 17.3147 225.317 17.5446C224.866 17.8321 224.962 18.0716 224.866 18.4741C224.751 18.9532 224.387 19.5281 224.225 19.9784C223.937 20.6971 223.697 21.4349 223.458 22.1823C223.17 22.9201 222.883 23.6195 222.691 24.3573C222.529 24.8556 222.538 25.3251 222.5 25.7946L222.509 25.8042L222.5 25.833V25.8234V25.833L222.471 25.9192C222.164 26.4079 219.922 28.9183 219.922 28.9183C219.778 29.11 219.568 29.3016 219.395 29.4932C219.089 29.8286 218.753 30.164 218.418 30.4993C217.891 30.9784 214.949 33.7476 214.547 31.9558C214.355 31.0742 214.614 29.9915 214.806 29.1579C214.901 28.7075 214.844 28.65 214.911 28.1997C214.978 27.8451 215.035 27.1265 215.208 26.772C215.323 26.5612 215.352 26.6091 215.591 26.5324L216.185 26.3216C216.569 26.1779 216.971 26.0342 217.306 25.8234C217.833 25.5168 218.332 25.1335 218.792 24.7502C219.865 23.8399 221.043 22.738 221.494 21.3774C221.733 20.6108 221.781 19.7772 221.283 19.1065C220.833 18.5124 220.066 18.1962 219.347 18.0525C217.46 17.6979 216.022 18.7903 214.949 20.2276C213.675 21.799 212.745 23.7249 212.266 25.6796C212.266 25.6892 212.257 25.6892 212.257 25.6988C211.739 26.312 210.149 27.4619 209.497 27.9697C209.114 28.2763 208.184 29.1675 207.61 28.88C206.412 28.2859 208.826 24.0699 208.731 24.0507C208.951 23.6004 208.951 23.6004 209.162 23.1692C209.277 22.9488 209.785 22.2877 209.785 22.096C209.785 21.7415 208.97 21.3774 208.711 21.2816C208.041 20.9941 207.37 20.927 206.843 21.2816C206.124 21.684 206.009 22.5464 205.722 23.265C205.684 23.3704 205.492 24.0699 205.339 24.731C205.214 24.7885 205.099 24.8556 205.003 24.9035C204.955 24.9227 204.898 24.961 204.831 24.9993H204.821C204.476 25.2006 203.911 25.603 203.02 26.3216C203.039 26.1587 202.876 24.5298 202.876 24.6448C202.809 23.5237 202.637 22.0864 201.276 21.6553C200.749 21.4924 200.251 21.6361 199.772 21.8181C198.382 22.4601 197.232 23.7824 196.255 24.8269C195.421 25.7563 194.626 26.7432 193.936 27.7493C193.639 28.3147 193.103 29.1866 193.103 29.1866C193.39 27.299 193.725 25.4114 194.157 23.5429C194.319 22.6614 194.444 21.3678 194.894 20.6012C195.488 20.0838 197.606 18.5986 197.606 18.5986C198.171 18.3303 199.724 16.7014 199.887 16.481C200.749 15.6187 201.535 14.6605 202.186 13.5873C202.732 12.61 203.384 11.6518 203.911 10.6648C204.246 10.0899 204.534 9.54375 204.821 8.94009C204.984 8.50891 205.252 7.95317 205.367 7.14829C205.482 6.63087 205.511 6.14219 205.511 6.14219C205.942 4.13 205.942 0.143936 203.096 0.000207411C201.611 -0.0189564 200.414 1.29376 199.58 2.31902C198.603 3.53592 197.759 4.90613 197.022 6.31467C195.661 8.7293 194.607 11.3356 193.553 13.8939C192.355 16.8356 191.301 19.8922 190.611 22.9775C190.161 24.7981 189.797 26.6091 189.653 28.4776C189.634 28.9279 189.452 31.218 189.873 31.6683C190.123 32.1187 190.209 32.3199 190.209 32.3199ZM216.204 24.0411C216.224 23.9741 216.224 23.9262 216.224 23.9262C216.751 22.8051 217.134 21.6265 217.872 20.5342L218.514 19.7006C218.629 19.5377 218.897 19.2023 219.137 19.1256C219.664 19.0298 219.807 19.9401 219.759 20.2946L219.644 21.0324C219.596 21.2241 219.568 21.2911 219.52 21.5499C219.453 21.7415 219.386 21.8661 219.29 22.029L218.696 22.7955C217.881 23.7537 216.875 24.5681 215.754 25.1622C215.917 24.7598 216.013 24.3765 216.204 24.0411ZM197.625 12.2746C197.817 11.7955 199.848 6.4584 200.136 6.22843C200.069 6.24759 201.621 3.52633 201.621 3.52633C202.339 1.86867 203.269 1.5908 203.413 1.5908C204.515 1.5908 204.39 4.53244 204.342 5.17442C204.275 6.18052 204.035 7.20578 203.671 8.13523C203.432 8.87303 203.144 10.0037 202.694 10.5978C201.784 11.7955 200.672 13.6831 199.666 14.9096C198.42 16.4906 197.022 17.2955 195.441 18.5699C196.063 16.4619 196.811 14.3539 197.625 12.2746Z" fill="white"/>
<path fill-rule="evenodd" clip-rule="evenodd" d="M239.21 37.7911C239.143 37.7911 239.143 37.7911 239.143 37.7432H239.028C238.961 37.6953 238.961 37.6953 238.884 37.6953L238.645 37.7145C238.578 37.7145 238.453 37.7336 238.405 37.7815C238.261 37.8007 238.29 37.8486 238.29 37.9253L237.84 37.9732C237.648 37.9253 237.456 37.9253 237.217 37.954C232.215 37.9732 226.667 38.2894 221.148 38.6439C220.765 38.6631 220.314 38.6631 219.95 38.6918C218.925 38.711 217.919 38.8068 216.913 38.8835L213.521 39.0751L210.081 39.3817C209.008 39.4775 208.021 39.6692 207.024 39.8321L206.018 39.8991C205.568 39.9471 205.137 39.9183 204.629 39.9662C203.939 40.0141 203.287 40.0141 202.617 40.0812C201.16 40.1483 199.723 40.3207 198.286 40.5124C196.781 40.6561 195.277 40.8477 193.811 40.9627L191.751 41.1544C191.368 41.2502 191.061 41.346 190.745 41.3652C190.39 41.461 190.074 41.4802 189.576 41.5281H189.509C189.317 41.5472 189.125 41.5472 189.01 41.6239C189.01 41.576 188.943 41.576 188.819 41.576C188.656 41.6718 188.464 41.6718 188.273 41.8155L188.129 42.1221V42.3138C188.158 42.3808 188.196 42.4288 188.225 42.4767C188.368 42.6683 188.56 42.7641 188.752 42.8599C188.963 42.9749 189.154 43.0707 189.346 43.1187C189.748 43.2624 190.208 43.3295 190.639 43.3582C191.023 43.454 191.473 43.4732 191.856 43.5019C192.69 43.5498 193.581 43.5211 194.443 43.454C195.325 43.4349 196.216 43.3582 197.03 43.2911L201.745 42.8887C202.176 42.8408 208.701 42.0263 208.701 42.0263C209.707 41.9305 210.57 41.8155 211.576 41.643C211.959 41.6239 212.266 41.643 212.649 41.6622L214.038 41.5472C214.968 41.4802 215.782 41.4035 216.673 41.2598C217.028 41.1639 218.398 40.8573 218.973 40.8094C219.213 40.7903 219.471 40.8286 219.663 40.8094C220.161 40.7903 220.717 40.6657 221.244 40.6944C221.982 40.6274 223.304 40.4357 224.118 40.3112C225.125 40.2153 225.939 40.2153 226.897 40.1195L230.51 39.6883C231.276 39.6213 232.062 39.3051 232.253 39.2859C232.876 39.238 233.451 39.1901 234.026 39.1901C234.572 39.1422 235.195 39.0272 235.895 38.9793C236.393 38.9314 236.968 38.8835 237.524 38.7685C237.782 38.7493 238.022 38.6727 238.338 38.6535C238.453 38.5864 238.578 38.5577 238.721 38.5577C238.836 38.4906 238.884 38.4619 238.961 38.4619C238.961 38.4619 239.009 38.4619 239.076 38.3948C239.076 38.3948 239.124 38.3948 239.191 38.3277C239.258 38.3277 239.258 38.3277 239.239 38.2606C239.239 38.2606 239.306 38.2606 239.306 38.2127C239.306 38.2127 239.354 38.1936 239.354 38.1457L239.334 37.839C239.287 37.839 239.21 37.839 239.21 37.7911Z" fill="#F58220"/>
<path fill-rule="evenodd" clip-rule="evenodd" d="M244.787 36.6222C244.787 36.4785 244.931 36.2677 244.787 36.0952C244.691 35.9802 244.691 36.076 244.595 36.0473C244.193 35.8557 243.781 35.9802 243.426 36.1623C242.947 36.421 242.181 37.3121 242.468 37.9349C242.535 38.1266 242.918 38.4619 243.062 38.529C243.445 38.7398 243.656 38.4619 243.896 38.2224C244.183 37.9349 244.394 37.8391 244.538 37.5037C244.595 37.4079 245.074 36.6222 244.787 36.6222Z" fill="#F58220"/>
<path fill-rule="evenodd" clip-rule="evenodd" d="M209.123 19.7394C209.602 19.9981 209.861 19.6723 210.148 19.3848C210.503 19.0782 210.771 18.9345 210.934 18.5225C211.001 18.4266 211.882 17.6409 211.001 16.7977C210.474 16.5869 209.995 16.7307 209.544 16.9415C208.95 17.2481 208.011 18.3021 208.375 19.0686C208.481 19.2603 208.931 19.6627 209.123 19.7394Z" fill="white"/>
<path fill-rule="evenodd" clip-rule="evenodd" d="M15.3585 27.0784C16.0963 26.0723 16.7958 25.095 17.4665 24.0697C18.6642 22.23 19.6895 20.2945 20.4561 18.2056C21.1268 16.4617 21.673 14.4495 21.1459 12.6098C20.7627 11.2013 19.8811 9.60108 18.4151 9.07407C16.7191 8.49916 15.071 10.0802 13.9212 11.1342C12.5797 12.3511 11.1233 13.5967 10.7688 15.4652C10.7017 15.9443 10.6059 16.8546 11.3437 16.6821C11.8707 16.5384 12.321 15.5131 12.6564 15.1011C13.902 13.6638 15.4064 12.2553 17.227 11.5845C18.1372 11.2779 18.808 11.3737 18.7601 12.4661C18.7409 13.5201 18.3576 14.6412 18.0414 15.6185C17.6102 16.9121 17.2365 18.1002 16.7095 19.3459C16.4987 19.7962 16.3646 20.1986 16.0867 20.9556C15.416 22.3162 14.5344 23.6098 13.72 24.9033C12.666 26.4844 11.612 28.1995 10.2993 29.5889C9.801 30.068 9.801 30.135 9.274 29.6847C8.82365 29.3014 8.24874 28.4678 7.62592 28.5349C6.85936 28.6307 6.61982 29.4643 6.88811 30.068C7.14682 30.662 7.70257 31.1699 8.15292 31.6202C6.88811 32.6263 4.25309 34.3511 3.03619 32.3101C2.15466 30.8729 2.74874 28.7265 3.13201 27.2126C3.80274 24.6542 4.80884 22.2587 5.88201 19.892C9.31233 12.3223 13.7775 8.55665 13.7775 8.55665C13.9883 8.41292 14.2278 8.17337 14.4674 8.07756C14.5632 8.02965 15.0615 7.88592 14.774 7.93383C14.8411 7.88592 14.889 7.88592 14.9656 7.88592C15.0615 7.88592 15.2052 7.93383 15.301 7.81885C15.3681 7.79969 15.5597 7.43558 15.3681 7.51223C15.6555 7.34934 14.9177 6.6786 14.774 6.53488C14.2949 6.08453 13.7008 5.70125 12.9822 5.72042C11.5449 5.76832 10.2993 7.12895 9.41773 8.11589C8.29665 9.31362 7.48219 10.8467 6.36111 12.0157C5.28794 13.0889 4.44473 14.4303 3.70693 15.791C2.12592 18.6655 0.698215 21.9617 0.171212 25.2387C0.104138 25.6891 -0.135409 28.257 0.104138 29.2918L0.343685 30.3458C0.583232 31.3136 1.29229 32.4539 1.38811 32.6742C1.96302 33.6803 2.79665 34.7344 3.8794 35.3093C6.1024 36.4303 8.54578 34.4469 10.2418 33.1342C10.625 33.8049 11.5545 34.1882 12.1294 34.7152C12.7522 35.3093 13.6912 36.1141 14.3811 36.5645C14.6686 36.7753 15.2148 37.3406 15.6651 36.8903C15.9717 36.6028 15.1669 36.0279 14.9944 35.7884C14.3716 35.0218 13.8733 34.2073 13.2026 33.4695C12.8672 33.0863 11.6216 32.176 11.8899 31.6298C12.1294 31.0549 15.1956 27.3659 15.3585 27.0784Z" fill="white"/>
<path fill-rule="evenodd" clip-rule="evenodd" d="M113.678 23.9263C113.563 23.4472 113.294 23.3802 112.94 23.5239C112.269 23.8305 111.598 24.53 110.976 24.9612C109.538 25.8715 108.101 26.6093 106.549 27.3758C106.549 27.3567 106.482 27.4237 106.453 27.4429C106.098 25.9385 105.476 22.3262 105.495 22.3262C105.361 21.9046 105.255 21.5596 105.332 21.1093C105.351 20.5823 105.638 20.1319 105.811 19.6241C105.945 19.327 106.07 18.9342 106.07 18.7905C106.022 18.5797 105.878 18.4072 105.571 18.1006C104.613 17.219 102.773 19.1546 102.486 19.9882C102.275 20.5344 102.275 21.138 102.323 21.7321C102.342 22.3262 102.515 22.8532 102.706 23.4089C102.802 23.8401 102.658 24.1276 102.706 24.5779C102.773 25.2678 103.013 25.9673 103.157 26.638C103.3 27.165 103.751 28.219 103.636 28.7173C103.569 29.1964 102.515 29.6276 102.055 29.915C101.461 30.2983 100.886 30.7486 100.282 31.2086C99.2282 32.023 98.1071 33.0291 97.6759 34.3419C97.6088 34.5047 97.5418 34.7826 97.6088 35.415C97.8388 37.2547 99.621 38.2129 101.748 38.2608C104.163 38.3279 105.859 36.9194 106.702 34.7443C107.057 33.8148 107.152 32.8087 107.133 31.8218C107.133 31.1798 107.066 30.5283 106.942 29.9054C106.875 29.3305 106.798 29.3784 107.181 29.0718C107.469 28.861 107.9 28.7173 108.187 28.5736C109.289 27.9795 110.314 27.28 111.34 26.5422C112.058 26.0152 113.831 25.1049 113.687 23.9838V23.9263H113.678ZM103.636 33.2303C103.617 33.3741 102.946 34.7826 102.658 35.0509C102.658 35.0509 102.361 35.3288 102.036 35.5779L101.058 35.9612C100.56 36.0762 100.004 36.172 99.506 36.0091C98.5958 35.7216 99.506 34.2844 99.8414 33.834C100.368 33.1441 101.135 32.6171 101.825 32.1093L102.879 31.4194C102.994 31.3523 103.856 30.6528 103.856 30.6528C103.856 30.6528 103.789 30.7678 103.856 30.7007C103.895 31.5535 103.895 32.3871 103.636 33.2303Z" fill="white"/>
<path fill-rule="evenodd" clip-rule="evenodd" d="M98.2035 25.1911C98.1843 25.239 98.6347 25.0952 98.7017 25.0952C99.085 25.0282 103.196 24.7599 102.19 23.4663C102.19 23.4663 102.17 23.2076 101.5 23.3992C100.484 23.6771 99.4204 23.8783 98.3664 24.0412C98.7688 22.7764 99.1521 21.435 99.2958 20.1414C99.3437 19.6623 99.3916 19.1353 99.2958 18.637C99.2287 18.3304 99.1042 18.0142 98.9413 17.7268L98.5867 17.2956C98.4239 17.0081 98.0406 16.7015 98.0406 16.7015C97.159 15.8391 95.9613 15.1684 94.7636 15.8391C94.0449 16.2416 93.4509 16.9602 92.943 17.6597C92.7801 17.8992 92.5885 18.1867 92.4639 18.4741C92.3202 18.7329 92.1094 19.6719 91.889 19.7869C91.7261 19.9306 91.1991 19.9785 90.9596 20.1222C90.605 20.2372 90.2888 20.4289 90.0014 20.6492C89.3307 21.0517 88.6887 21.5787 88.3246 22.2494C87.9317 22.9489 87.5197 23.7059 87.1556 24.4628L86.6381 25.0952C86.5902 25.1527 86.5519 25.2006 86.504 25.2581L86.4657 25.2965C85.6225 26.3409 84.7026 27.5769 83.8402 28.5255C83.457 28.928 82.0963 30.8252 81.4256 30.6815C81.119 30.6336 81.1286 29.5987 81.2148 29.1484C81.5023 27.8069 82.3167 26.2259 82.8629 24.894C83.457 23.3897 84.3481 21.4254 83.8881 19.7485C83.3611 17.813 81.3489 18.7904 80.4195 19.7006C80.065 20.0552 77.8803 23.1405 77.8803 23.1405C77.3341 24.0221 76.8071 24.8653 76.3759 25.7468C76.7305 24.5012 77.0658 23.2555 77.497 22.0194C77.8036 21.1858 78.3307 20.2947 78.5702 19.4323C78.8577 18.3113 77.8803 16.7494 76.6059 16.941C75.6956 17.0369 74.9291 18.0909 74.4787 18.8287C73.9038 19.739 73.2331 20.5726 72.6869 21.4637C72.0162 22.5369 71.47 23.7346 70.8951 24.8557C70.416 25.766 70.1573 26.82 69.6303 27.6536C69.6974 27.2703 69.5632 26.9829 69.5632 26.6475C69.5632 26.3409 69.707 25.9289 69.774 25.6222C69.889 25.1431 70.0806 24.6928 70.2723 24.2329C70.8855 22.7956 71.2017 22.4411 71.4221 22.0769C71.47 22.0099 71.5371 21.9332 71.5371 21.8661C71.6521 21.387 71.3263 21.2241 71.1347 20.9559C70.9718 20.7451 70.7993 20.2851 70.5118 20.0456C70.301 19.8827 69.9657 19.6623 69.6974 19.7581C69.3908 19.9018 69.0075 20.8792 68.835 21.2146C68.5475 21.7895 68.308 22.3836 68.1164 22.9872C67.8768 23.725 67.6085 24.4532 67.4361 25.2006C67.4361 25.1911 67.4456 25.191 67.4456 25.1815V25.1911L67.4361 25.2102C67.4361 25.2006 67.4361 25.2006 67.4361 25.1911C67.3881 25.2485 67.3498 25.306 67.3115 25.3539C66.8611 25.9576 66.9186 25.8809 66.3246 26.5613C65.7976 27.1841 65.2514 27.8261 64.8202 28.4968C64.8202 28.5447 64.4178 29.1196 64.2261 29.3304C63.9195 29.637 63.6033 30.0012 63.2488 30.3078C62.7218 30.7869 59.7801 33.556 59.3969 31.7642C59.186 30.9019 59.4639 29.7999 59.6364 28.9663C59.7514 28.516 59.8472 28.0848 59.9239 27.6248C59.9909 27.2895 59.9813 26.9541 60.1442 26.5996C60.2401 26.4079 60.2113 26.408 60.4509 26.3409L61.0449 26.1301C61.4282 25.9863 61.8115 25.8714 62.166 25.651C62.693 25.3444 63.1913 24.9323 63.6512 24.5491C64.7244 23.6388 65.8742 22.5656 66.3341 21.205C66.5928 20.4193 66.6216 19.5761 66.1425 18.9053C65.6921 18.3113 64.8969 17.9951 64.207 17.8513C62.3193 17.516 60.882 18.5891 59.7801 20.0264C58.8603 21.1762 58.1129 22.5273 57.5955 23.9358C57.5955 23.9358 57.4326 24.3095 57.2697 24.6928L55.7653 26.7242L53.8489 29.2154L52.8428 30.5282C52.5458 31.0073 52.4787 31.0839 52.0284 31.6492C51.8176 31.9942 49.8533 33.7764 49.5179 33.3452C49.2305 33.0099 49.997 31.5247 50.0928 31.1701C50.4953 30.164 50.8307 29.11 51.2618 28.1327C51.7122 27.1074 52.2392 26.1013 52.6704 25.0761C53.0728 24.0029 52.4596 23.6196 51.4247 23.3513C50.9744 23.2555 49.7 23.3513 49.058 23.1884C48.5789 23.0926 48.3202 23.0926 48.3873 22.5656C48.4543 21.847 49.173 21.1283 49.4413 20.4576C49.5754 19.9977 49.2496 19.6719 49.2496 19.6719C47.5728 18.5221 45.5702 20.9175 45.9247 22.6327C45.9918 22.8722 45.9918 22.8722 46.1547 23.2268C46.1834 23.2938 46.2888 23.4759 46.2888 23.4759C45.6469 24.2616 44.2287 25.8235 43.6059 26.5613C43.0789 27.1841 42.5327 27.8261 42.1016 28.4968C42.1016 28.5447 41.6991 29.1196 41.5075 29.3304C41.2009 29.637 40.8847 30.0012 40.5301 30.3078C40.0031 30.7869 37.0615 33.556 36.6782 31.7642C36.4674 30.9019 36.7453 29.7999 36.9178 28.9663C37.0136 28.516 37.0423 28.2668 37.119 27.8069C37.186 27.4715 37.1573 26.9349 37.3489 26.5708C37.4448 26.3792 37.4927 26.4079 37.7322 26.3313L38.3263 26.1205C38.7096 25.9768 39.0928 25.8618 39.4474 25.6414C39.9744 25.3348 40.4535 24.9228 40.9038 24.5395C42.0057 23.6292 43.1556 22.556 43.6059 21.1954C43.8455 20.4097 43.8934 19.5665 43.3951 18.8958C42.9448 18.3017 42.1782 17.9855 41.4787 17.8417C39.5911 17.5064 38.1347 18.5796 37.0519 20.0168C35.9787 21.3391 35.1643 22.9201 34.6468 24.5586L34.4648 24.7503C34.4456 24.7694 34.4169 24.7982 34.3881 24.8269C34.2923 24.9323 34.1869 25.0377 34.0911 25.1431L34.0815 25.1623C33.1617 26.1492 32.261 27.2033 31.1878 28.0656C30.6416 28.4968 30.3733 28.7363 30.4212 27.9027C30.4404 27.1649 30.7279 26.3984 30.9482 25.7276C31.0441 25.3731 31.4369 24.3574 31.619 23.8208C31.8202 23.3897 33.0563 21.2625 31.4752 20.8025C29.6834 20.3235 28.7732 22.259 28.0066 23.4088C27.2688 24.4628 26.5502 25.4689 25.707 26.4175C25.0841 27.1553 24.1068 28.5447 23.0719 28.8322C22.1425 29.1388 22.7653 27.6153 22.909 27.0883C23.0049 26.8008 24.2697 23.5526 24.3463 23.5717C24.2793 23.5717 25.18 21.7799 25.18 21.7799C25.0075 22.1248 26.2052 20.1031 26.1381 20.1031C26.0711 20.151 26.5406 19.5761 25.9273 19.097C25.3045 18.5987 24.1834 18.5029 23.5319 19.0491C22.7653 19.6719 22.2862 20.793 21.8838 21.6841C21.6442 22.1823 21.2418 22.4506 20.9735 23.0255C20.4944 24.0987 20.207 25.2006 19.9195 26.3217C19.6608 27.3949 19.4691 28.5256 19.6608 29.6466C19.7566 30.1257 19.9195 30.7006 20.3028 31.0552C20.4178 31.1222 21.0597 31.5247 22.0563 31.2181C22.727 30.9881 25.0362 28.813 25.3045 28.4968C26.1669 27.3757 27.0484 26.2738 27.9587 25.2006C27.5083 26.4175 26.7418 28.0944 27.4796 29.4358C27.882 30.1257 28.6965 30.5377 29.4631 30.4611C31.1111 30.3461 32.5963 28.5447 33.6024 27.4715C33.7749 27.2799 33.9378 27.0883 34.0719 26.9062C34.0719 26.9062 34.0719 26.9062 34.0719 26.8966C33.9474 27.5482 33.8516 28.2093 33.7462 28.8705C33.5928 29.8191 33.4874 30.7006 33.8803 31.5822V31.5917C33.9665 31.8121 34.1294 32.0708 34.1965 32.1667C34.1965 32.1667 34.1965 32.1762 34.2061 32.1762C34.2157 32.1954 34.2252 32.205 34.2252 32.205C34.2923 32.3008 34.3594 32.387 34.436 32.4829C35.0301 33.1728 35.8446 33.7477 36.7549 33.9872C37.3968 34.1501 37.9526 34.1309 38.5467 33.7956C39.3803 33.3452 40.1277 32.6458 40.7505 31.975C41.3446 31.3043 41.8045 30.5665 42.3315 29.867C42.8298 29.2442 43.4334 28.6501 43.9125 27.9985L46.5092 24.7311C46.6338 24.597 46.7679 24.4341 46.8925 24.252C47.6207 24.8653 48.6556 24.9323 49.5467 24.7503C49.3838 24.9898 47.7357 28.286 47.3141 29.5316C46.7967 30.7006 46.6721 31.5151 46.653 31.6876C46.5092 32.5499 46.538 33.2686 46.8925 34.0543C47.1033 34.5334 47.3428 34.9646 47.8028 35.252C48.234 35.5107 48.761 35.6545 49.2401 35.5586C50.227 35.3383 51.5972 34.016 52.0188 33.671C53.1399 32.7128 54.0789 31.563 54.8934 30.394C55.6887 29.3113 56.0144 28.5255 56.7139 27.4715C56.7139 27.4811 56.7139 27.4907 56.7139 27.5099C56.6373 27.9602 56.5606 28.4106 56.4744 28.8705C56.3115 29.867 56.2252 30.806 56.6852 31.7355C56.7523 31.8888 56.8289 32.0134 56.896 32.09C56.9631 32.2242 57.078 32.3391 57.193 32.4733C57.7871 33.1632 58.5824 33.7381 59.5118 33.9776C60.1347 34.1405 60.6808 34.1214 61.2845 33.786C62.1469 33.3356 62.8655 32.6362 63.5075 31.9654C64.1016 31.2947 64.5615 30.5761 65.0885 29.8574C65.5676 29.2346 66.1617 28.6405 66.6695 27.989L67.2923 27.1841C67.2732 27.9698 67.1582 28.6501 67.7906 29.3975C68.1259 29.8287 69.4866 30.739 69.8507 30.0874C69.8986 30.0395 69.9178 29.752 69.9178 29.637C70.0136 29.3017 70.2723 28.9951 70.416 28.6309C70.7514 27.941 71.058 27.1937 71.47 26.4559C72.4474 24.5874 73.166 22.7956 74.3446 21.0229C74.6991 20.4959 75.1111 19.9689 75.5423 19.4707C75.6381 19.3748 76.1651 18.637 76.2322 18.6562C76.8071 18.7041 75.6861 20.8313 75.5615 21.2146C75.1111 22.4123 74.2967 23.6579 74.1721 24.894C74.1242 25.3252 74.22 25.4689 74.1242 25.8522C74.0284 26.2834 73.8367 26.7337 73.8847 27.1937C73.9517 27.5961 74.1242 27.9794 74.4308 28.2668C75.5519 29.3688 76.0118 28.1039 76.5101 27.2607C77.1042 26.2834 77.6599 24.8653 78.3977 24.1275C79.5476 23.0064 80.1416 21.4924 81.3202 20.4193C81.1286 20.8025 79.1451 25.7085 79.0972 25.8522C78.8577 26.5421 78.7618 27.2128 78.7618 27.9602C78.7618 28.6309 78.7618 29.3017 78.8577 29.9916C78.9247 30.4228 79.0205 30.8731 79.2409 31.2564C79.8542 32.6841 81.2819 32.7416 81.5118 32.7128C82.6904 32.6649 85.1721 30.3078 85.9866 29.3208C86.0728 29.2154 86.1686 29.1388 86.2453 29.0717C86.5136 30.0874 87.2226 30.9785 88.612 31.6397C89.2827 31.9463 90.0493 32.09 90.7392 32.0229C91.477 31.9271 92.1477 31.5055 92.7514 31.1127C94.6869 29.867 96.747 26.9733 96.8908 26.8296C97.1303 26.3984 97.3699 25.948 97.6573 25.536C97.916 25.3156 97.8489 25.3348 98.2035 25.1911ZM61.112 23.8975C61.1312 23.8304 61.1312 23.8017 61.1312 23.8017C61.6582 22.6806 62.0415 21.4829 62.7793 20.3809L63.4021 19.5473C63.5458 19.3844 63.7854 19.0682 64.0441 19.0012C64.5711 18.8862 64.7148 19.7869 64.6669 20.151L64.5232 20.8888C64.504 21.0996 64.2836 21.7224 64.1878 21.8949L63.5937 22.6806C62.7793 23.61 61.754 24.4245 60.6329 25.0282C60.8246 24.6449 60.9204 24.2616 61.112 23.8975ZM38.3646 23.8975C38.4125 23.8304 38.4125 23.8017 38.4125 23.8017C38.9395 22.6806 39.3228 21.4829 40.0606 20.3809L40.6834 19.5473C40.8272 19.3844 41.0667 19.0682 41.3063 19.0012C41.8333 18.8862 41.977 19.7869 41.9482 20.151L41.8908 20.8984C41.8428 21.1092 41.565 21.732 41.45 21.9045L40.8559 22.6902C40.0702 23.6196 39.0354 24.4341 37.9143 25.0377C38.0772 24.6449 38.2017 24.2616 38.3646 23.8975ZM90.0205 30.5282H90.0014C87.0789 30.9593 90.308 24.7407 90.308 24.7407C90.835 23.6867 91.3333 22.8531 91.5728 22.5656C91.9561 24.3383 93.8437 24.9803 95.396 25.2006C94.3803 27.2224 92.4927 30.0682 90.0205 30.5282ZM96.9387 20.8121C96.6991 21.7895 96.4883 23.083 95.9613 23.9646C95.7984 24.3191 95.8942 24.2041 95.5589 24.2712C95.3481 24.3383 94.8881 24.2712 94.6773 24.252C94.2941 24.2041 93.8437 24.137 93.5563 23.8975C93.058 23.4663 93.1251 22.8243 93.2017 22.2207C93.2688 21.6266 93.4604 21.0517 93.6521 20.4959C93.7671 20.2851 94.2941 18.9149 94.4665 18.6562C94.4474 18.6562 94.4665 18.637 94.5144 18.5604V18.6083L94.5336 18.5412C94.5336 18.5412 94.5336 18.4933 94.5815 18.4933C95.1085 17.8034 96.4021 16.2224 97.092 17.2956C97.6094 18.2059 97.1303 19.9306 96.9387 20.8121Z" fill="white"/>
<path fill-rule="evenodd" clip-rule="evenodd" d="M94.572 18.4932L94.5234 18.5417C94.5234 18.5417 94.572 18.5417 94.572 18.4932Z" fill="white"/>
<path fill-rule="evenodd" clip-rule="evenodd" d="M182.17 23.6577V23.6098C181.623 22.6516 180.876 23.9643 180.569 24.4243C179.975 25.2387 179.4 26.0053 178.778 26.7431C178.251 27.3659 177.704 27.9887 177.273 28.6595C177.273 28.7265 176.842 29.3014 176.679 29.4931C176.373 29.8284 176.056 30.1638 175.702 30.4992C175.175 30.9783 172.233 33.7474 171.85 31.9556C171.639 31.0741 171.859 30.068 172.022 29.2344C172.118 28.784 172.185 28.372 172.252 27.9217C172.319 27.5671 172.329 27.1264 172.511 26.7718C172.607 26.561 172.626 26.6089 172.894 26.5323L173.488 26.3215C173.872 26.1777 174.255 26.034 174.609 25.8232C175.136 25.5166 175.616 25.1333 176.066 24.75C177.168 23.8398 178.318 22.7379 178.768 21.3772C179.008 20.6107 179.055 19.7771 178.557 19.1063C178.107 18.5122 177.34 18.196 176.641 18.0523C174.724 17.6978 173.297 18.7901 172.214 20.2274C171.457 21.1568 170.825 22.2108 170.336 23.3128L170.039 23.8494C169.876 24.0793 169.56 24.5009 168.86 25.4879C167.711 27.1359 166.417 28.669 165.152 30.25L163.121 32.7413C162.814 33.0959 162.498 33.4791 162.143 33.8432C162 34.0061 161.118 34.7248 161.166 34.9164C161.166 34.9835 160.428 35.5105 160.332 35.4434C159.662 35.1847 160.265 33.1438 160.352 32.6455C160.994 29.7997 161.933 26.9251 162.891 24.2039C163.437 22.6708 164.012 21.2431 164.635 19.7771C164.941 19.0392 165.258 18.2727 165.612 17.5253L166.11 16.1838C166.11 16.1838 166.273 15.5227 166.628 15.3215C166.628 15.3215 166.829 15.2257 166.934 15.2544C167.643 15.2448 168.008 15.3502 168.458 15.3502C168.765 15.3502 170.805 15.2544 171.256 15.1107C171.687 14.9957 172.281 14.6124 172.233 14.1333V14.0854C172.214 13.6063 171.687 13.9896 171.4 13.9896C169.991 14.0567 168.602 14.0567 167.241 14.1333C167.241 14.0854 167.289 13.9417 167.404 13.75C167.26 13.9896 169.292 10.0898 171.467 6.84151C171.639 6.5828 171.706 6.63071 171.821 6.34325C172.061 5.65335 171.323 5.33716 170.796 5.22217C169.723 5.01137 168.477 5.1551 167.787 6.05579C167.116 6.87025 165.737 9.21782 165.44 9.66817C165.037 10.2814 164.721 10.9809 164.414 11.6516C164.156 12.2265 163.868 12.8685 163.629 13.4913C163.485 13.7979 163.485 14.0662 163.15 14.1621C162.843 14.3058 162.239 14.2866 161.904 14.3058C160.515 14.4687 159.202 14.325 157.841 14.4687C157.123 14.5166 156.433 14.5166 155.762 14.7561C155.618 14.8041 154.852 14.9669 154.785 15.0628C154.574 15.446 155.407 15.494 155.599 15.5131C156.912 15.7048 158.608 15.8485 159.949 15.5802C160.859 15.4173 161.789 15.4844 162.776 15.4173C162.297 16.4713 161.913 17.5924 161.53 18.7135L161.099 19.9304C160.955 20.3136 160.352 22.0096 160.217 22.3258C160.17 22.4216 159.777 23.2265 159.537 23.9164C159.518 23.9548 159.508 24.0027 159.499 24.041C159.451 24.1464 159.346 24.338 159.106 24.6542L157.42 26.9251L155.532 29.4164L154.507 30.71C154.411 30.8537 153.644 31.8311 153.692 31.8311C153.625 31.8981 151.527 33.9678 151.182 33.5558C150.894 33.2013 151.661 31.7352 151.776 31.3807C152.159 30.3746 152.514 29.3206 152.926 28.3432C153.376 27.318 153.903 26.3119 154.334 25.2866C154.737 24.2135 154.123 23.8014 153.117 23.5619C152.638 23.4661 151.824 23.4852 151.824 23.4852C151.469 23.4852 151.393 23.5619 150.722 23.399C150.271 23.284 149.984 23.284 150.051 22.757C150.118 22.0671 150.866 21.3197 151.105 20.649C151.287 20.1699 150.942 19.8825 150.942 19.8825C149.246 18.7326 147.263 21.1281 147.598 22.8241C147.646 22.9966 147.723 23.1115 147.799 23.2457C147.656 23.4565 147.493 23.7344 147.493 23.7344C147.349 23.926 147.215 24.2422 147.062 24.453C146.487 25.2675 145.912 26.034 145.289 26.7718C144.762 27.3946 144.187 28.0175 143.756 28.6882C143.756 28.7553 142.539 30.1926 142.175 30.5279C141.648 31.007 138.706 33.7762 138.323 31.9844C138.112 31.1028 138.39 30.0201 138.562 29.1865C138.677 28.7361 138.697 28.5445 138.773 28.0845C138.831 27.615 138.831 27.1551 138.994 26.791C139.089 26.5802 139.137 26.6281 139.377 26.5514L139.971 26.3406C140.354 26.1969 140.738 26.0532 141.092 25.8424C141.619 25.5358 142.117 25.1525 142.577 24.7692C143.65 23.8589 144.8 22.757 145.279 21.3964C145.519 20.6298 145.538 19.7962 145.069 19.1255C144.618 18.5314 143.823 18.2152 143.133 18.0715C141.245 17.7169 139.808 18.8093 138.706 20.2466C137.844 21.3293 137.135 22.5845 136.617 23.8973C135.937 24.6542 135.87 24.7596 135.238 25.3441C134.806 25.6795 132.986 26.9443 132.488 27.021C132.229 27.088 131.51 27.1168 131.242 27.0018C130.648 26.6664 131.261 25.5932 131.434 25.0854C131.481 25.0183 131.625 24.7021 131.625 24.7021L132.248 24.0314C132.842 23.4086 133.657 23.1211 134.279 22.575C134.49 22.3833 134.634 22.2683 134.711 21.9809C134.854 20.8598 133.273 20.8119 132.603 21.291C131.548 21.9138 130.878 22.9199 130.14 23.7823L128.99 24.9513C128.54 25.4783 127.994 25.9669 127.553 26.5802C127.409 26.791 126.738 27.7013 126.547 27.9887C126.144 28.5157 125.761 29.0619 125.378 29.6368C125.407 29.2823 125.119 26.676 124.975 25.2387C124.975 25.4112 124.985 25.5932 124.994 25.7466L125.014 25.9861C125.023 26.0915 125.023 26.1682 125.023 26.1969L125.014 25.9861C125.004 25.919 125.004 25.8328 124.994 25.7466L124.956 25.1621C124.956 25.1525 124.956 25.1525 124.956 25.1429V25.1621C124.956 25.1716 124.966 25.1812 124.975 25.21C124.975 25.1621 124.956 25.1429 124.956 25.0662V25.0854C124.889 24.4913 124.812 23.8685 124.65 23.2648C124.65 23.2648 124.602 22.7187 124.41 22.4504C124.123 22.0671 123.548 22.115 123.164 22.2588C122.858 22.3546 122.57 22.642 122.427 22.7378C122.091 22.9486 121.737 23.0253 121.593 23.5523C121.583 23.8398 122.043 26.1107 122.043 26.1107C122.072 26.8197 122.149 28.8703 121.785 31.5149C121.717 32.6359 121.641 34.1499 122.57 34.8398C123.241 35.338 124.199 35.4626 124.726 34.6769C124.937 34.3223 124.985 33.8912 125.033 33.4791C125.244 32.3772 125.627 31.6107 126.231 30.6812C127.285 28.9565 128.741 27.6917 129.91 26.0628C129.795 29.5793 134.212 28.3816 135.726 26.6568C135.784 26.5993 135.832 26.5419 135.88 26.4844C135.697 27.3372 135.573 28.1899 135.41 29.0715C135.247 30.1255 135.151 31.1028 135.697 32.1089C135.937 32.3964 135.937 32.4922 136.129 32.6838C136.723 33.4025 137.518 33.9487 138.447 34.2169C139.07 34.3798 139.616 34.3319 140.22 34.0253C141.082 33.575 141.801 32.8755 142.443 32.2047C143.037 31.534 143.497 30.7962 144.024 30.0967C144.503 29.4739 145.097 28.8798 145.605 28.2283L147.493 25.7849L148.365 24.6063L148.422 24.5392C149.189 25.1237 150.339 25.1621 151.249 24.9704C151.086 25.21 149.217 29.129 149.313 29.1769C149.313 29.1769 148.384 31.7352 148.336 31.9077C148.192 32.7413 148.24 33.4887 148.576 34.2553C148.786 34.7535 149.026 35.1847 149.505 35.453C149.907 35.7405 150.434 35.8842 150.942 35.7884C151.354 35.6734 151.776 35.2614 151.776 35.2901C151.872 35.3189 153.501 34.0253 153.692 33.8816C154.813 32.9521 155.752 31.7736 156.586 30.6333C156.94 30.1255 157.582 29.1769 158.138 28.3528L158.339 28.075C158.129 29.1194 157.86 30.1638 157.63 31.1795C157.487 31.7544 157.343 32.2814 157.276 32.8276C157.209 33.115 157.132 33.4216 157.132 33.7091C157.132 33.7762 157.123 34.3511 157.123 34.3511C157.027 34.8877 157.132 35.6446 157.18 35.8363C157.324 36.5549 157.659 37.1777 158.301 37.6089C158.847 38.0114 159.738 38.3946 160.409 38.088C161.271 37.6856 162.009 36.6987 162.584 35.98C163.801 34.5427 164.932 33.0384 166.053 31.534C166.982 30.2309 167.95 28.9661 168.784 27.6342L169.263 26.973C169.138 27.6629 169.033 28.3528 168.918 29.0715C168.755 30.1255 168.64 31.1028 169.205 32.1089C169.177 32.061 169.224 32.1568 169.301 32.2431C169.464 32.4539 169.445 32.4826 169.617 32.6743C170.211 33.3929 171.026 33.9391 171.936 34.2074C172.559 34.3703 173.134 34.3223 173.728 34.0157C174.562 33.5654 175.309 32.8659 175.932 32.1952C176.526 31.5244 176.986 30.7866 177.513 30.0872C178.011 29.4643 178.615 28.8703 179.094 28.2187L180.981 25.7753L182.083 24.3189C182.246 24.1272 182.371 23.9356 182.227 23.6769C182.217 23.6865 182.217 23.6865 182.17 23.6577ZM173.517 24.041C173.565 23.9739 173.565 23.926 173.565 23.926C174.092 22.8049 174.475 21.6263 175.194 20.534C175.194 20.534 176.018 19.2405 176.459 19.1255C176.986 19.0297 177.129 19.9399 177.101 20.2945L176.957 21.0323C176.909 21.2239 176.813 21.6455 176.603 22.0384L176.008 22.8049C175.194 23.7631 174.188 24.5776 173.067 25.1716C173.23 24.7596 173.345 24.3764 173.517 24.041ZM139.961 24.1847C139.981 24.1176 140.057 23.9164 140.057 23.9164C140.584 22.7953 140.967 21.6168 141.705 20.5244L142.328 19.6908C142.472 19.5279 142.711 19.1926 142.97 19.1159C143.497 19.0201 143.641 19.9304 143.593 20.2849C143.593 20.2849 143.545 21.1473 143.411 21.521C143.344 21.7126 143.258 21.8563 143.114 22.0384L142.52 22.8049C141.705 23.7631 140.68 24.5776 139.559 25.1716C139.751 24.7596 139.779 24.5776 139.961 24.1847Z" fill="white"/>
</svg>
