<svg width="139" height="47" viewBox="0 0 139 47" fill="none" xmlns="http://www.w3.org/2000/svg">
<path d="M127.224 0.000150172H11.0141C10.5905 0.000150172 10.172 0.000150172 9.74955 0.0024605C9.39589 0.00477084 9.04506 0.0114824 8.68801 0.0171311C7.91233 0.026259 7.13847 0.0944999 6.37317 0.221261C5.60894 0.350781 4.86865 0.594964 4.17734 0.94555C3.48687 1.2991 2.85597 1.75851 2.30753 2.3071C1.7562 2.85415 1.29663 3.48646 0.946486 4.17973C0.595373 4.87161 0.351911 5.61303 0.224507 6.37838C0.0958915 7.14276 0.0266825 7.91595 0.0175008 8.69102C0.00678083 9.0452 0.00564876 9.40055 0 9.75477V36.4556C0.00564876 36.8143 0.00678083 37.1617 0.0175008 37.5205C0.0266853 38.2956 0.0958943 39.0687 0.224507 39.8331C0.351559 40.5989 0.595036 41.3407 0.946486 42.0328C1.29647 42.7239 1.75611 43.3536 2.30753 43.8976C2.85389 44.4487 3.4852 44.9084 4.17734 45.2592C4.86864 45.6108 5.60885 45.8564 6.37317 45.9879C7.13861 46.1137 7.91238 46.1819 8.68801 46.1921C9.04506 46.2 9.39589 46.2045 9.74955 46.2045C10.172 46.2068 10.5906 46.2068 11.0141 46.2068H127.224C127.639 46.2068 128.061 46.2068 128.476 46.2045C128.828 46.2045 129.189 46.2 129.541 46.1921C130.315 46.1825 131.088 46.1142 131.851 45.9879C132.618 45.8555 133.361 45.6099 134.056 45.2592C134.747 44.9082 135.378 44.4485 135.924 43.8976C136.474 43.3515 136.935 42.7222 137.289 42.0328C137.638 41.3402 137.879 40.5984 138.004 39.8331C138.133 39.0686 138.205 38.2956 138.218 37.5205C138.223 37.1617 138.223 36.8143 138.223 36.4556C138.232 36.0359 138.232 35.6186 138.232 35.1921V11.016C138.232 10.5929 138.232 10.1733 138.223 9.75477C138.223 9.40055 138.223 9.0452 138.218 8.69098C138.205 7.91584 138.133 7.14282 138.004 6.37833C137.878 5.61343 137.637 4.87207 137.289 4.17968C136.576 2.7901 135.445 1.659 134.056 0.945446C133.361 0.595716 132.618 0.351599 131.851 0.221157C131.088 0.0938374 130.315 0.0255728 129.541 0.0169694C129.189 0.0113322 128.828 0.00456291 128.476 0.00231033C128.061 0 127.639 0 127.224 0V0.000150172Z" fill="#A6A6A6"/>
<path d="M9.75874 45.1967C9.40678 45.1967 9.06333 45.1922 8.71413 45.1844C7.99075 45.1749 7.26905 45.112 6.55496 44.9959C5.88911 44.8813 5.24409 44.668 4.64115 44.363C4.04375 44.0606 3.49887 43.6641 3.02739 43.1887C2.54908 42.7189 2.15086 42.1739 1.84853 41.5755C1.54286 40.9732 1.33132 40.3276 1.22127 39.6612C1.10243 38.9451 1.03814 38.221 1.02894 37.4952C1.02161 37.2516 1.01202 36.4404 1.01202 36.4404V9.75544C1.01202 9.75544 1.02224 8.95675 1.02899 8.7221C1.0378 7.99745 1.10173 7.27451 1.22021 6.55955C1.33046 5.89131 1.54216 5.24384 1.84799 4.63955C2.14922 4.04153 2.54522 3.4962 3.02065 3.02468C3.49554 2.54869 4.04217 2.15013 4.64059 1.84356C5.24213 1.53962 5.88594 1.3278 6.55045 1.21522C7.26688 1.09804 7.99108 1.0347 8.71697 1.0257L9.7593 1.0116H128.474L129.529 1.02627C130.248 1.03481 130.966 1.0976 131.676 1.21409C132.347 1.32808 132.997 1.54137 133.606 1.84694C134.805 2.46478 135.78 3.44226 136.396 4.64237C136.696 5.24248 136.905 5.88467 137.014 6.54714C137.134 7.26797 137.201 7.99659 137.215 8.72719C137.218 9.05433 137.218 9.40573 137.218 9.75544C137.227 10.1886 137.227 10.6009 137.227 11.0166V35.1927C137.227 35.6124 137.227 36.0219 137.218 36.4348C137.218 36.8104 137.218 37.1546 137.213 37.5087C137.2 38.2263 137.134 38.9419 137.016 39.6498C136.908 40.3211 136.698 40.9717 136.392 41.579C136.088 42.1709 135.692 42.7111 135.219 43.1797C134.747 43.6577 134.201 44.0565 133.602 44.3608C132.996 44.6681 132.346 44.8822 131.676 44.9959C130.962 45.1126 130.24 45.1756 129.516 45.1844C129.178 45.1922 128.824 45.1967 128.48 45.1967L127.228 45.199L9.75874 45.1967Z" fill="black"/>
<path fill-rule="evenodd" clip-rule="evenodd" d="M11.2664 11.822C11.0091 12.0986 10.8612 12.5243 10.8612 13.0774V32.7523C10.8612 33.3054 11.0091 33.7311 11.2761 33.9981L11.3458 34.057L22.3701 23.0327V22.785L11.3362 11.7631L11.2664 11.822V11.822Z" fill="url(#paint0_linear_301_2)"/>
<path fill-rule="evenodd" clip-rule="evenodd" d="M26.0391 26.725L22.3619 23.0466V22.7893L26.0403 19.1109L26.1197 19.1602L30.4702 21.6325C31.716 22.3347 31.716 23.4915 30.4702 24.2034L26.1197 26.6757C26.1185 26.6757 26.0391 26.725 26.0391 26.725V26.725Z" fill="url(#paint1_linear_301_2)"/>
<path fill-rule="evenodd" clip-rule="evenodd" d="M26.1147 26.672L22.3582 22.9143L11.2642 34.0083C11.6694 34.4436 12.3512 34.4929 13.1136 34.0672L26.1147 26.672Z" fill="url(#paint2_linear_301_2)"/>
<path fill-rule="evenodd" clip-rule="evenodd" d="M26.1147 19.1594L13.1136 11.7738C12.3524 11.3385 11.6694 11.3975 11.2642 11.8328L22.357 22.916L26.1147 19.1594Z" fill="url(#paint3_linear_301_2)"/>
<path opacity="0.2" fill-rule="evenodd" clip-rule="evenodd" d="M26.0381 26.5944L13.1259 33.9307C12.4044 34.3456 11.7611 34.3167 11.3462 33.9403L11.2765 34.0101L11.3462 34.069C11.7611 34.4442 12.4044 34.4742 13.1259 34.0594L26.127 26.6738L26.0381 26.5944V26.5944Z" fill="black"/>
<path opacity="0.12" fill-rule="evenodd" clip-rule="evenodd" d="M30.4691 24.0711L26.0296 26.5927L26.109 26.672L30.4595 24.1998C31.0824 23.8438 31.389 23.3797 31.389 22.9143C31.3493 23.34 31.0331 23.7452 30.4691 24.0711V24.0711Z" fill="black"/>
<path opacity="0.25" fill-rule="evenodd" clip-rule="evenodd" d="M13.1158 11.9016L30.4675 21.7595C31.0315 22.0758 31.3477 22.4906 31.397 22.9163C31.397 22.4521 31.0904 21.9868 30.4675 21.6309L13.1158 11.773C11.8701 11.0611 10.8612 11.6539 10.8612 13.0777V13.2063C10.8612 11.7826 11.8701 11.1994 13.1158 11.9016Z" fill="white"/>
<path fill-rule="evenodd" clip-rule="evenodd" d="M37.9319 26.2353C37.9319 22.417 41.1413 19.3081 44.9596 19.3081C47.0706 19.3081 48.5726 20.137 49.706 21.2165L48.3715 22.551C47.5615 21.7905 46.4631 21.2005 44.9582 21.2005C42.1698 21.2005 39.9904 23.4455 39.9904 26.2338C39.9904 29.0222 42.1698 31.2701 44.9567 31.2701C46.7646 31.2701 47.7932 30.5446 48.4531 29.8832C48.9936 29.3427 49.3476 28.5662 49.4845 27.5013H44.9596V25.6132H51.3289C51.3959 25.9512 51.4309 26.3562 51.4309 26.7947C51.4309 28.2122 51.0419 29.9706 49.7905 31.222C48.5726 32.4894 47.0196 33.1654 44.9582 33.1654C41.1384 33.1654 37.929 30.0595 37.929 26.2382L37.9319 26.2353ZM56.5793 24.2424C54.1129 24.2424 52.0995 26.1188 52.0995 28.7017C52.0995 31.2715 54.1114 33.161 56.5793 33.161C59.0471 33.161 61.0561 31.2686 61.0561 28.7002C61.0561 26.1173 59.0457 24.2409 56.5793 24.2424V24.2424ZM56.5793 31.407C55.2288 31.407 54.0619 30.2926 54.0619 28.7032C54.0619 27.0977 55.2273 25.9993 56.5793 25.9993C57.9297 25.9993 59.0952 27.0963 59.0952 28.7032C59.0952 30.2911 57.9312 31.407 56.5793 31.407ZM66.3473 24.2424C63.8809 24.2424 61.8704 26.1188 61.8704 28.7017C61.8704 31.2715 63.8809 33.161 66.3473 33.161C68.8137 33.161 70.8241 31.2686 70.8241 28.7002C70.8241 26.1173 68.8151 24.2409 66.3473 24.2424V24.2424ZM66.3473 31.407C64.9968 31.407 63.8299 30.2926 63.8299 28.7032C63.8299 27.0977 64.9953 25.9993 66.3473 25.9993C67.6977 25.9993 68.8647 27.0963 68.8647 28.7032C68.8647 30.2911 67.6977 31.407 66.3473 31.407ZM78.3355 24.5133V25.2388H78.2684C77.8299 24.7129 76.985 24.2409 75.9215 24.2409C73.6911 24.2409 71.6443 26.2018 71.6443 28.7206C71.6443 31.2191 73.6897 33.164 75.9215 33.164C76.985 33.164 77.8299 32.6919 78.2684 32.1515H78.3355V32.7925C78.3355 34.4984 77.4235 35.4118 75.9536 35.4118C74.7531 35.4118 74.0102 34.5494 73.7057 33.8254L71.9983 34.5348C72.4878 35.7163 73.7902 37.1702 75.9521 37.1702C78.2481 37.1702 80.1915 35.8168 80.1915 32.523V24.5119L78.3355 24.5133ZM76.089 31.407C74.7386 31.407 73.6037 30.2736 73.6037 28.7206C73.6037 27.1502 74.7371 26.0008 76.089 26.0008C77.4235 26.0008 78.471 27.1487 78.471 28.7206C78.4724 30.2736 77.425 31.407 76.089 31.407ZM81.5449 19.7816H83.5057V32.893H81.5449V19.7816ZM88.88 31.407C87.8835 31.407 87.1726 30.9496 86.7195 30.0565L92.6837 27.5872L92.4783 27.0803C92.1083 26.0852 90.9749 24.2424 88.66 24.2424C86.3626 24.2424 84.4527 26.0503 84.4527 28.7032C84.4527 31.2016 86.3451 33.1625 88.88 33.1625C90.9253 33.1625 92.1083 31.914 92.5978 31.1856L91.0768 30.1731C90.5684 30.9175 89.875 31.4085 88.88 31.407V31.407ZM88.727 25.9658C89.5035 25.9658 90.162 26.3548 90.3819 26.9113L86.3932 28.5677C86.3436 26.8443 87.7291 25.9658 88.727 25.9658V25.9658ZM101.288 19.7816H96.5997V32.893H98.5562V27.9267H101.289C103.458 27.9267 105.591 26.3562 105.591 23.8534C105.591 21.3549 103.46 19.783 101.292 19.783L101.288 19.7816ZM101.339 26.1013H98.5562V21.6055H101.339C102.801 21.6055 103.635 22.819 103.635 23.8534C103.635 24.8703 102.801 26.1013 101.339 26.1013V26.1013ZM108.626 32.893V19.7816H106.669V32.893H108.626ZM117.415 32.8697V27.8436C117.415 25.5156 115.675 24.2176 113.43 24.2176C112.016 24.2176 110.549 24.8426 109.941 26.2251L111.678 26.9491C112.049 26.2251 112.74 25.9876 113.467 25.9876C114.478 25.9876 115.506 26.5951 115.522 27.6761V27.8116C115.168 27.6091 114.411 27.3046 113.481 27.3046C111.609 27.3046 109.704 28.3331 109.704 30.2561C109.704 32.0116 111.239 33.1406 112.96 33.1406C114.277 33.1406 115.001 32.5506 115.455 31.8601H115.522V32.8726H117.413L117.415 32.8697ZM113.197 31.4041C112.556 31.4041 111.662 31.0836 111.662 30.2926C111.662 29.2801 112.776 28.8896 113.738 28.8896C114.599 28.8896 115.002 29.0746 115.527 29.3281C115.377 30.5052 114.382 31.3895 113.197 31.4041V31.4041ZM124.295 24.5046L122.052 30.1877H121.985L119.657 24.5046H117.549L121.039 32.4501L119.048 36.8687H121.089L126.469 24.5046H124.295Z" fill="white"/>
<path d="M38.6081 14.5378V8.64055H40.2728C40.7858 8.64055 41.2394 8.75396 41.6337 8.98077C42.0279 9.20759 42.3317 9.53026 42.545 9.9488C42.761 10.3673 42.8703 10.848 42.873 11.3907V11.7674C42.873 12.3236 42.765 12.811 42.549 13.2295C42.3357 13.6481 42.0292 13.9694 41.6296 14.1935C41.2327 14.4176 40.7696 14.5324 40.2404 14.5378H38.6081ZM39.3857 9.2805V13.9019H40.2039C40.8033 13.9019 41.2691 13.7156 41.6013 13.3429C41.9361 12.9703 42.1035 12.4397 42.1035 11.7512V11.4069C42.1035 10.7373 41.9455 10.2175 41.6296 9.84754C41.3164 9.47491 40.8708 9.2859 40.293 9.2805H39.3857ZM45.7528 14.6188C45.1588 14.6188 44.6754 14.4244 44.3028 14.0355C43.9302 13.644 43.7439 13.1215 43.7439 12.4681V12.3304C43.7439 11.8956 43.8262 11.5082 43.9909 11.1679C44.1583 10.825 44.3906 10.5577 44.6876 10.366C44.9873 10.1716 45.3113 10.0744 45.6596 10.0744C46.2294 10.0744 46.6722 10.262 46.9881 10.6373C47.3041 11.0127 47.462 11.55 47.462 12.2494V12.5612H44.4932C44.504 12.9933 44.6295 13.3429 44.8698 13.6103C45.1129 13.8749 45.4207 14.0072 45.7933 14.0072C46.0579 14.0072 46.282 13.9532 46.4657 13.8452C46.6493 13.7372 46.8099 13.5941 46.9476 13.4158L47.4053 13.7723C47.0381 14.3366 46.4873 14.6188 45.7528 14.6188ZM45.6596 10.69C45.3572 10.69 45.1034 10.8007 44.8982 11.0221C44.693 11.2408 44.5661 11.5487 44.5175 11.9456H46.7127V11.8889C46.6911 11.5082 46.5885 11.2138 46.4049 11.0059C46.2213 10.7953 45.9729 10.69 45.6596 10.69ZM50.8845 13.3753C50.8845 13.1728 50.8076 13.0162 50.6537 12.9055C50.5025 12.7921 50.2365 12.6949 49.8558 12.6139C49.4777 12.5329 49.1767 12.4357 48.9525 12.3223C48.7311 12.2089 48.5664 12.0739 48.4584 11.9172C48.3531 11.7606 48.3004 11.5743 48.3004 11.3583C48.3004 10.9992 48.4517 10.6954 48.7541 10.447C49.0592 10.1986 49.448 10.0744 49.9206 10.0744C50.4174 10.0744 50.8197 10.2026 51.1276 10.4591C51.4381 10.7157 51.5933 11.0437 51.5933 11.4434H50.84C50.84 11.2381 50.7522 11.0613 50.5767 10.9128C50.4039 10.7643 50.1852 10.69 49.9206 10.69C49.6478 10.69 49.4345 10.7494 49.2806 10.8682C49.1267 10.987 49.0497 11.1423 49.0497 11.334C49.0497 11.5149 49.1213 11.6513 49.2644 11.7431C49.4075 11.8349 49.6654 11.9226 50.038 12.0063C50.4133 12.0901 50.7171 12.19 50.9493 12.3061C51.1816 12.4222 51.353 12.5626 51.4637 12.7273C51.5771 12.8893 51.6338 13.0878 51.6338 13.3227C51.6338 13.7142 51.4772 14.0288 51.164 14.2664C50.8508 14.5013 50.4444 14.6188 49.9449 14.6188C49.5938 14.6188 49.2833 14.5567 49.0133 14.4325C48.7433 14.3083 48.5313 14.1355 48.3774 13.914C48.2262 13.6899 48.1506 13.4483 48.1506 13.189H48.8999C48.9134 13.4402 49.0133 13.64 49.1996 13.7885C49.3886 13.9343 49.637 14.0072 49.9449 14.0072C50.2284 14.0072 50.4552 13.9505 50.6253 13.8371C50.7981 13.721 50.8845 13.5671 50.8845 13.3753ZM54.3678 14.0072C54.6351 14.0072 54.8687 13.9262 55.0685 13.7642C55.2683 13.6022 55.379 13.3996 55.4006 13.1566H56.1094C56.0959 13.4077 56.0095 13.6467 55.8502 13.8735C55.6909 14.1003 55.4776 14.2813 55.2102 14.4163C54.9456 14.5513 54.6648 14.6188 54.3678 14.6188C53.771 14.6188 53.2958 14.4203 52.9421 14.0234C52.5911 13.6238 52.4155 13.0783 52.4155 12.3871V12.2615C52.4155 11.8349 52.4939 11.4555 52.6505 11.1234C52.8071 10.7913 53.0312 10.5334 53.3228 10.3498C53.6171 10.1662 53.9641 10.0744 54.3637 10.0744C54.8552 10.0744 55.2629 10.2215 55.5869 10.5158C55.9137 10.8102 56.0878 11.1922 56.1094 11.6621H55.4006C55.379 11.3785 55.271 11.1463 55.0766 10.9654C54.8849 10.7818 54.6473 10.69 54.3637 10.69C53.983 10.69 53.6873 10.8277 53.4767 11.1031C53.2688 11.3758 53.1648 11.7714 53.1648 12.2899V12.4316C53.1648 12.9366 53.2688 13.3254 53.4767 13.5981C53.6846 13.8708 53.9817 14.0072 54.3678 14.0072ZM59.6575 14.5378C59.6143 14.4514 59.5792 14.2975 59.5522 14.076C59.2038 14.4379 58.788 14.6188 58.3047 14.6188C57.8726 14.6188 57.5176 14.4973 57.2394 14.2543C56.964 14.0085 56.8263 13.698 56.8263 13.3227C56.8263 12.8664 56.9991 12.5126 57.3448 12.2615C57.6931 12.0077 58.1818 11.8808 58.811 11.8808H59.54V11.5365C59.54 11.2746 59.4617 11.0667 59.3051 10.9128C59.1485 10.7562 58.9176 10.6778 58.6125 10.6778C58.3452 10.6778 58.1211 10.7454 57.9401 10.8804C57.7592 11.0154 57.6688 11.1787 57.6688 11.3704H56.9154C56.9154 11.1517 56.9924 10.9411 57.1463 10.7386C57.3029 10.5334 57.5135 10.3714 57.7781 10.2526C58.0455 10.1338 58.3384 10.0744 58.6571 10.0744C59.162 10.0744 59.5576 10.2013 59.8438 10.4551C60.13 10.7062 60.2785 11.0532 60.2893 11.496V13.5131C60.2893 13.9154 60.3406 14.2354 60.4432 14.473V14.5378H59.6575ZM58.414 13.9667C58.6489 13.9667 58.8717 13.9059 59.0823 13.7844C59.2929 13.6629 59.4455 13.505 59.54 13.3105V12.4114H58.9527C58.0347 12.4114 57.5756 12.68 57.5756 13.2174C57.5756 13.4523 57.6539 13.6359 57.8105 13.7682C57.9672 13.9005 58.1683 13.9667 58.414 13.9667ZM59.1066 8.31653H60.0139L58.9284 9.50731H58.3249L59.1066 8.31653ZM63.5822 10.8277C63.4688 10.8088 63.3459 10.7994 63.2136 10.7994C62.7222 10.7994 62.3887 11.0086 62.2132 11.4272V14.5378H61.4639V10.1554H62.193L62.2051 10.6616C62.4508 10.2701 62.7992 10.0744 63.2501 10.0744C63.3959 10.0744 63.5066 10.0933 63.5822 10.1311V10.8277ZM64.0156 12.3101C64.0156 11.627 64.1736 11.0842 64.4895 10.6819C64.8054 10.2769 65.2239 10.0744 65.7451 10.0744C66.2797 10.0744 66.6969 10.2634 66.9966 10.6414L67.0331 10.1554H67.7176V14.4325C67.7176 14.9995 67.5488 15.4464 67.2113 15.7731C66.8765 16.0998 66.4255 16.2632 65.8585 16.2632C65.5426 16.2632 65.2334 16.1957 64.931 16.0607C64.6285 15.9257 64.3977 15.7407 64.2384 15.5058L64.6272 15.0562C64.9485 15.4531 65.3414 15.6516 65.8058 15.6516C66.1704 15.6516 66.4539 15.549 66.6564 15.3438C66.8616 15.1386 66.9642 14.8497 66.9642 14.477V14.1003C66.6645 14.446 66.2554 14.6188 65.737 14.6188C65.2239 14.6188 64.8081 14.4122 64.4895 13.9991C64.1736 13.586 64.0156 13.023 64.0156 12.3101ZM64.7689 12.3952C64.7689 12.8893 64.8702 13.2781 65.0727 13.5617C65.2752 13.8425 65.5588 13.9829 65.9233 13.9829C66.3958 13.9829 66.7428 13.7682 66.9642 13.3389V11.338C66.7347 10.9195 66.3904 10.7103 65.9314 10.7103C65.5669 10.7103 65.282 10.852 65.0768 11.1355C64.8716 11.4191 64.7689 11.8389 64.7689 12.3952ZM71.5572 14.5378C71.514 14.4514 71.4789 14.2975 71.4519 14.076C71.1036 14.4379 70.6878 14.6188 70.2044 14.6188C69.7724 14.6188 69.4173 14.4973 69.1392 14.2543C68.8638 14.0085 68.7261 13.698 68.7261 13.3227C68.7261 12.8664 68.8989 12.5126 69.2445 12.2615C69.5929 12.0077 70.0816 11.8808 70.7107 11.8808H71.4398V11.5365C71.4398 11.2746 71.3615 11.0667 71.2049 10.9128C71.0483 10.7562 70.8174 10.6778 70.5123 10.6778C70.2449 10.6778 70.0208 10.7454 69.8399 10.8804C69.659 11.0154 69.5685 11.1787 69.5685 11.3704H68.8152C68.8152 11.1517 68.8921 10.9411 69.0461 10.7386C69.2027 10.5334 69.4133 10.3714 69.6779 10.2526C69.9452 10.1338 70.2382 10.0744 70.5568 10.0744C71.0618 10.0744 71.4573 10.2013 71.7436 10.4551C72.0298 10.7062 72.1783 11.0532 72.1891 11.496V13.5131C72.1891 13.9154 72.2404 14.2354 72.343 14.473V14.5378H71.5572ZM70.3138 13.9667C70.5487 13.9667 70.7715 13.9059 70.9821 13.7844C71.1927 13.6629 71.3453 13.505 71.4398 13.3105V12.4114H70.8525C69.9344 12.4114 69.4754 12.68 69.4754 13.2174C69.4754 13.4523 69.5537 13.6359 69.7103 13.7682C69.8669 13.9005 70.0681 13.9667 70.3138 13.9667ZM74.1778 14.5378H73.4285V8.31653H74.1778V14.5378ZM75.1823 12.3061C75.1823 11.8767 75.266 11.4906 75.4334 11.1477C75.6035 10.8048 75.8384 10.5401 76.1381 10.3538C76.4406 10.1675 76.7848 10.0744 77.171 10.0744C77.7677 10.0744 78.2497 10.2809 78.6169 10.694C78.9868 11.1072 79.1718 11.6567 79.1718 12.3425V12.3952C79.1718 12.8218 79.0894 13.2052 78.9247 13.5455C78.7627 13.883 78.5292 14.1463 78.224 14.3353C77.9216 14.5243 77.5733 14.6188 77.1791 14.6188C76.585 14.6188 76.103 14.4122 75.7331 13.9991C75.3659 13.586 75.1823 13.0392 75.1823 12.3587V12.3061ZM75.9356 12.3952C75.9356 12.8812 76.0477 13.2714 76.2718 13.5657C76.4986 13.86 76.801 14.0072 77.1791 14.0072C77.5598 14.0072 77.8622 13.8587 78.0863 13.5617C78.3104 13.2619 78.4225 12.8434 78.4225 12.3061C78.4225 11.8254 78.3077 11.4366 78.0782 11.1396C77.8514 10.8399 77.549 10.69 77.171 10.69C76.801 10.69 76.5027 10.8372 76.2758 11.1315C76.049 11.4258 75.9356 11.847 75.9356 12.3952ZM83.9876 14.6188C83.3936 14.6188 82.9102 14.4244 82.5376 14.0355C82.165 13.644 81.9787 13.1215 81.9787 12.4681V12.3304C81.9787 11.8956 82.061 11.5082 82.2257 11.1679C82.3931 10.825 82.6254 10.5577 82.9224 10.366C83.2221 10.1716 83.5461 10.0744 83.8944 10.0744C84.4642 10.0744 84.907 10.262 85.2229 10.6373C85.5389 11.0127 85.6968 11.55 85.6968 12.2494V12.5612H82.728C82.7388 12.9933 82.8643 13.3429 83.1046 13.6103C83.3477 13.8749 83.6555 14.0072 84.0281 14.0072C84.2927 14.0072 84.5168 13.9532 84.7005 13.8452C84.8841 13.7372 85.0447 13.5941 85.1824 13.4158L85.6401 13.7723C85.2729 14.3366 84.7221 14.6188 83.9876 14.6188ZM83.8944 10.69C83.592 10.69 83.3382 10.8007 83.133 11.0221C82.9278 11.2408 82.8009 11.5487 82.7523 11.9456H84.9475V11.8889C84.9259 11.5082 84.8233 11.2138 84.6397 11.0059C84.4561 10.7953 84.2077 10.69 83.8944 10.69ZM87.2764 10.1554L87.3007 10.7062C87.6356 10.285 88.073 10.0744 88.613 10.0744C89.5392 10.0744 90.0063 10.5968 90.0144 11.6418V14.5378H89.2651V11.6378C89.2624 11.3218 89.1895 11.0883 89.0464 10.9371C88.906 10.7859 88.6859 10.7103 88.3862 10.7103C88.1432 10.7103 87.9299 10.7751 87.7463 10.9047C87.5627 11.0343 87.4196 11.2044 87.3169 11.415V14.5378H86.5676V10.1554H87.2764Z" fill="white"/>
<defs>
<linearGradient id="paint0_linear_301_2" x1="21.3801" y1="12.8659" x2="3.72116" y2="17.5712" gradientUnits="userSpaceOnUse">
<stop stop-color="#00A0FF"/>
<stop offset="0.007" stop-color="#00A1FF"/>
<stop offset="0.26" stop-color="#00BEFF"/>
<stop offset="0.512" stop-color="#00D2FF"/>
<stop offset="0.76" stop-color="#00DFFF"/>
<stop offset="1" stop-color="#00E3FF"/>
</linearGradient>
<linearGradient id="paint1_linear_301_2" x1="32.0913" y1="22.9185" x2="10.5599" y2="22.9185" gradientUnits="userSpaceOnUse">
<stop stop-color="#FFE000"/>
<stop offset="0.409" stop-color="#FFBD00"/>
<stop offset="0.775" stop-color="#FFA500"/>
<stop offset="1" stop-color="#FF9C00"/>
</linearGradient>
<linearGradient id="paint2_linear_301_2" x1="24.072" y1="24.9586" x2="9.89531" y2="48.8188" gradientUnits="userSpaceOnUse">
<stop stop-color="#FF3A44"/>
<stop offset="1" stop-color="#C31162"/>
</linearGradient>
<linearGradient id="paint3_linear_301_2" x1="8.47152" y1="5.27832" x2="14.7962" y2="15.9347" gradientUnits="userSpaceOnUse">
<stop stop-color="#32A071"/>
<stop offset="0.069" stop-color="#2DA771"/>
<stop offset="0.476" stop-color="#15CF74"/>
<stop offset="0.801" stop-color="#06E775"/>
<stop offset="1" stop-color="#00F076"/>
</linearGradient>
</defs>
</svg>
