<svg width="55" height="55" viewBox="0 0 55 55" fill="none" xmlns="http://www.w3.org/2000/svg">
<path d="M15.656 9.08398H17.9445L19.5146 14.6872L20.9704 9.08398H23.2811L20.635 17.4161V23.1025H18.3609V17.4161L15.656 9.08398V9.08398ZM26.1353 12.6757C24.357 12.6757 23.1778 13.7957 23.1778 15.453V20.5219C23.1778 22.3443 24.1774 23.2933 26.1353 23.2933C27.7595 23.2933 29.0372 22.2595 29.0372 20.5219V15.453C29.0372 13.835 27.7706 12.6757 26.1353 12.6757ZM26.9792 20.4357C26.9792 20.9987 26.6772 21.4134 26.1337 21.4134C25.5759 21.4134 25.2533 20.979 25.2533 20.4357V15.6241C25.2533 15.058 25.5266 14.6387 26.094 14.6387C26.7138 14.6387 26.9792 15.0459 26.9792 15.6241V20.4357ZM34.4946 12.7619V20.6112C34.2483 20.9049 33.7 21.3862 33.3075 21.3862C32.8768 21.3862 32.7703 21.1047 32.7703 20.6899V12.7619H30.752V21.4043C30.752 22.426 31.0794 23.2509 32.1616 23.2509C32.7719 23.2509 33.6205 22.9482 34.4946 21.9598V23.101H36.5129V12.7619H34.4946ZM37.9957 33.7368C37.2837 33.7368 37.1359 34.2136 37.1359 34.8916V35.8891H38.8348V34.8901C38.8363 34.2242 38.6886 33.7368 37.9957 33.7368ZM30.5216 33.7973C30.3881 33.8624 30.2562 33.9623 30.1243 34.097V40.2345C30.2816 40.3949 30.4326 40.51 30.5804 40.5811C30.8934 40.7325 31.3511 40.7431 31.5641 40.4797C31.6753 40.3404 31.731 40.1149 31.731 39.8001V34.7161C31.731 34.3831 31.6626 34.1318 31.5259 33.9593C31.2923 33.6672 30.8585 33.6354 30.5216 33.7973ZM38.1927 25.9344C34.0544 25.6665 20.6064 25.6665 16.4745 25.9344C12.0024 26.225 11.4748 28.7981 11.4414 35.5712C11.4748 42.3323 11.9976 44.9174 16.4745 45.208C20.6064 45.4759 34.0544 45.4759 38.1927 45.208C42.6648 44.9174 43.1924 42.3429 43.2258 35.5712C43.1924 28.8102 42.6695 26.225 38.1927 25.9344ZM18.6072 42.1083H16.4411V30.6961H14.2003V28.7587H20.8464V30.6961H18.6056V42.1083H18.6072ZM26.3085 42.1083H24.3856V41.0215C24.0312 41.4226 23.6625 41.7284 23.2795 41.9372C22.2433 42.5033 20.821 42.4897 20.821 40.4918V32.2611H22.7423V39.8107C22.7423 40.2073 22.8425 40.4736 23.2541 40.4736C23.6291 40.4736 24.1504 40.015 24.384 39.7365V32.2611H26.307V42.1083H26.3085ZM33.7095 40.068C33.7095 41.2864 33.2312 42.2339 31.9519 42.2339C31.2478 42.2339 30.6614 41.9887 30.1258 41.3515V42.1083H28.1854V28.7587H30.1258V33.0572C30.5597 32.5532 31.1493 32.137 31.8358 32.137C33.2439 32.137 33.7111 33.2706 33.7111 34.6056V40.068H33.7095ZM40.8149 37.4163H37.1375V39.2749C37.1375 40.0135 37.2042 40.6522 37.9766 40.6522C38.7887 40.6522 38.8364 40.1316 38.8364 39.2749V38.5908H40.8149V39.3309C40.8149 41.2274 39.9599 42.3777 37.9337 42.3777C36.0981 42.3777 35.1589 41.1033 35.1589 39.3309V34.9098C35.1589 33.201 36.3445 32.0129 38.0783 32.0129C39.9234 32.0129 40.8133 33.1299 40.8133 34.9098V37.4163H40.8149Z" fill="white"/>
<path d="M27.3258 4.91068C34.5998 4.91068 35.4626 4.93793 38.3368 5.06961C45.7198 5.40561 49.1684 8.9087 49.5044 16.2373C49.6361 19.1092 49.6611 19.9719 49.6611 27.246C49.6611 34.5224 49.6339 35.3828 49.5044 38.2548C49.1662 45.5765 45.7266 49.0864 38.3368 49.4224C35.4626 49.5541 34.6044 49.5813 27.3258 49.5813C20.0517 49.5813 19.189 49.5541 16.317 49.4224C8.91581 49.0841 5.48537 45.5652 5.14937 38.2525C5.01769 35.3805 4.99044 34.5201 4.99044 27.2437C4.99044 19.9697 5.01996 19.1092 5.14937 16.235C5.48764 8.9087 8.92717 5.40334 16.317 5.06734C19.1912 4.93793 20.0517 4.91068 27.3258 4.91068ZM27.3258 0C19.9268 0 19.0005 0.0317844 16.0945 0.163462C6.20052 0.617525 0.701826 6.10714 0.247764 16.0102C0.113816 18.9185 0.0820312 19.8448 0.0820312 27.2437C0.0820312 34.6427 0.113816 35.5712 0.245494 38.4772C0.699556 48.3713 6.18917 53.87 16.0923 54.324C19.0005 54.4557 19.9268 54.4875 27.3258 54.4875C34.7247 54.4875 35.6533 54.4557 38.5593 54.324C48.4442 53.87 53.9565 48.3803 54.4038 38.4772C54.5377 35.5712 54.5695 34.6427 54.5695 27.2437C54.5695 19.8448 54.5377 18.9185 54.406 16.0125C53.9611 6.12757 48.4646 0.619795 38.5615 0.165733C35.6533 0.0317844 34.7247 0 27.3258 0Z" fill="white"/>
</svg>
