<svg width="56" height="55" viewBox="0 0 56 55" fill="none" xmlns="http://www.w3.org/2000/svg">
<path d="M27.7828 4.91068C35.0569 4.91068 35.9196 4.93793 38.7938 5.06961C46.1769 5.40561 49.6255 8.9087 49.9615 16.2373C50.0932 19.1092 50.1181 19.9719 50.1181 27.246C50.1181 34.5224 50.0909 35.3828 49.9615 38.2548C49.6232 45.5765 46.1837 49.0864 38.7938 49.4224C35.9196 49.5541 35.0614 49.5813 27.7828 49.5813C20.5087 49.5813 19.646 49.5541 16.7741 49.4224C9.37284 49.0841 5.9424 45.5652 5.6064 38.2525C5.47472 35.3805 5.44748 34.5201 5.44748 27.2437C5.44748 19.9697 5.47699 19.1092 5.6064 16.235C5.94467 8.9087 9.3842 5.40334 16.7741 5.06734C19.6483 4.93793 20.5087 4.91068 27.7828 4.91068ZM27.7828 0C20.3839 0 19.4576 0.0317844 16.5516 0.163462C6.65755 0.617525 1.15886 6.10714 0.704795 16.0102C0.570847 18.9185 0.539062 19.8448 0.539062 27.2437C0.539062 34.6427 0.570847 35.5712 0.702525 38.4772C1.15659 48.3713 6.6462 53.87 16.5493 54.324C19.4576 54.4557 20.3839 54.4875 27.7828 54.4875C35.1817 54.4875 36.1103 54.4557 39.0163 54.324C48.9012 53.87 54.4136 48.3803 54.8608 38.4772C54.9948 35.5712 55.0265 34.6427 55.0265 27.2437C55.0265 19.8448 54.9948 18.9185 54.8631 16.0125C54.4181 6.12757 48.9217 0.619795 39.0186 0.165733C36.1103 0.0317844 35.1817 0 27.7828 0Z" fill="white"/>
<path d="M30.7766 45.407H22.7232V27.2428H18.6992V20.9839H22.7241V17.2248C22.7241 12.118 24.9952 9.08203 31.4504 9.08203H36.8249V15.3427H33.4656C30.9524 15.3427 30.7867 16.2177 30.7867 17.8502L30.7766 20.983H36.8617L36.1501 27.242H30.7766V45.407Z" fill="white"/>
</svg>
