<svg width="413" height="73" viewBox="0 0 413 73" fill="none" xmlns="http://www.w3.org/2000/svg">
<path fill-rule="evenodd" clip-rule="evenodd" d="M26.722 66.4671C-11.786 38.5132 41.0027 38.5684 25.8479 0.566406C28.1943 29.781 -10.1482 58.0846 14.9534 11.0468C10.5843 14.9848 6.78176 19.5089 3.65401 24.4902C-8.11464 44.4573 10.9507 57.8178 26.7496 66.4303L26.722 66.4671ZM27.3753 66.2923C36.7056 55.6002 56.277 46.8497 42.6405 13.8441C62.7641 36.452 52.5597 54.7629 27.3753 66.2831V66.2923ZM25.4246 61.6364C8.86202 42.3133 40.3678 38.8628 35.7394 8.62687C49.2195 40.9975 19.8393 35.5319 25.4246 61.6272V61.6364Z" fill="white"/>
<path opacity="0.5" fill-rule="evenodd" clip-rule="evenodd" d="M47.0008 2.02719L46.7983 1.66833C48.7214 2.0548 50.8194 3.60984 52.3192 4.76922L61.9807 15.5809L62.9009 17.2096L63.4806 18.3321L64.0326 19.4823L64.5571 20.6601L65.0448 21.8655L65.4957 23.0985C65.7073 23.7242 65.9005 24.3499 66.0938 24.9388L66.5262 26.5582L66.8299 27.92L67.1427 29.4659L67.3728 31.0301L67.5384 32.5852L67.6304 34.039C67.6304 34.6463 67.6304 35.2536 67.6304 35.8793L67.6028 37.0019V37.0571C67.6028 36.6614 67.6028 36.2566 67.6028 35.8609V34.5175V33.7354L67.5384 32.9164L67.4556 32.0791L67.3544 31.251L67.1427 30.4504L67.0231 29.6959L61.6219 16.363L61.2078 16.0042L61.0882 15.8938L60.9502 15.7649L60.7937 15.5993C60.2969 15.0564 59.8736 14.4767 59.3951 13.9063L58.0977 12.2684L57.4812 11.5323L56.8095 10.7502L56.101 9.94963L55.3557 9.15831L54.6104 8.40379L47.2032 2.21122L47.0008 2.02719Z" fill="#FF6600"/>
<path opacity="0.5" fill-rule="evenodd" clip-rule="evenodd" d="M51.9521 5.2842L51.7681 4.91614C52.909 5.10017 54.4181 6.5908 55.2462 7.31771L62.0553 15.5438L62.9754 17.1725L63.8956 18.9023L64.7237 20.7426L65.4782 22.6473L66.1499 24.6348L66.7204 26.696L67.1437 28.8123L67.5301 30.9286L67.7326 32.7689L67.7786 33.4038V34.0755V34.7748C67.7786 35.1367 67.7786 35.4987 67.7786 35.8606V37.7009C67.7004 39.3454 67.5191 40.9834 67.2357 42.6052L67.0793 43.3046V43.0653C67.4189 40.6846 67.5972 38.2837 67.6129 35.879V35.879L64.3832 21.7272C63.6964 20.8581 63.081 19.935 62.543 18.9667L60.9419 16.2063L58.5955 12.765L52.1545 5.50503L51.9521 5.2842Z" fill="#FF6600"/>
<path opacity="0.5" fill-rule="evenodd" clip-rule="evenodd" d="M52.9514 6.44746L53.5955 6.89833L54.4144 7.55163L55.3897 8.41656L56.4847 9.49313L57.6717 10.7813L58.8587 12.2812L60.1193 13.9926L61.3707 15.9157L62.5393 17.9309L63.6066 20.1116L64.5728 22.458L65.4101 24.9424L66.1002 27.5464L66.6155 30.2516L66.9468 33.012L67.0664 35.8461V37.2355L67.002 38.6157L66.8916 39.9867L66.7351 41.3393L66.5327 42.6735L66.2843 43.9893L65.9898 45.2867L65.6586 46.5749L64.9316 48.2312L65.2997 47.1546L65.815 45.1579L66.1922 43.3176L66.4591 41.5878L66.6339 39.9867L66.7351 38.5053V37.1435V35.8645L66.5511 33.104L66.2198 30.8405C65.388 27.0022 64.0934 23.2791 62.3644 19.7527L60.5242 16.4034L60.1469 15.7777L59.7788 15.1428L59.3648 14.5171L58.9415 13.9006L58.5182 13.3025C58.1318 12.7382 57.7238 12.1738 57.2944 11.6095L54.258 8.10372C53.6626 7.53615 53.1148 6.92065 52.6201 6.26343L52.9422 6.43826L52.9514 6.44746ZM64.9132 48.2312L61.8952 55.1599L63.7355 51.5621L64.2047 50.4119L64.6188 49.2802L64.9501 48.2404L64.9132 48.2312ZM61.8952 55.1599L61.3983 56.3009L61.1683 56.6045L61.8952 55.1599Z" fill="#FF6600"/>
<path opacity="0.5" fill-rule="evenodd" clip-rule="evenodd" d="M57.1755 10.5796L57.5251 10.9109L57.9392 11.3341L58.4177 11.8586L58.9514 12.4751L59.5218 13.1928L60.1291 14.0025L60.764 14.9227L61.4173 15.9256L64.0121 20.8116L64.9323 23.1672L65.7512 25.716L66.4229 28.4764C66.6806 29.9394 66.8922 31.3565 67.0762 32.8379L67.2326 35.8836V38.0275L67.0578 40.1346L66.791 42.2602L66.4045 44.3673L65.9076 46.4284L65.3003 48.4711L64.601 50.431L63.8189 52.3265L63.5429 52.9246L63.2116 53.6147L62.8252 54.3785L62.3927 55.1882L61.9234 56.0255L61.4265 56.8629L60.9113 57.6818L60.3868 58.4731L57.9852 61.5648L57.9116 61.6292L58.0588 61.4176C58.8593 60.3778 59.5678 59.4577 60.2764 58.3903L62.3835 54.8569L64.0397 51.2684L65.1715 48.0571L65.9168 45.223L66.3769 42.7662C66.6854 40.4827 66.7993 38.1772 66.7174 35.8744L66.6254 34.6138L66.4965 33.4728C66.2179 31.5651 65.8401 29.6731 65.3648 27.8047L64.5918 25.1639L64.3158 24.3266L63.9661 23.3236L63.5429 22.201L63.046 21.0048L62.5031 19.781L61.9142 18.5757L61.3161 17.4255L60.6996 16.3857L58.2152 12.3923C57.711 11.7535 57.2615 11.0732 56.8718 10.3588L57.1755 10.5796Z" fill="#FF6600"/>
<path opacity="0.5" fill-rule="evenodd" clip-rule="evenodd" d="M58.5526 12.8853L58.9666 13.4006L59.2519 13.7778L59.5463 14.1735L59.8408 14.5875L60.2917 15.25L60.5953 15.7193L60.9082 16.207L63.4662 21.0654L64.3863 23.3841L65.1868 25.8961L65.8309 28.5737C66.0794 30.0092 66.2818 31.4078 66.4566 32.8616L66.6038 35.8521L66.5118 38.8793L66.1806 41.8974L65.6101 44.8695L64.8188 47.7679L63.825 50.5284L62.6472 53.1876L61.2854 55.7732L59.7856 58.0736L58.5618 59.7666L57.1632 61.1836L57.6324 60.6224L59.5923 57.9447L61.8283 54.1537L63.4662 50.7124L64.5243 47.6391L65.2236 44.8787L65.6653 42.4127C65.9219 40.2295 66.0295 38.0315 65.9873 35.8337L65.2144 29.3927L64.92 28.0309C64.736 27.2947 64.5427 26.5586 64.3403 25.8225L62.9877 21.8659L62.454 20.5869L61.8835 19.3171C61.4142 18.3969 60.9634 17.4216 60.4205 16.483L60.3561 16.3634L60.2917 16.253L58.4514 13.2625C58.135 12.8725 57.8891 12.4304 57.7245 11.9559L58.571 12.8761L58.5526 12.8853ZM57.2 61.1928L54.8444 63.5852L56.9239 61.5149L57.2 61.1836V61.1928ZM54.8444 63.5852L52.1852 66.2904H52.1116L54.8444 63.5852Z" fill="#FF6600"/>
<path opacity="0.5" fill-rule="evenodd" clip-rule="evenodd" d="M61.7807 17.7996L62.5445 19.2167L63.3726 20.9005C63.8051 21.9035 64.2007 22.888 64.5872 23.9094L65.3141 26.219L65.9306 28.7401L66.3907 31.5006C66.5379 32.982 66.6391 34.4082 66.7035 35.8897L66.6299 38.7973L66.3355 41.7326L65.811 44.6678L65.0565 47.5663L64.1087 50.3819L62.9309 53.1424L61.5599 55.774L60.0233 58.2492L59.4252 59.1049L58.8179 59.9422L58.1922 60.752L57.5481 61.5433L56.8948 62.307L56.2323 63.0431L55.5606 63.7516L54.8797 64.4325L53.343 65.5643L53.8399 65.1134L54.76 64.1933L55.6802 63.2732C57.1776 61.6432 58.5494 59.9022 59.784 58.0651L61.8268 54.5778C64.6557 48.7509 66.0681 42.3382 65.949 35.8621L65.5993 31.5466L65.1117 28.6205L64.808 27.2495L64.4492 25.8509L64.0443 24.4891C63.713 23.4585 63.3542 22.4372 62.9677 21.4158L61.6243 18.1861C61.3663 17.7545 61.1857 17.2812 61.0906 16.7875L61.7992 17.8088L61.7807 17.7996ZM53.343 65.5643L49.368 68.5548L52.5333 66.2728L53.343 65.5643ZM49.368 68.5548L47.5277 69.9534H47.4541L49.368 68.5548Z" fill="#FF6600"/>
<path opacity="0.5" fill-rule="evenodd" clip-rule="evenodd" d="M61.3559 17.8704L62.2761 19.6279L63.1962 21.551L63.9968 23.6305L64.7053 25.848L65.2574 28.1668L65.699 30.6328L65.9843 33.2L66.0947 35.8408L65.9935 38.8129L65.653 41.7757L65.0825 44.7294L64.3004 47.5818L63.3067 50.3423L62.1289 52.9739L60.7947 55.4583L59.3224 57.777L58.5127 58.9088L57.6846 59.9946L56.838 61.0252L55.9731 62.0005L55.053 62.9206L54.1328 63.7948L53.2127 64.6137L52.2925 65.3774L48.9432 67.8618C48.2174 68.3863 47.4368 68.8306 46.6152 69.1868L46.8361 69.0028L49.1916 67.4478L49.9278 66.9325L50.6823 66.3804L51.446 65.7915L52.5962 64.8714L53.5899 63.9512L54.5101 63.0311L55.375 62.1109L56.1847 61.1908C57.1509 60.0406 58.025 58.8628 58.9452 57.6206L60.721 54.6946L62.1013 51.9341L63.1594 49.2473L64.098 46.5697L64.6961 43.9933L65.1101 41.3893L65.3034 38.7025L65.3586 35.8592V34.9391L65.3126 34.0189L65.239 33.0988L65.1377 32.1786L65.0181 31.1941L64.8617 30.1911L64.6961 29.087L64.4844 28.0288L63.8955 25.6548L63.4631 24.3666L63.0122 23.0048L62.5429 21.6706C62.0829 20.5204 61.6228 19.3886 61.0523 18.2661L60.215 16.5822L59.8377 15.8093C59.7909 15.7318 59.7684 15.642 59.7733 15.5516L59.9941 15.7725C60.169 15.9841 60.3162 16.2141 60.4726 16.4442L61.3559 17.8704Z" fill="#FF6600"/>
<path opacity="0.5" fill-rule="evenodd" clip-rule="evenodd" d="M63.8497 23.1556L64.3282 24.4898L64.7699 25.9068L65.1748 27.3974L65.5244 28.9617L65.8189 30.5995L66.0397 32.3018L66.2237 34.0593L66.2881 35.8996L66.2237 38.7244L65.9201 41.6229L65.3956 44.5121L64.6411 47.3738L63.6749 50.1342L62.4511 52.8762L61.0893 55.4618L59.5619 57.9094L58.2645 59.7497L56.8935 61.4428L55.458 63.0254L53.9766 64.4885L52.4216 65.7859L50.9401 67.0004L49.4219 68.0862L47.9128 69.0616L41.8399 71.9508L41.6099 72.006L41.6835 71.96L41.8583 71.868L44.0758 70.8651L44.8856 70.4786L45.7137 70.0553L46.5602 69.5953L47.416 69.0984L48.2809 68.5647L50.2224 67.2305L51.9707 65.8595L53.5349 64.4793L54.9428 63.099L56.2033 61.728L57.3259 60.3754L58.3381 59.0412L59.2582 57.7254L60.7949 55.1674L62.0463 52.6646L63.0676 50.171L63.905 47.6498L64.5767 45.0274L65.0919 42.267L65.4232 39.2121L65.5244 35.8812L65.4508 33.8293L65.3036 31.989L65.1379 30.6364L64.9171 29.2193L64.6503 27.8023L64.3374 26.4221C64.089 25.4375 63.8129 24.4622 63.5093 23.4868L62.7916 21.2785C62.6964 21.0608 62.6463 20.826 62.6444 20.5884L63.0492 21.2417C63.3437 21.8858 63.5921 22.5207 63.8497 23.1556Z" fill="#FF6600"/>
<path fill-rule="evenodd" clip-rule="evenodd" d="M99.5591 37.7704C99.6149 35.5785 98.805 33.4528 97.3047 31.8538C96.5846 31.0834 95.71 30.4736 94.738 30.0645C93.766 29.6554 92.7185 29.4562 91.6642 29.4799C90.6022 29.4599 89.5477 29.6605 88.5672 30.0692C87.5868 30.4778 86.7019 31.0855 85.9685 31.8538C85.2067 32.6109 84.6047 33.5133 84.1985 34.5076C83.7922 35.5018 83.59 36.5676 83.6038 37.6416C83.5759 38.7278 83.7724 39.8081 84.1809 40.815C84.5893 41.8219 85.201 42.7338 85.9777 43.4937C86.7659 44.2761 87.7051 44.8901 88.738 45.2982C89.7709 45.7063 90.8761 45.9001 91.9863 45.8676C92.9996 45.8817 94.0042 45.6788 94.9327 45.2725C95.8611 44.8662 96.6918 44.266 97.3691 43.5121C98.8373 41.9697 99.6346 39.9085 99.5867 37.7796L99.5591 37.7704ZM99.8351 25.9741V14.7576H106.193V51.5633H99.8351V49.2722C97.4045 51.2643 94.3464 52.3304 91.2041 52.281C89.5178 52.293 87.8424 52.0096 86.2538 51.4437C84.7261 50.9029 83.3126 50.0822 82.0855 49.0237C80.4227 47.6169 79.0906 45.8606 78.1841 43.8801C77.282 41.9019 76.8205 39.7513 76.8315 37.5771C76.8334 35.5422 77.259 33.53 78.0812 31.6686C78.9034 29.8072 80.1042 28.1374 81.607 26.7654C82.8559 25.5645 84.3326 24.6259 85.9501 24.005C87.6181 23.381 89.3866 23.069 91.1673 23.0849C92.7775 23.0585 94.3811 23.2947 95.9153 23.7842C97.3323 24.2671 98.6485 25.0063 99.7983 25.9649L99.8351 25.9741ZM115.128 20.4533H111.567V14.7576H115.128V20.4901V20.4533ZM111.576 51.5449V23.7474H115.137V51.5449H111.576ZM142.695 28.1089C143.765 26.5477 145.211 25.2817 146.9 24.4283C148.647 23.5765 150.57 23.1479 152.513 23.1769C156.286 23.1769 159.028 24.3087 160.739 26.5722C162.451 28.8358 163.31 32.4795 163.316 37.5035V51.5449H159.902V36.8226C159.902 33.142 159.289 30.5288 158.062 28.983C156.856 27.4188 154.869 26.6458 152.136 26.6458C150.684 26.6166 149.248 26.9519 147.959 27.6212C146.766 28.2559 145.774 29.2122 145.097 30.3816C144.655 31.1925 144.345 32.0683 144.177 32.9764C143.95 34.6533 143.858 36.3456 143.901 38.0372V51.5449H140.542V35.9853C140.542 32.7832 139.892 30.4215 138.592 28.9002C137.303 27.3727 135.307 26.6182 132.638 26.6182C131.159 26.5864 129.696 26.9215 128.378 27.5936C127.175 28.2241 126.173 29.1808 125.489 30.354C125.031 31.1577 124.719 32.0363 124.569 32.9488C124.345 34.626 124.256 36.3183 124.302 38.0096V51.5449H120.796V23.7474H124.302V26.9127C125.322 25.7172 126.603 24.7726 128.047 24.1522C129.594 23.5096 131.258 23.1962 132.933 23.2321C134.938 23.1776 136.928 23.6101 138.73 24.4927C140.369 25.2955 141.745 26.5502 142.695 28.1089Z" fill="white"/>
<path d="M209.236 28.1368C209.114 28.1368 209.01 28.1003 208.925 28.0272C208.852 27.9419 208.815 27.8384 208.815 27.7166V16.9719H205.307C205.185 16.9719 205.081 16.9354 204.996 16.8623C204.923 16.777 204.887 16.6735 204.887 16.5516V15.7842C204.887 15.6502 204.923 15.5466 204.996 15.4735C205.081 15.3883 205.185 15.3456 205.307 15.3456H214.114C214.248 15.3456 214.352 15.3883 214.425 15.4735C214.51 15.5466 214.553 15.6502 214.553 15.7842V16.5516C214.553 16.6735 214.51 16.777 214.425 16.8623C214.352 16.9354 214.248 16.9719 214.114 16.9719H210.624V27.7166C210.624 27.8384 210.582 27.9419 210.496 28.0272C210.423 28.1003 210.32 28.1368 210.186 28.1368H209.236ZM218.398 28.3196C217.143 28.3196 216.144 27.9358 215.401 27.1684C214.658 26.3887 214.25 25.3289 214.177 23.9888C214.164 23.8305 214.158 23.6295 214.158 23.3858C214.158 23.13 214.164 22.9229 214.177 22.7645C214.225 21.8996 214.426 21.1443 214.78 20.4987C215.133 19.8408 215.614 19.3353 216.223 18.982C216.844 18.6287 217.569 18.4521 218.398 18.4521C219.324 18.4521 220.097 18.647 220.718 19.0368C221.352 19.4266 221.833 19.9809 222.162 20.6997C222.491 21.4184 222.655 22.259 222.655 23.2214V23.532C222.655 23.666 222.613 23.7696 222.527 23.8426C222.454 23.9157 222.357 23.9523 222.235 23.9523H215.913C215.913 23.9645 215.913 23.9888 215.913 24.0254C215.913 24.0619 215.913 24.0924 215.913 24.1167C215.937 24.6162 216.047 25.0852 216.241 25.5238C216.436 25.9501 216.717 26.2973 217.082 26.5653C217.447 26.8334 217.886 26.9674 218.398 26.9674C218.836 26.9674 219.202 26.9004 219.494 26.7664C219.786 26.6323 220.024 26.4862 220.207 26.3278C220.389 26.1572 220.511 26.0293 220.572 25.9441C220.682 25.7857 220.767 25.6943 220.828 25.67C220.889 25.6334 220.986 25.6151 221.12 25.6151H221.997C222.119 25.6151 222.217 25.6517 222.29 25.7248C222.375 25.7857 222.412 25.8771 222.4 25.9989C222.387 26.1816 222.29 26.407 222.107 26.675C221.924 26.9308 221.662 27.1866 221.321 27.4425C220.98 27.6983 220.566 27.9115 220.079 28.082C219.592 28.2404 219.031 28.3196 218.398 28.3196ZM215.913 22.6914H220.919V22.6366C220.919 22.0884 220.816 21.6011 220.609 21.1748C220.414 20.7484 220.128 20.4134 219.75 20.1697C219.372 19.9139 218.922 19.786 218.398 19.786C217.874 19.786 217.423 19.9139 217.045 20.1697C216.68 20.4134 216.4 20.7484 216.205 21.1748C216.01 21.6011 215.913 22.0884 215.913 22.6366V22.6914ZM233.157 28.3196C232.292 28.3196 231.543 28.1551 230.909 27.8262C230.288 27.4851 229.807 27.0039 229.466 26.3826C229.124 25.7491 228.942 24.9939 228.917 24.1167C228.905 23.934 228.899 23.6904 228.899 23.3858C228.899 23.0813 228.905 22.8376 228.917 22.6549C228.942 21.7778 229.124 21.0286 229.466 20.4073C229.807 19.7738 230.288 19.2926 230.909 18.9637C231.543 18.6226 232.292 18.4521 233.157 18.4521C233.863 18.4521 234.466 18.5495 234.966 18.7444C235.477 18.9393 235.898 19.1891 236.227 19.4936C236.556 19.7982 236.799 20.1271 236.958 20.4804C237.128 20.8337 237.219 21.1687 237.232 21.4854C237.244 21.6072 237.207 21.7047 237.122 21.7778C237.037 21.8509 236.933 21.8874 236.811 21.8874H235.934C235.812 21.8874 235.721 21.863 235.66 21.8143C235.599 21.7534 235.538 21.656 235.477 21.5219C235.258 20.925 234.96 20.5047 234.582 20.2611C234.204 20.0175 233.735 19.8956 233.175 19.8956C232.444 19.8956 231.847 20.121 231.384 20.5717C230.933 21.0225 230.69 21.7473 230.653 22.7463C230.641 23.1848 230.641 23.6112 230.653 24.0254C230.69 25.0365 230.933 25.7674 231.384 26.2182C231.847 26.6567 232.444 26.876 233.175 26.876C233.735 26.876 234.204 26.7542 234.582 26.5105C234.96 26.2669 235.258 25.8466 235.477 25.2497C235.538 25.1157 235.599 25.0243 235.66 24.9756C235.721 24.9147 235.812 24.8842 235.934 24.8842H236.811C236.933 24.8842 237.037 24.9208 237.122 24.9939C237.207 25.0669 237.244 25.1644 237.232 25.2862C237.219 25.542 237.165 25.804 237.067 26.072C236.97 26.34 236.811 26.6141 236.592 26.8943C236.385 27.1623 236.123 27.4059 235.806 27.6252C235.49 27.8323 235.106 28.0028 234.655 28.1368C234.217 28.2587 233.717 28.3196 233.157 28.3196ZM242.947 28.3196C242.167 28.3196 241.503 28.149 240.955 27.8079C240.419 27.4546 240.011 26.9674 239.731 26.3461C239.45 25.7248 239.31 25.0121 239.31 24.2081V19.0551C239.31 18.9332 239.347 18.8358 239.42 18.7627C239.505 18.6774 239.609 18.6348 239.731 18.6348H240.644C240.766 18.6348 240.864 18.6774 240.937 18.7627C241.022 18.8358 241.065 18.9332 241.065 19.0551V24.1167C241.065 25.9319 241.856 26.8394 243.44 26.8394C244.195 26.8394 244.798 26.6019 245.249 26.1268C245.712 25.6395 245.944 24.9695 245.944 24.1167V19.0551C245.944 18.9332 245.98 18.8358 246.053 18.7627C246.138 18.6774 246.242 18.6348 246.364 18.6348H247.259C247.393 18.6348 247.497 18.6774 247.57 18.7627C247.643 18.8358 247.679 18.9332 247.679 19.0551V27.7166C247.679 27.8384 247.643 27.9419 247.57 28.0272C247.497 28.1003 247.393 28.1368 247.259 28.1368H246.419C246.297 28.1368 246.193 28.1003 246.108 28.0272C246.035 27.9419 245.998 27.8384 245.998 27.7166V26.9125C245.669 27.3389 245.267 27.68 244.792 27.9358C244.329 28.1917 243.714 28.3196 242.947 28.3196ZM250.814 28.1368C250.693 28.1368 250.589 28.1003 250.504 28.0272C250.431 27.9419 250.394 27.8384 250.394 27.7166V19.0551C250.394 18.9332 250.431 18.8358 250.504 18.7627C250.589 18.6774 250.693 18.6348 250.814 18.6348H251.692C251.813 18.6348 251.911 18.6774 251.984 18.7627C252.057 18.8358 252.094 18.9332 252.094 19.0551V27.7166C252.094 27.8384 252.057 27.9419 251.984 28.0272C251.911 28.1003 251.813 28.1368 251.692 28.1368H250.814ZM250.668 16.8623C250.546 16.8623 250.443 16.8257 250.358 16.7526C250.285 16.6674 250.248 16.5638 250.248 16.442V15.4553C250.248 15.3334 250.285 15.236 250.358 15.1629C250.443 15.0776 250.546 15.035 250.668 15.035H251.819C251.941 15.035 252.039 15.0776 252.112 15.1629C252.197 15.236 252.24 15.3334 252.24 15.4553V16.442C252.24 16.5638 252.197 16.6674 252.112 16.7526C252.039 16.8257 251.941 16.8623 251.819 16.8623H250.668ZM258.292 28.3196C257.622 28.3196 257.043 28.2038 256.556 27.9724C256.068 27.7287 255.666 27.4059 255.35 27.0039C255.045 26.5897 254.814 26.1207 254.655 25.5969C254.509 25.073 254.424 24.5188 254.399 23.934C254.387 23.7391 254.381 23.5564 254.381 23.3858C254.381 23.2153 254.387 23.0325 254.399 22.8376C254.424 22.2651 254.509 21.7169 254.655 21.193C254.814 20.6692 255.045 20.2002 255.35 19.786C255.666 19.3718 256.068 19.049 256.556 18.8175C257.043 18.5739 257.622 18.4521 258.292 18.4521C259.01 18.4521 259.607 18.58 260.082 18.8358C260.557 19.0916 260.947 19.4084 261.252 19.786V15.5832C261.252 15.4613 261.288 15.3639 261.361 15.2908C261.447 15.2055 261.55 15.1629 261.672 15.1629H262.549C262.671 15.1629 262.769 15.2055 262.842 15.2908C262.927 15.3639 262.97 15.4613 262.97 15.5832V27.7166C262.97 27.8384 262.927 27.9419 262.842 28.0272C262.769 28.1003 262.671 28.1368 262.549 28.1368H261.727C261.593 28.1368 261.489 28.1003 261.416 28.0272C261.343 27.9419 261.307 27.8384 261.307 27.7166V26.9491C261.002 27.3389 260.606 27.6678 260.119 27.9358C259.632 28.1917 259.023 28.3196 258.292 28.3196ZM258.675 26.8394C259.284 26.8394 259.772 26.6994 260.137 26.4192C260.503 26.139 260.777 25.7857 260.959 25.3593C261.142 24.9208 261.24 24.4761 261.252 24.0254C261.264 23.8305 261.27 23.599 261.27 23.331C261.27 23.0508 261.264 22.8133 261.252 22.6183C261.24 22.192 261.136 21.7717 260.941 21.3575C260.758 20.9433 260.478 20.6022 260.101 20.3342C259.735 20.0662 259.26 19.9322 258.675 19.9322C258.054 19.9322 257.561 20.0723 257.195 20.3525C256.83 20.6205 256.568 20.9798 256.409 21.4306C256.251 21.8691 256.16 22.3442 256.135 22.8559C256.123 23.2092 256.123 23.5625 256.135 23.9157C256.16 24.4274 256.251 24.9086 256.409 25.3593C256.568 25.7979 256.83 26.1572 257.195 26.4374C257.561 26.7054 258.054 26.8394 258.675 26.8394ZM268.337 28.3196C267.728 28.3196 267.173 28.1978 266.674 27.9541C266.175 27.7105 265.773 27.3815 265.468 26.9674C265.163 26.5532 265.011 26.0842 265.011 25.5603C265.011 24.7198 265.352 24.0497 266.034 23.5503C266.717 23.0508 267.606 22.7219 268.702 22.5635L271.425 22.1798V21.6499C271.425 21.0651 271.254 20.6083 270.913 20.2794C270.584 19.9505 270.042 19.786 269.287 19.786C268.739 19.786 268.294 19.8956 267.953 20.1149C267.624 20.3342 267.393 20.6144 267.259 20.9555C267.186 21.1382 267.058 21.2296 266.875 21.2296H266.053C265.919 21.2296 265.815 21.193 265.742 21.1199C265.681 21.0347 265.651 20.9372 265.651 20.8276C265.651 20.6448 265.718 20.4195 265.852 20.1515C265.998 19.8835 266.217 19.6215 266.51 19.3657C266.802 19.1099 267.173 18.8967 267.624 18.7262C268.087 18.5434 268.648 18.4521 269.305 18.4521C270.036 18.4521 270.651 18.5495 271.151 18.7444C271.65 18.9272 272.04 19.1769 272.32 19.4936C272.613 19.8104 272.82 20.1697 272.942 20.5717C273.076 20.9738 273.143 21.3819 273.143 21.796V27.7166C273.143 27.8384 273.1 27.9419 273.015 28.0272C272.942 28.1003 272.844 28.1368 272.722 28.1368H271.882C271.748 28.1368 271.644 28.1003 271.571 28.0272C271.498 27.9419 271.462 27.8384 271.462 27.7166V26.9308C271.303 27.1501 271.09 27.3694 270.822 27.5886C270.554 27.7957 270.219 27.9724 269.817 28.1186C269.415 28.2526 268.922 28.3196 268.337 28.3196ZM268.721 26.9491C269.22 26.9491 269.677 26.8455 270.091 26.6384C270.505 26.4192 270.828 26.0842 271.06 25.6334C271.303 25.1827 271.425 24.6162 271.425 23.934V23.4224L269.305 23.733C268.44 23.8548 267.789 24.0619 267.35 24.3543C266.912 24.6345 266.692 24.9939 266.692 25.4324C266.692 25.7735 266.79 26.0598 266.985 26.2912C267.192 26.5105 267.448 26.675 267.752 26.7846C268.069 26.8943 268.392 26.9491 268.721 26.9491ZM276.19 28.1368C276.068 28.1368 275.965 28.1003 275.879 28.0272C275.806 27.9419 275.77 27.8384 275.77 27.7166V19.0551C275.77 18.9332 275.806 18.8358 275.879 18.7627C275.965 18.6774 276.068 18.6348 276.19 18.6348H277.012C277.134 18.6348 277.231 18.6774 277.305 18.7627C277.39 18.8358 277.432 18.9332 277.432 19.0551V19.6946C277.713 19.317 278.066 19.0185 278.492 18.7992C278.919 18.5678 279.43 18.4521 280.027 18.4521C281.404 18.4399 282.378 19.0002 282.951 20.1332C283.231 19.6215 283.639 19.2134 284.175 18.9089C284.711 18.6043 285.32 18.4521 286.003 18.4521C286.636 18.4521 287.209 18.5982 287.72 18.8906C288.244 19.183 288.652 19.6276 288.945 20.2246C289.249 20.8093 289.401 21.5463 289.401 22.4356V27.7166C289.401 27.8384 289.359 27.9419 289.274 28.0272C289.2 28.1003 289.103 28.1368 288.981 28.1368H288.122C288 28.1368 287.897 28.1003 287.812 28.0272C287.739 27.9419 287.702 27.8384 287.702 27.7166V22.6001C287.702 21.9179 287.605 21.3819 287.41 20.992C287.215 20.6022 286.953 20.3281 286.624 20.1697C286.295 20.0114 285.936 19.9322 285.546 19.9322C285.229 19.9322 284.906 20.0114 284.577 20.1697C284.248 20.3281 283.974 20.6022 283.755 20.992C283.548 21.3819 283.444 21.9179 283.444 22.6001V27.7166C283.444 27.8384 283.402 27.9419 283.316 28.0272C283.243 28.1003 283.146 28.1368 283.024 28.1368H282.165C282.043 28.1368 281.94 28.1003 281.855 28.0272C281.781 27.9419 281.745 27.8384 281.745 27.7166V22.6001C281.745 21.9179 281.641 21.3819 281.434 20.992C281.227 20.6022 280.959 20.3281 280.63 20.1697C280.301 20.0114 279.954 19.9322 279.589 19.9322C279.272 19.9322 278.949 20.0114 278.62 20.1697C278.291 20.3281 278.017 20.6022 277.798 20.992C277.591 21.3819 277.487 21.9118 277.487 22.5818V27.7166C277.487 27.8384 277.445 27.9419 277.359 28.0272C277.286 28.1003 277.189 28.1368 277.067 28.1368H276.19ZM295.901 28.3196C294.975 28.3196 294.201 28.1429 293.58 27.7897C292.959 27.4364 292.484 26.9491 292.155 26.3278C291.826 25.6943 291.643 24.9756 291.606 24.1716C291.594 23.9645 291.588 23.7025 291.588 23.3858C291.588 23.0569 291.594 22.795 291.606 22.6001C291.643 21.7839 291.826 21.0651 292.155 20.4438C292.496 19.8225 292.977 19.3353 293.598 18.982C294.22 18.6287 294.987 18.4521 295.901 18.4521C296.814 18.4521 297.582 18.6287 298.203 18.982C298.824 19.3353 299.299 19.8225 299.628 20.4438C299.969 21.0651 300.158 21.7839 300.195 22.6001C300.207 22.795 300.213 23.0569 300.213 23.3858C300.213 23.7025 300.207 23.9645 300.195 24.1716C300.158 24.9756 299.976 25.6943 299.647 26.3278C299.318 26.9491 298.843 27.4364 298.221 27.7897C297.6 28.1429 296.827 28.3196 295.901 28.3196ZM295.901 26.9125C296.656 26.9125 297.259 26.675 297.71 26.1999C298.16 25.7126 298.404 25.006 298.441 24.0802C298.453 23.8975 298.459 23.666 298.459 23.3858C298.459 23.1056 298.453 22.8742 298.441 22.6914C298.404 21.7656 298.16 21.0651 297.71 20.59C297.259 20.1027 296.656 19.8591 295.901 19.8591C295.145 19.8591 294.536 20.1027 294.073 20.59C293.623 21.0651 293.385 21.7656 293.361 22.6914C293.349 22.8742 293.342 23.1056 293.342 23.3858C293.342 23.666 293.349 23.8975 293.361 24.0802C293.385 25.006 293.623 25.7126 294.073 26.1999C294.536 26.675 295.145 26.9125 295.901 26.9125ZM305.79 28.3196C305.108 28.3196 304.524 28.2343 304.036 28.0637C303.549 27.8932 303.153 27.6861 302.848 27.4425C302.544 27.1988 302.312 26.9552 302.154 26.7115C302.008 26.4679 301.929 26.273 301.917 26.1268C301.904 25.9928 301.947 25.8892 302.044 25.8161C302.142 25.7431 302.239 25.7065 302.337 25.7065H303.141C303.214 25.7065 303.269 25.7187 303.305 25.7431C303.354 25.7552 303.415 25.804 303.488 25.8892C303.646 26.0598 303.823 26.2303 304.018 26.4009C304.213 26.5714 304.45 26.7115 304.731 26.8212C305.023 26.9308 305.382 26.9856 305.809 26.9856C306.43 26.9856 306.942 26.8699 307.344 26.6384C307.746 26.3948 307.947 26.0415 307.947 25.5786C307.947 25.274 307.861 25.0304 307.691 24.8477C307.533 24.6649 307.24 24.5005 306.814 24.3543C306.4 24.2081 305.827 24.0558 305.096 23.8975C304.365 23.7269 303.787 23.5198 303.36 23.2762C302.934 23.0203 302.629 22.7219 302.446 22.3808C302.264 22.0275 302.172 21.6316 302.172 21.193C302.172 20.7423 302.306 20.3098 302.574 19.8956C302.842 19.4693 303.232 19.1221 303.744 18.8541C304.268 18.5861 304.919 18.4521 305.699 18.4521C306.333 18.4521 306.875 18.5312 307.325 18.6896C307.776 18.848 308.148 19.049 308.44 19.2926C308.732 19.5241 308.952 19.7555 309.098 19.987C309.244 20.2185 309.323 20.4134 309.335 20.5717C309.348 20.6936 309.311 20.7971 309.226 20.8824C309.141 20.9555 309.043 20.992 308.933 20.992H308.166C308.081 20.992 308.008 20.9738 307.947 20.9372C307.898 20.9007 307.849 20.858 307.801 20.8093C307.679 20.6509 307.533 20.4926 307.362 20.3342C307.204 20.1758 306.99 20.0479 306.722 19.9505C306.467 19.8408 306.125 19.786 305.699 19.786C305.09 19.786 304.633 19.9139 304.329 20.1697C304.024 20.4256 303.872 20.7484 303.872 21.1382C303.872 21.3697 303.939 21.5768 304.073 21.7595C304.207 21.9422 304.463 22.1067 304.84 22.2529C305.218 22.3991 305.778 22.5574 306.521 22.728C307.325 22.8863 307.959 23.0995 308.422 23.3675C308.885 23.6355 309.214 23.9462 309.409 24.2995C309.603 24.6528 309.701 25.0609 309.701 25.5238C309.701 26.0354 309.549 26.5044 309.244 26.9308C308.952 27.3572 308.513 27.6983 307.928 27.9541C307.356 28.1978 306.643 28.3196 305.79 28.3196ZM316.734 28.1368C316.612 28.1368 316.509 28.1003 316.423 28.0272C316.35 27.9419 316.314 27.8384 316.314 27.7166V15.5832C316.314 15.4613 316.35 15.3639 316.423 15.2908C316.509 15.2055 316.612 15.1629 316.734 15.1629H317.648C317.782 15.1629 317.885 15.2055 317.958 15.2908C318.031 15.3639 318.068 15.4613 318.068 15.5832V19.8408C318.397 19.4266 318.799 19.0916 319.274 18.8358C319.749 18.58 320.352 18.4521 321.083 18.4521C321.875 18.4521 322.545 18.6287 323.093 18.982C323.653 19.3231 324.074 19.8043 324.354 20.4256C324.646 21.0347 324.792 21.7473 324.792 22.5635V27.7166C324.792 27.8384 324.756 27.9419 324.683 28.0272C324.61 28.1003 324.506 28.1368 324.372 28.1368H323.458C323.337 28.1368 323.233 28.1003 323.148 28.0272C323.075 27.9419 323.038 27.8384 323.038 27.7166V22.6549C323.038 21.8021 322.831 21.1382 322.417 20.6631C322.003 20.1758 321.394 19.9322 320.59 19.9322C319.834 19.9322 319.225 20.1758 318.762 20.6631C318.299 21.1382 318.068 21.8021 318.068 22.6549V27.7166C318.068 27.8384 318.031 27.9419 317.958 28.0272C317.885 28.1003 317.782 28.1368 317.648 28.1368H316.734ZM331.323 28.3196C330.397 28.3196 329.623 28.1429 329.002 27.7897C328.381 27.4364 327.906 26.9491 327.577 26.3278C327.248 25.6943 327.065 24.9756 327.029 24.1716C327.016 23.9645 327.01 23.7025 327.01 23.3858C327.01 23.0569 327.016 22.795 327.029 22.6001C327.065 21.7839 327.248 21.0651 327.577 20.4438C327.918 19.8225 328.399 19.3353 329.02 18.982C329.642 18.6287 330.409 18.4521 331.323 18.4521C332.236 18.4521 333.004 18.6287 333.625 18.982C334.247 19.3353 334.722 19.8225 335.051 20.4438C335.392 21.0651 335.58 21.7839 335.617 22.6001C335.629 22.795 335.635 23.0569 335.635 23.3858C335.635 23.7025 335.629 23.9645 335.617 24.1716C335.58 24.9756 335.398 25.6943 335.069 26.3278C334.74 26.9491 334.265 27.4364 333.643 27.7897C333.022 28.1429 332.249 28.3196 331.323 28.3196ZM331.323 26.9125C332.078 26.9125 332.681 26.675 333.132 26.1999C333.583 25.7126 333.826 25.006 333.863 24.0802C333.875 23.8975 333.881 23.666 333.881 23.3858C333.881 23.1056 333.875 22.8742 333.863 22.6914C333.826 21.7656 333.583 21.0651 333.132 20.59C332.681 20.1027 332.078 19.8591 331.323 19.8591C330.568 19.8591 329.958 20.1027 329.495 20.59C329.045 21.0651 328.807 21.7656 328.783 22.6914C328.771 22.8742 328.765 23.1056 328.765 23.3858C328.765 23.666 328.771 23.8975 328.783 24.0802C328.807 25.006 329.045 25.7126 329.495 26.1999C329.958 26.675 330.568 26.9125 331.323 26.9125ZM339.229 31.6087C339.132 31.6087 339.047 31.5722 338.974 31.4991C338.9 31.426 338.864 31.3407 338.864 31.2433C338.864 31.1946 338.87 31.1458 338.882 31.0971C338.894 31.0484 338.919 30.9875 338.955 30.9144L340.362 27.5704L336.872 19.3292C336.811 19.183 336.781 19.0794 336.781 19.0185C336.781 18.9089 336.817 18.8175 336.89 18.7444C336.964 18.6713 337.055 18.6348 337.165 18.6348H338.06C338.182 18.6348 338.279 18.6652 338.352 18.7262C338.425 18.7871 338.474 18.8602 338.498 18.9454L341.276 25.5969L344.127 18.9454C344.163 18.8602 344.212 18.7871 344.273 18.7262C344.346 18.6652 344.449 18.6348 344.583 18.6348H345.442C345.552 18.6348 345.643 18.6713 345.716 18.7444C345.789 18.8175 345.826 18.9028 345.826 19.0002C345.826 19.0612 345.796 19.1708 345.735 19.3292L340.545 31.2981C340.509 31.3834 340.454 31.4565 340.381 31.5174C340.32 31.5783 340.222 31.6087 340.088 31.6087H339.229ZM346.468 29.5073C346.371 29.5073 346.291 29.4708 346.231 29.3977C346.182 29.3246 346.164 29.2332 346.176 29.1236L346.596 26.5105C346.62 26.3643 346.669 26.2425 346.742 26.1451C346.827 26.0354 346.949 25.9806 347.108 25.9806H348.332C348.417 25.9806 348.484 26.0111 348.533 26.072C348.594 26.1329 348.624 26.206 348.624 26.2912C348.624 26.3887 348.6 26.4862 348.551 26.5836L347.601 29.087C347.552 29.2089 347.485 29.3063 347.4 29.3794C347.327 29.4647 347.217 29.5073 347.071 29.5073H346.468ZM359.463 28.3196C358.598 28.3196 357.849 28.1551 357.215 27.8262C356.594 27.4851 356.113 27.0039 355.772 26.3826C355.431 25.7491 355.248 24.9939 355.224 24.1167C355.211 23.934 355.205 23.6904 355.205 23.3858C355.205 23.0813 355.211 22.8376 355.224 22.6549C355.248 21.7778 355.431 21.0286 355.772 20.4073C356.113 19.7738 356.594 19.2926 357.215 18.9637C357.849 18.6226 358.598 18.4521 359.463 18.4521C360.169 18.4521 360.773 18.5495 361.272 18.7444C361.784 18.9393 362.204 19.1891 362.533 19.4936C362.862 19.7982 363.105 20.1271 363.264 20.4804C363.434 20.8337 363.526 21.1687 363.538 21.4854C363.55 21.6072 363.513 21.7047 363.428 21.7778C363.343 21.8509 363.239 21.8874 363.118 21.8874H362.24C362.119 21.8874 362.027 21.863 361.966 21.8143C361.905 21.7534 361.845 21.656 361.784 21.5219C361.564 20.925 361.266 20.5047 360.888 20.2611C360.511 20.0175 360.042 19.8956 359.481 19.8956C358.75 19.8956 358.153 20.121 357.69 20.5717C357.24 21.0225 356.996 21.7473 356.96 22.7463C356.947 23.1848 356.947 23.6112 356.96 24.0254C356.996 25.0365 357.24 25.7674 357.69 26.2182C358.153 26.6567 358.75 26.876 359.481 26.876C360.042 26.876 360.511 26.7542 360.888 26.5105C361.266 26.2669 361.564 25.8466 361.784 25.2497C361.845 25.1157 361.905 25.0243 361.966 24.9756C362.027 24.9147 362.119 24.8842 362.24 24.8842H363.118C363.239 24.8842 363.343 24.9208 363.428 24.9939C363.513 25.0669 363.55 25.1644 363.538 25.2862C363.526 25.542 363.471 25.804 363.373 26.072C363.276 26.34 363.118 26.6141 362.898 26.8943C362.691 27.1623 362.429 27.4059 362.113 27.6252C361.796 27.8323 361.412 28.0028 360.961 28.1368C360.523 28.2587 360.023 28.3196 359.463 28.3196ZM369.6 28.3196C368.674 28.3196 367.901 28.1429 367.279 27.7897C366.658 27.4364 366.183 26.9491 365.854 26.3278C365.525 25.6943 365.342 24.9756 365.306 24.1716C365.294 23.9645 365.288 23.7025 365.288 23.3858C365.288 23.0569 365.294 22.795 365.306 22.6001C365.342 21.7839 365.525 21.0651 365.854 20.4438C366.195 19.8225 366.676 19.3353 367.298 18.982C367.919 18.6287 368.686 18.4521 369.6 18.4521C370.514 18.4521 371.281 18.6287 371.903 18.982C372.524 19.3353 372.999 19.8225 373.328 20.4438C373.669 21.0651 373.858 21.7839 373.894 22.6001C373.906 22.795 373.913 23.0569 373.913 23.3858C373.913 23.7025 373.906 23.9645 373.894 24.1716C373.858 24.9756 373.675 25.6943 373.346 26.3278C373.017 26.9491 372.542 27.4364 371.921 27.7897C371.3 28.1429 370.526 28.3196 369.6 28.3196ZM369.6 26.9125C370.355 26.9125 370.958 26.675 371.409 26.1999C371.86 25.7126 372.104 25.006 372.14 24.0802C372.152 23.8975 372.158 23.666 372.158 23.3858C372.158 23.1056 372.152 22.8742 372.14 22.6914C372.104 21.7656 371.86 21.0651 371.409 20.59C370.958 20.1027 370.355 19.8591 369.6 19.8591C368.845 19.8591 368.236 20.1027 367.773 20.59C367.322 21.0651 367.085 21.7656 367.06 22.6914C367.048 22.8742 367.042 23.1056 367.042 23.3858C367.042 23.666 367.048 23.8975 367.06 24.0802C367.085 25.006 367.322 25.7126 367.773 26.1999C368.236 26.675 368.845 26.9125 369.6 26.9125ZM376.621 28.1368C376.499 28.1368 376.396 28.1003 376.31 28.0272C376.237 27.9419 376.201 27.8384 376.201 27.7166V19.0551C376.201 18.9332 376.237 18.8358 376.31 18.7627C376.396 18.6774 376.499 18.6348 376.621 18.6348H377.48C377.602 18.6348 377.699 18.6774 377.772 18.7627C377.858 18.8358 377.9 18.9332 377.9 19.0551V19.8591C378.217 19.4449 378.613 19.1099 379.088 18.8541C379.575 18.5861 380.196 18.4521 380.952 18.4521C381.744 18.4521 382.414 18.6287 382.962 18.982C383.522 19.3231 383.942 19.8043 384.223 20.4256C384.503 21.0347 384.643 21.7473 384.643 22.5635V27.7166C384.643 27.8384 384.606 27.9419 384.533 28.0272C384.46 28.1003 384.363 28.1368 384.241 28.1368H383.327C383.205 28.1368 383.102 28.1003 383.017 28.0272C382.944 27.9419 382.907 27.8384 382.907 27.7166V22.6549C382.907 21.8021 382.7 21.1382 382.286 20.6631C381.872 20.1758 381.262 19.9322 380.458 19.9322C379.703 19.9322 379.094 20.1758 378.631 20.6631C378.18 21.1382 377.955 21.8021 377.955 22.6549V27.7166C377.955 27.8384 377.912 27.9419 377.827 28.0272C377.754 28.1003 377.657 28.1368 377.535 28.1368H376.621ZM392.2 28.1368C392.078 28.1368 391.975 28.1003 391.889 28.0272C391.816 27.9419 391.78 27.8384 391.78 27.7166V15.5832C391.78 15.4613 391.816 15.3639 391.889 15.2908C391.975 15.2055 392.078 15.1629 392.2 15.1629H393.059C393.193 15.1629 393.296 15.2055 393.37 15.2908C393.443 15.3639 393.479 15.4613 393.479 15.5832V27.7166C393.479 27.8384 393.443 27.9419 393.37 28.0272C393.296 28.1003 393.193 28.1368 393.059 28.1368H392.2ZM398.854 28.3196C398.245 28.3196 397.691 28.1978 397.192 27.9541C396.692 27.7105 396.29 27.3815 395.986 26.9674C395.681 26.5532 395.529 26.0842 395.529 25.5603C395.529 24.7198 395.87 24.0497 396.552 23.5503C397.234 23.0508 398.124 22.7219 399.22 22.5635L401.943 22.1798V21.6499C401.943 21.0651 401.772 20.6083 401.431 20.2794C401.102 19.9505 400.56 19.786 399.805 19.786C399.256 19.786 398.812 19.8956 398.471 20.1149C398.142 20.3342 397.91 20.6144 397.776 20.9555C397.703 21.1382 397.575 21.2296 397.393 21.2296H396.57C396.436 21.2296 396.333 21.193 396.26 21.1199C396.199 21.0347 396.168 20.9372 396.168 20.8276C396.168 20.6448 396.235 20.4195 396.369 20.1515C396.516 19.8835 396.735 19.6215 397.027 19.3657C397.32 19.1099 397.691 18.8967 398.142 18.7262C398.605 18.5434 399.165 18.4521 399.823 18.4521C400.554 18.4521 401.169 18.5495 401.669 18.7444C402.168 18.9272 402.558 19.1769 402.838 19.4936C403.13 19.8104 403.338 20.1697 403.459 20.5717C403.593 20.9738 403.66 21.3819 403.66 21.796V27.7166C403.66 27.8384 403.618 27.9419 403.532 28.0272C403.459 28.1003 403.362 28.1368 403.24 28.1368H402.399C402.265 28.1368 402.162 28.1003 402.089 28.0272C402.016 27.9419 401.979 27.8384 401.979 27.7166V26.9308C401.821 27.1501 401.608 27.3694 401.34 27.5886C401.072 27.7957 400.737 27.9724 400.335 28.1186C399.933 28.2526 399.439 28.3196 398.854 28.3196ZM399.238 26.9491C399.738 26.9491 400.195 26.8455 400.609 26.6384C401.023 26.4192 401.346 26.0842 401.577 25.6334C401.821 25.1827 401.943 24.6162 401.943 23.934V23.4224L399.823 23.733C398.958 23.8548 398.306 24.0619 397.868 24.3543C397.429 24.6345 397.21 24.9939 397.21 25.4324C397.21 25.7735 397.307 26.0598 397.502 26.2912C397.709 26.5105 397.965 26.675 398.27 26.7846C398.586 26.8943 398.909 26.9491 399.238 26.9491ZM210.368 55.1368C209.589 55.1368 208.913 55.015 208.34 54.7714C207.78 54.5156 207.347 54.1257 207.043 53.6019C206.738 53.0659 206.586 52.3776 206.586 51.537V48.0286H205.161C205.027 48.0286 204.911 47.9859 204.813 47.9007C204.728 47.8154 204.686 47.7057 204.686 47.5717V46.0916C204.686 45.9576 204.728 45.848 204.813 45.7627C204.911 45.6774 205.027 45.6348 205.161 45.6348H206.586V42.6197C206.586 42.4857 206.629 42.3761 206.714 42.2908C206.811 42.2055 206.921 42.1629 207.043 42.1629H209.162C209.296 42.1629 209.406 42.2055 209.491 42.2908C209.577 42.3761 209.619 42.4857 209.619 42.6197V45.6348H211.903C212.037 45.6348 212.147 45.6774 212.232 45.7627C212.318 45.848 212.36 45.9576 212.36 46.0916V47.5717C212.36 47.7057 212.318 47.8154 212.232 47.9007C212.147 47.9859 212.037 48.0286 211.903 48.0286H209.619V51.2812C209.619 51.6954 209.698 52.0243 209.857 52.268C210.015 52.5116 210.283 52.6334 210.661 52.6334H212.068C212.202 52.6334 212.312 52.6761 212.397 52.7613C212.482 52.8466 212.525 52.9562 212.525 53.0902V54.68C212.525 54.814 212.482 54.9237 212.397 55.0089C212.312 55.0942 212.202 55.1368 212.068 55.1368H210.368ZM218.423 55.3196C216.986 55.3196 215.841 54.9297 214.988 54.1501C214.135 53.3704 213.69 52.2131 213.654 50.6782C213.654 50.5929 213.654 50.4833 213.654 50.3493C213.654 50.2153 213.654 50.1117 213.654 50.0386C213.69 49.0762 213.904 48.2539 214.293 47.5717C214.696 46.8774 215.244 46.3535 215.938 46.0002C216.645 45.6348 217.467 45.4521 218.405 45.4521C219.477 45.4521 220.36 45.6652 221.055 46.0916C221.761 46.518 222.291 47.0966 222.644 47.8276C222.998 48.5585 223.174 49.393 223.174 50.331V50.7696C223.174 50.9036 223.126 51.0132 223.028 51.0985C222.943 51.1837 222.839 51.2264 222.717 51.2264H216.87C216.87 51.2386 216.87 51.2568 216.87 51.2812C216.87 51.3056 216.87 51.3299 216.87 51.3543C216.882 51.7076 216.943 52.0304 217.053 52.3228C217.162 52.6151 217.333 52.8466 217.564 53.0172C217.796 53.1877 218.076 53.273 218.405 53.273C218.649 53.273 218.85 53.2364 219.008 53.1633C219.179 53.0781 219.319 52.9867 219.428 52.8892C219.538 52.7796 219.623 52.6882 219.684 52.6151C219.794 52.4933 219.879 52.4202 219.94 52.3959C220.013 52.3593 220.123 52.341 220.269 52.341H222.535C222.657 52.341 222.754 52.3776 222.827 52.4507C222.912 52.5116 222.949 52.603 222.937 52.7248C222.925 52.9319 222.821 53.1816 222.626 53.474C222.431 53.7664 222.145 54.0587 221.767 54.3511C221.402 54.6313 220.939 54.8627 220.378 55.0455C219.818 55.2282 219.166 55.3196 218.423 55.3196ZM216.87 49.4173H219.958V49.3808C219.958 48.991 219.897 48.6499 219.775 48.3575C219.666 48.0651 219.489 47.8397 219.246 47.6814C219.014 47.523 218.734 47.4438 218.405 47.4438C218.076 47.4438 217.796 47.523 217.564 47.6814C217.345 47.8397 217.175 48.0651 217.053 48.3575C216.931 48.6499 216.87 48.991 216.87 49.3808V49.4173ZM229.255 55.3196C228.353 55.3196 227.555 55.1551 226.861 54.8262C226.166 54.4973 225.612 54.0222 225.198 53.4009C224.796 52.7674 224.577 52.0121 224.54 51.135C224.528 50.9401 224.522 50.6965 224.522 50.4041C224.522 50.0995 224.528 49.8498 224.54 49.6549C224.577 48.7656 224.796 48.0103 225.198 47.389C225.6 46.7555 226.148 46.2743 226.843 45.9454C227.549 45.6165 228.353 45.4521 229.255 45.4521C230.095 45.4521 230.814 45.5739 231.411 45.8175C232.008 46.049 232.495 46.3413 232.873 46.6946C233.25 47.0479 233.531 47.4134 233.713 47.791C233.908 48.1565 234.012 48.4793 234.024 48.7595C234.036 48.8813 233.994 48.991 233.896 49.0884C233.799 49.1737 233.689 49.2163 233.567 49.2163H231.246C231.112 49.2163 231.009 49.1859 230.936 49.125C230.863 49.0641 230.796 48.9727 230.735 48.8509C230.589 48.4732 230.4 48.2052 230.168 48.0468C229.949 47.8885 229.663 47.8093 229.309 47.8093C228.822 47.8093 228.445 47.9677 228.177 48.2844C227.921 48.6011 227.781 49.0884 227.756 49.7463C227.744 50.2335 227.744 50.666 227.756 51.0436C227.781 51.7137 227.921 52.2009 228.177 52.5055C228.445 52.8101 228.822 52.9623 229.309 52.9623C229.687 52.9623 229.986 52.8831 230.205 52.7248C230.424 52.5664 230.601 52.2984 230.735 51.9208C230.796 51.7989 230.863 51.7076 230.936 51.6467C231.009 51.5858 231.112 51.5553 231.246 51.5553H233.567C233.689 51.5553 233.799 51.604 233.896 51.7015C233.994 51.7868 234.036 51.8903 234.024 52.0121C234.012 52.2192 233.951 52.4629 233.841 52.7431C233.732 53.0111 233.561 53.2973 233.33 53.6019C233.098 53.9064 232.794 54.1927 232.416 54.4607C232.05 54.7166 231.606 54.9237 231.082 55.082C230.558 55.2404 229.949 55.3196 229.255 55.3196ZM236.123 55.1368C235.989 55.1368 235.879 55.0942 235.794 55.0089C235.708 54.9237 235.666 54.814 235.666 54.68V46.0916C235.666 45.9576 235.708 45.848 235.794 45.7627C235.879 45.6774 235.989 45.6348 236.123 45.6348H238.224C238.358 45.6348 238.468 45.6774 238.553 45.7627C238.638 45.848 238.681 45.9576 238.681 46.0916V46.786C238.998 46.4084 239.412 46.0916 239.923 45.8358C240.435 45.58 241.038 45.4521 241.732 45.4521C242.439 45.4521 243.06 45.6104 243.596 45.9272C244.144 46.2439 244.571 46.7129 244.875 47.3342C245.192 47.9433 245.35 48.6925 245.35 49.5818V54.68C245.35 54.814 245.302 54.9237 245.204 55.0089C245.119 55.0942 245.015 55.1368 244.894 55.1368H242.591C242.469 55.1368 242.36 55.0942 242.262 55.0089C242.177 54.9237 242.134 54.814 242.134 54.68V49.6914C242.134 49.1189 241.994 48.6803 241.714 48.3758C241.446 48.059 241.044 47.9007 240.508 47.9007C240.009 47.9007 239.607 48.059 239.302 48.3758C239.01 48.6803 238.864 49.1189 238.864 49.6914V54.68C238.864 54.814 238.815 54.9237 238.717 55.0089C238.632 55.0942 238.528 55.1368 238.407 55.1368H236.123ZM251.885 55.3196C250.862 55.3196 249.997 55.1551 249.29 54.8262C248.596 54.4973 248.06 54.0283 247.682 53.4192C247.317 52.7979 247.11 52.0609 247.061 51.2081C247.049 50.9645 247.043 50.6904 247.043 50.3858C247.043 50.0691 247.049 49.795 247.061 49.5635C247.11 48.6986 247.329 47.9616 247.719 47.3525C248.109 46.7434 248.651 46.2743 249.345 45.9454C250.052 45.6165 250.898 45.4521 251.885 45.4521C252.884 45.4521 253.731 45.6165 254.425 45.9454C255.132 46.2743 255.68 46.7434 256.07 47.3525C256.459 47.9616 256.679 48.6986 256.727 49.5635C256.74 49.795 256.746 50.0691 256.746 50.3858C256.746 50.6904 256.74 50.9645 256.727 51.2081C256.679 52.0609 256.465 52.7979 256.088 53.4192C255.722 54.0283 255.186 54.4973 254.48 54.8262C253.785 55.1551 252.92 55.3196 251.885 55.3196ZM251.885 53.0902C252.433 53.0902 252.829 52.9258 253.073 52.5969C253.329 52.268 253.475 51.7746 253.511 51.1167C253.523 50.934 253.53 50.6904 253.53 50.3858C253.53 50.0813 253.523 49.8376 253.511 49.6549C253.475 49.0092 253.329 48.5219 253.073 48.193C252.829 47.8519 252.433 47.6814 251.885 47.6814C251.349 47.6814 250.953 47.8519 250.697 48.193C250.441 48.5219 250.301 49.0092 250.277 49.6549C250.265 49.8376 250.259 50.0813 250.259 50.3858C250.259 50.6904 250.265 50.934 250.277 51.1167C250.301 51.7746 250.441 52.268 250.697 52.5969C250.953 52.9258 251.349 53.0902 251.885 53.0902ZM259 55.1368C258.866 55.1368 258.756 55.0942 258.671 55.0089C258.585 54.9237 258.543 54.814 258.543 54.68V42.6197C258.543 42.4857 258.585 42.3761 258.671 42.2908C258.756 42.2055 258.866 42.1629 259 42.1629H261.156C261.29 42.1629 261.4 42.2055 261.485 42.2908C261.57 42.3761 261.613 42.4857 261.613 42.6197V54.68C261.613 54.814 261.57 54.9237 261.485 55.0089C261.4 55.0942 261.29 55.1368 261.156 55.1368H259ZM268.267 55.3196C267.243 55.3196 266.378 55.1551 265.672 54.8262C264.977 54.4973 264.441 54.0283 264.064 53.4192C263.698 52.7979 263.491 52.0609 263.442 51.2081C263.43 50.9645 263.424 50.6904 263.424 50.3858C263.424 50.0691 263.43 49.795 263.442 49.5635C263.491 48.6986 263.711 47.9616 264.1 47.3525C264.49 46.7434 265.032 46.2743 265.727 45.9454C266.433 45.6165 267.28 45.4521 268.267 45.4521C269.266 45.4521 270.112 45.6165 270.807 45.9454C271.513 46.2743 272.061 46.7434 272.451 47.3525C272.841 47.9616 273.06 48.6986 273.109 49.5635C273.121 49.795 273.127 50.0691 273.127 50.3858C273.127 50.6904 273.121 50.9645 273.109 51.2081C273.06 52.0609 272.847 52.7979 272.469 53.4192C272.104 54.0283 271.568 54.4973 270.861 54.8262C270.167 55.1551 269.302 55.3196 268.267 55.3196ZM268.267 53.0902C268.815 53.0902 269.211 52.9258 269.454 52.5969C269.71 52.268 269.856 51.7746 269.893 51.1167C269.905 50.934 269.911 50.6904 269.911 50.3858C269.911 50.0813 269.905 49.8376 269.893 49.6549C269.856 49.0092 269.71 48.5219 269.454 48.193C269.211 47.8519 268.815 47.6814 268.267 47.6814C267.731 47.6814 267.335 47.8519 267.079 48.193C266.823 48.5219 266.683 49.0092 266.659 49.6549C266.646 49.8376 266.64 50.0813 266.64 50.3858C266.64 50.6904 266.646 50.934 266.659 51.1167C266.683 51.7746 266.823 52.268 267.079 52.5969C267.335 52.9258 267.731 53.0902 268.267 53.0902ZM279.584 59.1569C278.646 59.1569 277.866 59.0351 277.245 58.7915C276.636 58.5478 276.149 58.2555 275.783 57.9144C275.43 57.5733 275.174 57.2322 275.016 56.8911C274.857 56.5621 274.772 56.3002 274.76 56.1053C274.748 55.9713 274.79 55.8617 274.888 55.7764C274.985 55.6911 275.101 55.6485 275.235 55.6485H277.556C277.665 55.6485 277.757 55.6729 277.83 55.7216C277.915 55.7825 277.982 55.88 278.031 56.014C278.092 56.148 278.171 56.2881 278.268 56.4342C278.378 56.5804 278.524 56.6962 278.707 56.7814C278.902 56.8789 279.164 56.9276 279.493 56.9276C279.858 56.9276 280.163 56.8667 280.406 56.7449C280.65 56.6352 280.833 56.4464 280.955 56.1784C281.076 55.9226 281.137 55.5754 281.137 55.1368V53.9125C280.857 54.2171 280.498 54.4668 280.059 54.6617C279.621 54.8445 279.091 54.9358 278.469 54.9358C277.848 54.9358 277.3 54.8445 276.825 54.6617C276.35 54.479 275.954 54.2049 275.637 53.8394C275.32 53.474 275.071 53.0293 274.888 52.5055C274.717 51.9817 274.614 51.3787 274.577 50.6965C274.565 50.3797 274.565 50.063 274.577 49.7463C274.614 49.0884 274.717 48.4976 274.888 47.9738C275.058 47.4499 275.302 46.9992 275.619 46.6215C275.948 46.2439 276.35 45.9576 276.825 45.7627C277.3 45.5556 277.848 45.4521 278.469 45.4521C279.127 45.4521 279.688 45.58 280.151 45.8358C280.626 46.0794 281.016 46.3901 281.32 46.7677V46.0916C281.32 45.9698 281.363 45.8662 281.448 45.781C281.533 45.6835 281.643 45.6348 281.777 45.6348H283.878C284.012 45.6348 284.122 45.6835 284.207 45.781C284.305 45.8662 284.353 45.9698 284.353 46.0916V54.881C284.353 55.8069 284.165 56.5865 283.787 57.22C283.409 57.8535 282.867 58.3346 282.161 58.6636C281.454 58.9925 280.595 59.1569 279.584 59.1569ZM279.456 52.5603C279.846 52.5603 280.163 52.475 280.406 52.3045C280.65 52.1339 280.827 51.9147 280.936 51.6467C281.058 51.3787 281.125 51.0924 281.137 50.7878C281.15 50.6538 281.156 50.465 281.156 50.2214C281.156 49.9777 281.15 49.795 281.137 49.6732C281.125 49.3564 281.058 49.0641 280.936 48.796C280.827 48.528 280.65 48.3149 280.406 48.1565C280.163 47.9859 279.846 47.9007 279.456 47.9007C279.054 47.9007 278.731 47.9859 278.488 48.1565C278.256 48.327 278.086 48.5585 277.976 48.8509C277.879 49.1432 277.818 49.4661 277.793 49.8193C277.781 50.0874 277.781 50.3614 277.793 50.6416C277.818 50.9949 277.879 51.3177 277.976 51.6101C278.086 51.9025 278.256 52.1339 278.488 52.3045C278.731 52.475 279.054 52.5603 279.456 52.5603ZM286.963 55.1368C286.829 55.1368 286.719 55.0942 286.634 55.0089C286.548 54.9237 286.506 54.814 286.506 54.68V46.0916C286.506 45.9576 286.548 45.848 286.634 45.7627C286.719 45.6774 286.829 45.6348 286.963 45.6348H289.119C289.241 45.6348 289.344 45.6774 289.43 45.7627C289.527 45.848 289.576 45.9576 289.576 46.0916V54.68C289.576 54.814 289.527 54.9237 289.43 55.0089C289.344 55.0942 289.241 55.1368 289.119 55.1368H286.963ZM286.981 44.2643C286.786 44.2643 286.689 44.1668 286.689 43.9719C286.689 43.8745 286.719 43.7953 286.78 43.7344L288.388 41.7791C288.51 41.633 288.613 41.5416 288.699 41.505C288.784 41.4563 288.906 41.432 289.064 41.432H291.458C291.689 41.432 291.805 41.5538 291.805 41.7974C291.805 41.8827 291.775 41.9558 291.714 42.0167L289.302 44.0085C289.204 44.0937 289.107 44.1607 289.009 44.2095C288.912 44.246 288.778 44.2643 288.607 44.2643H286.981ZM294.567 55.3196C293.909 55.3196 293.318 55.1978 292.795 54.9541C292.283 54.6983 291.875 54.3572 291.57 53.9308C291.266 53.5044 291.114 53.0232 291.114 52.4872C291.114 51.6223 291.467 50.9401 292.173 50.4406C292.88 49.929 293.818 49.5818 294.987 49.3991L297.272 49.0519V48.796C297.272 48.3575 297.18 48.0225 296.997 47.791C296.815 47.5596 296.48 47.4438 295.992 47.4438C295.651 47.4438 295.371 47.5108 295.152 47.6448C294.945 47.7788 294.78 47.9616 294.659 48.193C294.549 48.3514 294.397 48.4306 294.202 48.4306H292.155C292.021 48.4306 291.918 48.394 291.844 48.3209C291.771 48.2357 291.741 48.1382 291.753 48.0286C291.753 47.8093 291.832 47.5596 291.991 47.2794C292.161 46.987 292.417 46.7007 292.758 46.4205C293.099 46.1403 293.538 45.9089 294.074 45.7262C294.61 45.5434 295.255 45.4521 296.011 45.4521C296.803 45.4521 297.479 45.5434 298.039 45.7262C298.599 45.9089 299.05 46.1647 299.391 46.4936C299.745 46.8225 300.006 47.2124 300.177 47.6631C300.348 48.1017 300.433 48.589 300.433 49.125V54.68C300.433 54.814 300.384 54.9237 300.287 55.0089C300.201 55.0942 300.098 55.1368 299.976 55.1368H297.856C297.722 55.1368 297.613 55.0942 297.527 55.0089C297.442 54.9237 297.399 54.814 297.399 54.68V54.0404C297.241 54.2719 297.028 54.4851 296.76 54.68C296.492 54.8749 296.175 55.0272 295.81 55.1368C295.456 55.2587 295.042 55.3196 294.567 55.3196ZM295.426 53.2364C295.779 53.2364 296.096 53.1633 296.376 53.0172C296.669 52.8588 296.894 52.6212 297.052 52.3045C297.223 51.9756 297.308 51.5675 297.308 51.0802V50.8244L295.755 51.0985C295.182 51.1959 294.762 51.3482 294.494 51.5553C294.238 51.7502 294.11 51.9817 294.11 52.2497C294.11 52.4568 294.171 52.6334 294.293 52.7796C294.415 52.9258 294.573 53.0415 294.768 53.1268C294.963 53.1999 295.182 53.2364 295.426 53.2364ZM309.93 55.3196C309.345 55.3196 308.815 55.2282 308.34 55.0455C307.877 54.8506 307.475 54.5704 307.134 54.2049C306.805 53.8273 306.55 53.3765 306.367 52.8527C306.184 52.3167 306.08 51.7076 306.056 51.0254C306.044 50.7817 306.038 50.5685 306.038 50.3858C306.038 50.1909 306.044 49.9777 306.056 49.7463C306.08 49.0884 306.184 48.4976 306.367 47.9738C306.55 47.4499 306.805 46.9992 307.134 46.6215C307.463 46.2439 307.865 45.9576 308.34 45.7627C308.815 45.5556 309.345 45.4521 309.93 45.4521C310.539 45.4521 311.063 45.5556 311.502 45.7627C311.94 45.9576 312.312 46.2134 312.616 46.5302V42.6197C312.616 42.4857 312.659 42.3761 312.744 42.2908C312.829 42.2055 312.939 42.1629 313.073 42.1629H315.302C315.424 42.1629 315.528 42.2055 315.613 42.2908C315.71 42.3761 315.759 42.4857 315.759 42.6197V54.68C315.759 54.814 315.71 54.9237 315.613 55.0089C315.528 55.0942 315.424 55.1368 315.302 55.1368H313.237C313.103 55.1368 312.994 55.0942 312.909 55.0089C312.823 54.9237 312.781 54.814 312.781 54.68V54.0953C312.488 54.4486 312.111 54.7409 311.648 54.9724C311.185 55.2038 310.612 55.3196 309.93 55.3196ZM310.917 52.871C311.331 52.871 311.654 52.7857 311.885 52.6151C312.129 52.4324 312.306 52.2009 312.415 51.9208C312.537 51.6406 312.604 51.336 312.616 51.0071C312.628 50.7635 312.634 50.532 312.634 50.3127C312.634 50.0934 312.628 49.8681 312.616 49.6366C312.604 49.3321 312.537 49.0519 312.415 48.796C312.293 48.528 312.111 48.3149 311.867 48.1565C311.623 47.9859 311.307 47.9007 310.917 47.9007C310.515 47.9007 310.192 47.9859 309.948 48.1565C309.717 48.327 309.552 48.5585 309.455 48.8509C309.357 49.1432 309.297 49.4661 309.272 49.8193C309.236 50.197 309.236 50.5746 309.272 50.9523C309.297 51.3056 309.357 51.6284 309.455 51.9208C309.552 52.2131 309.717 52.4446 309.948 52.6151C310.192 52.7857 310.515 52.871 310.917 52.871ZM322.298 55.3196C320.861 55.3196 319.716 54.9297 318.863 54.1501C318.01 53.3704 317.566 52.2131 317.529 50.6782C317.529 50.5929 317.529 50.4833 317.529 50.3493C317.529 50.2153 317.529 50.1117 317.529 50.0386C317.566 49.0762 317.779 48.2539 318.169 47.5717C318.571 46.8774 319.119 46.3535 319.813 46.0002C320.52 45.6348 321.342 45.4521 322.28 45.4521C323.352 45.4521 324.235 45.6652 324.93 46.0916C325.636 46.518 326.166 47.0966 326.52 47.8276C326.873 48.5585 327.049 49.393 327.049 50.331V50.7696C327.049 50.9036 327.001 51.0132 326.903 51.0985C326.818 51.1837 326.714 51.2264 326.593 51.2264H320.745C320.745 51.2386 320.745 51.2568 320.745 51.2812C320.745 51.3056 320.745 51.3299 320.745 51.3543C320.757 51.7076 320.818 52.0304 320.928 52.3228C321.038 52.6151 321.208 52.8466 321.44 53.0172C321.671 53.1877 321.951 53.273 322.28 53.273C322.524 53.273 322.725 53.2364 322.883 53.1633C323.054 53.0781 323.194 52.9867 323.303 52.8892C323.413 52.7796 323.498 52.6882 323.559 52.6151C323.669 52.4933 323.754 52.4202 323.815 52.3959C323.888 52.3593 323.998 52.341 324.144 52.341H326.41C326.532 52.341 326.629 52.3776 326.702 52.4507C326.788 52.5116 326.824 52.603 326.812 52.7248C326.8 52.9319 326.696 53.1816 326.501 53.474C326.306 53.7664 326.02 54.0587 325.642 54.3511C325.277 54.6313 324.814 54.8627 324.254 55.0455C323.693 55.2282 323.042 55.3196 322.298 55.3196ZM320.745 49.4173H323.833V49.3808C323.833 48.991 323.772 48.6499 323.651 48.3575C323.541 48.0651 323.364 47.8397 323.121 47.6814C322.889 47.523 322.609 47.4438 322.28 47.4438C321.951 47.4438 321.671 47.523 321.44 47.6814C321.22 47.8397 321.05 48.0651 320.928 48.3575C320.806 48.6499 320.745 48.991 320.745 49.3808V49.4173ZM329.219 55.1368C329.085 55.1368 328.976 55.0942 328.89 55.0089C328.805 54.9237 328.763 54.814 328.763 54.68V42.6197C328.763 42.4857 328.805 42.3761 328.89 42.2908C328.976 42.2055 329.085 42.1629 329.219 42.1629H331.376C331.51 42.1629 331.619 42.2055 331.705 42.2908C331.79 42.3761 331.832 42.4857 331.832 42.6197V54.68C331.832 54.814 331.79 54.9237 331.705 55.0089C331.619 55.0942 331.51 55.1368 331.376 55.1368H329.219ZM338.338 55.1368C338.204 55.1368 338.094 55.0942 338.009 55.0089C337.924 54.9237 337.881 54.814 337.881 54.68V46.0916C337.881 45.9576 337.924 45.848 338.009 45.7627C338.094 45.6774 338.204 45.6348 338.338 45.6348H340.33C340.464 45.6348 340.574 45.6774 340.659 45.7627C340.744 45.848 340.787 45.9576 340.787 46.0916V46.7129C341.03 46.384 341.371 46.0977 341.81 45.8541C342.249 45.5982 342.766 45.4642 343.363 45.4521C344.764 45.4277 345.727 45.9576 346.25 47.0418C346.531 46.5789 346.933 46.2013 347.456 45.9089C347.98 45.6043 348.553 45.4521 349.174 45.4521C349.808 45.4521 350.374 45.5982 350.874 45.8906C351.385 46.1708 351.793 46.6094 352.098 47.2063C352.402 47.791 352.555 48.5524 352.555 49.4904V54.68C352.555 54.814 352.506 54.9237 352.408 55.0089C352.323 55.0942 352.22 55.1368 352.098 55.1368H349.978C349.844 55.1368 349.728 55.0942 349.631 55.0089C349.546 54.9237 349.503 54.814 349.503 54.68V49.6183C349.503 49.192 349.442 48.857 349.32 48.6133C349.199 48.3575 349.034 48.1748 348.827 48.0651C348.62 47.9555 348.382 47.9007 348.114 47.9007C347.895 47.9007 347.676 47.9555 347.456 48.0651C347.249 48.1748 347.079 48.3575 346.945 48.6133C346.823 48.857 346.762 49.192 346.762 49.6183V54.68C346.762 54.814 346.719 54.9237 346.634 55.0089C346.549 55.0942 346.439 55.1368 346.305 55.1368H344.186C344.052 55.1368 343.942 55.0942 343.857 55.0089C343.771 54.9237 343.729 54.814 343.729 54.68V49.6183C343.729 49.192 343.662 48.857 343.528 48.6133C343.394 48.3575 343.223 48.1748 343.016 48.0651C342.809 47.9555 342.578 47.9007 342.322 47.9007C342.102 47.9007 341.883 47.9555 341.664 48.0651C341.457 48.1748 341.286 48.3575 341.152 48.6133C341.03 48.857 340.969 49.1859 340.969 49.6001V54.68C340.969 54.814 340.921 54.9237 340.823 55.0089C340.738 55.0942 340.628 55.1368 340.494 55.1368H338.338ZM357.453 55.3196C356.795 55.3196 356.204 55.1978 355.68 54.9541C355.168 54.6983 354.76 54.3572 354.456 53.9308C354.151 53.5044 353.999 53.0232 353.999 52.4872C353.999 51.6223 354.352 50.9401 355.059 50.4406C355.765 49.929 356.703 49.5818 357.873 49.3991L360.157 49.0519V48.796C360.157 48.3575 360.066 48.0225 359.883 47.791C359.7 47.5596 359.365 47.4438 358.878 47.4438C358.537 47.4438 358.257 47.5108 358.037 47.6448C357.83 47.7788 357.666 47.9616 357.544 48.193C357.434 48.3514 357.282 48.4306 357.087 48.4306H355.041C354.907 48.4306 354.803 48.394 354.73 48.3209C354.657 48.2357 354.626 48.1382 354.639 48.0286C354.639 47.8093 354.718 47.5596 354.876 47.2794C355.047 46.987 355.302 46.7007 355.644 46.4205C355.985 46.1403 356.423 45.9089 356.959 45.7262C357.495 45.5434 358.141 45.4521 358.896 45.4521C359.688 45.4521 360.364 45.5434 360.925 45.7262C361.485 45.9089 361.936 46.1647 362.277 46.4936C362.63 46.8225 362.892 47.2124 363.062 47.6631C363.233 48.1017 363.318 48.589 363.318 49.125V54.68C363.318 54.814 363.27 54.9237 363.172 55.0089C363.087 55.0942 362.983 55.1368 362.861 55.1368H360.742C360.608 55.1368 360.498 55.0942 360.413 55.0089C360.328 54.9237 360.285 54.814 360.285 54.68V54.0404C360.127 54.2719 359.913 54.4851 359.645 54.68C359.377 54.8749 359.061 55.0272 358.695 55.1368C358.342 55.2587 357.928 55.3196 357.453 55.3196ZM358.311 53.2364C358.665 53.2364 358.981 53.1633 359.262 53.0172C359.554 52.8588 359.779 52.6212 359.938 52.3045C360.108 51.9756 360.194 51.5675 360.194 51.0802V50.8244L358.64 51.0985C358.068 51.1959 357.648 51.3482 357.38 51.5553C357.124 51.7502 356.996 51.9817 356.996 52.2497C356.996 52.4568 357.057 52.6334 357.179 52.7796C357.3 52.9258 357.459 53.0415 357.654 53.1268C357.849 53.1999 358.068 53.2364 358.311 53.2364ZM365.837 55.1368C365.703 55.1368 365.593 55.0942 365.508 55.0089C365.423 54.9237 365.38 54.814 365.38 54.68V46.0916C365.38 45.9576 365.423 45.848 365.508 45.7627C365.593 45.6774 365.703 45.6348 365.837 45.6348H367.939C368.073 45.6348 368.182 45.6774 368.267 45.7627C368.353 45.848 368.395 45.9576 368.395 46.0916V46.786C368.712 46.4084 369.126 46.0916 369.638 45.8358C370.15 45.58 370.753 45.4521 371.447 45.4521C372.154 45.4521 372.775 45.6104 373.311 45.9272C373.859 46.2439 374.285 46.7129 374.59 47.3342C374.907 47.9433 375.065 48.6925 375.065 49.5818V54.68C375.065 54.814 375.016 54.9237 374.919 55.0089C374.834 55.0942 374.73 55.1368 374.608 55.1368H372.306C372.184 55.1368 372.074 55.0942 371.977 55.0089C371.892 54.9237 371.849 54.814 371.849 54.68V49.6914C371.849 49.1189 371.709 48.6803 371.429 48.3758C371.161 48.059 370.759 47.9007 370.223 47.9007C369.723 47.9007 369.321 48.059 369.017 48.3758C368.724 48.6803 368.578 49.1189 368.578 49.6914V54.68C368.578 54.814 368.529 54.9237 368.432 55.0089C368.347 55.0942 368.243 55.1368 368.121 55.1368H365.837ZM371.301 44.3557C370.972 44.3557 370.698 44.3008 370.479 44.1912C370.271 44.0816 370.083 43.978 369.912 43.8806C369.754 43.7709 369.565 43.7161 369.346 43.7161C369.175 43.7161 369.053 43.7587 368.98 43.844C368.907 43.9293 368.84 44.0207 368.779 44.1181C368.718 44.2156 368.621 44.2643 368.487 44.2643H367.39C367.305 44.2643 367.232 44.2338 367.171 44.1729C367.11 44.0998 367.08 44.0267 367.08 43.9537C367.08 43.7587 367.11 43.5334 367.171 43.2775C367.244 43.0095 367.36 42.7537 367.518 42.5101C367.677 42.2664 367.884 42.0654 368.14 41.9071C368.408 41.7365 368.73 41.6512 369.108 41.6512C369.449 41.6512 369.723 41.7061 369.93 41.8157C370.137 41.9253 370.326 42.035 370.497 42.1446C370.68 42.2542 370.874 42.3091 371.082 42.3091C371.252 42.3091 371.368 42.2603 371.429 42.1629C371.502 42.0654 371.569 41.9741 371.63 41.8888C371.703 41.7913 371.806 41.7426 371.94 41.7426H373.037C373.134 41.7426 373.207 41.7791 373.256 41.8522C373.317 41.9131 373.347 41.9862 373.347 42.0715C373.347 42.2664 373.311 42.4918 373.238 42.7476C373.177 43.0034 373.067 43.2593 372.909 43.5151C372.75 43.7587 372.537 43.9597 372.269 44.1181C372.013 44.2765 371.691 44.3557 371.301 44.3557ZM379.955 55.3196C379.297 55.3196 378.706 55.1978 378.183 54.9541C377.671 54.6983 377.263 54.3572 376.958 53.9308C376.654 53.5044 376.501 53.0232 376.501 52.4872C376.501 51.6223 376.855 50.9401 377.561 50.4406C378.268 49.929 379.206 49.5818 380.375 49.3991L382.659 49.0519V48.796C382.659 48.3575 382.568 48.0225 382.385 47.791C382.203 47.5596 381.868 47.4438 381.38 47.4438C381.039 47.4438 380.759 47.5108 380.54 47.6448C380.333 47.7788 380.168 47.9616 380.046 48.193C379.937 48.3514 379.784 48.4306 379.59 48.4306H377.543C377.409 48.4306 377.305 48.394 377.232 48.3209C377.159 48.2357 377.129 48.1382 377.141 48.0286C377.141 47.8093 377.22 47.5596 377.379 47.2794C377.549 46.987 377.805 46.7007 378.146 46.4205C378.487 46.1403 378.926 45.9089 379.462 45.7262C379.998 45.5434 380.643 45.4521 381.399 45.4521C382.19 45.4521 382.867 45.5434 383.427 45.7262C383.987 45.9089 384.438 46.1647 384.779 46.4936C385.132 46.8225 385.394 47.2124 385.565 47.6631C385.735 48.1017 385.821 48.589 385.821 49.125V54.68C385.821 54.814 385.772 54.9237 385.675 55.0089C385.589 55.0942 385.486 55.1368 385.364 55.1368H383.244C383.11 55.1368 383.001 55.0942 382.915 55.0089C382.83 54.9237 382.787 54.814 382.787 54.68V54.0404C382.629 54.2719 382.416 54.4851 382.148 54.68C381.88 54.8749 381.563 55.0272 381.198 55.1368C380.844 55.2587 380.43 55.3196 379.955 55.3196ZM380.814 53.2364C381.167 53.2364 381.484 53.1633 381.764 53.0172C382.056 52.8588 382.282 52.6212 382.44 52.3045C382.611 51.9756 382.696 51.5675 382.696 51.0802V50.8244L381.143 51.0985C380.57 51.1959 380.15 51.3482 379.882 51.5553C379.626 51.7502 379.498 51.9817 379.498 52.2497C379.498 52.4568 379.559 52.6334 379.681 52.7796C379.803 52.9258 379.961 53.0415 380.156 53.1268C380.351 53.1999 380.57 53.2364 380.814 53.2364ZM388.34 55.1368C388.206 55.1368 388.096 55.0942 388.011 55.0089C387.925 54.9237 387.883 54.814 387.883 54.68V46.0916C387.883 45.9576 387.925 45.848 388.011 45.7627C388.096 45.6774 388.206 45.6348 388.34 45.6348H390.441C390.575 45.6348 390.685 45.6774 390.77 45.7627C390.855 45.848 390.898 45.9576 390.898 46.0916V46.786C391.215 46.4084 391.629 46.0916 392.14 45.8358C392.652 45.58 393.255 45.4521 393.949 45.4521C394.656 45.4521 395.277 45.6104 395.813 45.9272C396.361 46.2439 396.788 46.7129 397.092 47.3342C397.409 47.9433 397.568 48.6925 397.568 49.5818V54.68C397.568 54.814 397.519 54.9237 397.421 55.0089C397.336 55.0942 397.233 55.1368 397.111 55.1368H394.808C394.686 55.1368 394.577 55.0942 394.479 55.0089C394.394 54.9237 394.351 54.814 394.351 54.68V49.6914C394.351 49.1189 394.211 48.6803 393.931 48.3758C393.663 48.059 393.261 47.9007 392.725 47.9007C392.226 47.9007 391.824 48.059 391.519 48.3758C391.227 48.6803 391.081 49.1189 391.081 49.6914V54.68C391.081 54.814 391.032 54.9237 390.934 55.0089C390.849 55.0942 390.746 55.1368 390.624 55.1368H388.34ZM402.457 55.3196C401.8 55.3196 401.209 55.1978 400.685 54.9541C400.173 54.6983 399.765 54.3572 399.461 53.9308C399.156 53.5044 399.004 53.0232 399.004 52.4872C399.004 51.6223 399.357 50.9401 400.064 50.4406C400.77 49.929 401.708 49.5818 402.878 49.3991L405.162 49.0519V48.796C405.162 48.3575 405.071 48.0225 404.888 47.791C404.705 47.5596 404.37 47.4438 403.883 47.4438C403.542 47.4438 403.261 47.5108 403.042 47.6448C402.835 47.7788 402.671 47.9616 402.549 48.193C402.439 48.3514 402.287 48.4306 402.092 48.4306H400.045C399.911 48.4306 399.808 48.394 399.735 48.3209C399.662 48.2357 399.631 48.1382 399.643 48.0286C399.643 47.8093 399.723 47.5596 399.881 47.2794C400.051 46.987 400.307 46.7007 400.648 46.4205C400.99 46.1403 401.428 45.9089 401.964 45.7262C402.5 45.5434 403.146 45.4521 403.901 45.4521C404.693 45.4521 405.369 45.5434 405.929 45.7262C406.49 45.9089 406.94 46.1647 407.282 46.4936C407.635 46.8225 407.897 47.2124 408.067 47.6631C408.238 48.1017 408.323 48.589 408.323 49.125V54.68C408.323 54.814 408.274 54.9237 408.177 55.0089C408.092 55.0942 407.988 55.1368 407.866 55.1368H405.747C405.613 55.1368 405.503 55.0942 405.418 55.0089C405.332 54.9237 405.29 54.814 405.29 54.68V54.0404C405.131 54.2719 404.918 54.4851 404.65 54.68C404.382 54.8749 404.065 55.0272 403.7 55.1368C403.347 55.2587 402.933 55.3196 402.457 55.3196ZM403.316 53.2364C403.67 53.2364 403.986 53.1633 404.266 53.0172C404.559 52.8588 404.784 52.6212 404.943 52.3045C405.113 51.9756 405.198 51.5675 405.198 51.0802V50.8244L403.645 51.0985C403.073 51.1959 402.652 51.3482 402.384 51.5553C402.129 51.7502 402.001 51.9817 402.001 52.2497C402.001 52.4568 402.062 52.6334 402.183 52.7796C402.305 52.9258 402.464 53.0415 402.658 53.1268C402.853 53.1999 403.073 53.2364 403.316 53.2364Z" fill="white"/>
<rect x="193.009" y="12.7051" width="4.5683" height="45.683" fill="#FF6600"/>
</svg>
