<svg width="148" height="39" viewBox="0 0 148 39" fill="none" xmlns="http://www.w3.org/2000/svg">
<path d="M54.1976 17.7663C54.1976 8.00266 42.0659 0.0429688 27.0996 0.0429688C12.1347 0.0429688 0.00304969 8.00266 0.00304969 17.7663C0.00304969 18.0194 0 18.7162 0 18.8047C0 29.163 10.6038 37.5527 27.0965 37.5527C43.6914 37.5527 54.1976 29.166 54.1976 18.8062C54.1976 18.4448 54.1976 18.2359 54.1976 17.7663Z" fill="#253E8B"/>
<path d="M53.1609 17.7595C53.1609 26.965 41.4958 34.4276 27.1058 34.4276C12.7159 34.4276 1.05078 26.965 1.05078 17.7595C1.05078 8.55244 12.7159 1.08984 27.1058 1.08984C41.4958 1.08984 53.1609 8.55244 53.1609 17.7595Z" fill="#00AEEF"/>
<path d="M18.4545 12.5002C18.4408 12.5262 18.1815 12.7961 18.3493 13.0111C18.761 13.5371 20.0312 13.8375 21.3151 13.5493C22.079 13.3785 23.0595 12.5994 24.0095 11.8446C25.0372 11.0272 26.0589 10.2099 27.0851 9.8836C28.1708 9.53746 28.8677 9.6869 29.3282 9.82566C29.8329 9.97509 30.426 10.3075 31.373 11.0181C33.1555 12.3584 40.3238 18.6164 41.562 19.6975C42.5608 19.2462 46.9935 17.3386 53.0182 16.0104C52.4951 12.7991 50.5403 9.8592 47.5775 7.453C43.4482 9.18827 38.401 10.094 33.4666 7.68325C33.4407 7.67257 30.7691 6.40848 28.1357 6.47099C24.2184 6.56096 22.5228 8.25659 20.728 10.0498L18.4545 12.5002Z" fill="white"/>
<path d="M41.2703 20.3774C41.1864 20.3027 32.8409 13.0002 30.9516 11.5806C29.8568 10.7602 29.2484 10.5498 28.6095 10.469C28.277 10.4247 27.8165 10.4873 27.4963 10.5757C26.6165 10.8151 25.4667 11.5836 24.4451 12.3933C23.3884 13.235 22.3911 14.0279 21.4671 14.2353C20.2853 14.5007 18.8428 14.1865 18.1841 13.7428C17.9172 13.5629 17.7297 13.3555 17.6397 13.1451C17.3957 12.5809 17.844 12.1295 17.9188 12.0548L20.2213 9.5632C20.4896 9.29635 20.758 9.0295 21.034 8.76571C20.2914 8.8633 19.6037 9.05238 18.9358 9.23841C18.1017 9.47323 17.2997 9.69586 16.4869 9.69586C16.1484 9.69586 14.3323 9.39852 13.9877 9.30398C11.9032 8.73368 10.0734 8.17864 7.34243 6.90234C4.06858 9.34057 1.8789 12.3872 1.24609 15.7434C1.71727 15.8684 2.47512 16.0941 2.79381 16.1643C10.2015 17.8111 12.5086 19.5082 12.9279 19.8635C13.3808 19.3588 14.035 19.0401 14.7654 19.0401C15.5842 19.0416 16.3238 19.4518 16.7721 20.0892C17.196 19.7537 17.7815 19.4686 18.5378 19.4686C18.8809 19.4686 19.2378 19.5326 19.5976 19.6546C20.4332 19.9413 20.8648 20.4979 21.0889 21.0011C21.3695 20.8745 21.7141 20.7815 22.1197 20.783C22.5192 20.783 22.934 20.873 23.3518 21.0544C24.718 21.64 24.93 22.9818 24.8065 23.9928C24.9041 23.9821 25.0017 23.9776 25.1008 23.9776C26.7202 23.9791 28.0376 25.295 28.0376 26.9159C28.0376 27.4176 27.9095 27.8888 27.6854 28.302C28.1261 28.5506 29.2499 29.1102 30.2365 28.9852C31.0248 28.886 31.3237 28.6161 31.4304 28.4652C31.5036 28.3615 31.5814 28.2395 31.5097 28.1526L29.4191 25.8303C29.4191 25.8303 29.0745 25.5039 29.1889 25.3789C29.3063 25.2493 29.5198 25.4353 29.6692 25.5604C30.7336 26.4493 32.0327 27.7897 32.0327 27.7897C32.0541 27.8049 32.141 27.9742 32.6213 28.0611C33.0346 28.1343 33.7665 28.0916 34.2727 27.6753C34.4008 27.5701 34.5289 27.439 34.6356 27.3033C34.628 27.3094 34.6204 27.32 34.6128 27.3231C35.1465 26.6384 34.5533 25.9461 34.5533 25.9461L32.112 23.206C32.112 23.206 31.7644 22.8827 31.8818 22.7531C31.9885 22.6403 32.2127 22.8111 32.3667 22.9376C33.1382 23.5842 34.23 24.679 35.2776 25.7037C35.4804 25.8547 36.4014 26.4234 37.6182 25.6229C38.3578 25.138 38.5057 24.5433 38.4844 24.0935C38.434 23.4988 37.969 23.0749 37.969 23.0749L34.6356 19.7232C34.6356 19.7232 34.2834 19.4229 34.4084 19.2704C34.5106 19.1423 34.7393 19.3268 34.8888 19.4518C35.9501 20.3408 38.8259 22.9773 38.8259 22.9773C38.8671 23.0062 39.8598 23.7138 41.0873 22.9315C41.5264 22.651 41.807 22.2286 41.8314 21.736C41.8726 20.8837 41.2703 20.3774 41.2703 20.3774Z" fill="white"/>
<path d="M25.1014 24.6269C24.5845 24.6208 24.0187 24.9273 23.9456 24.8831C23.9044 24.8556 23.9761 24.6483 24.0248 24.5278C24.0752 24.4089 24.7552 22.361 23.0962 21.6489C21.826 21.1045 21.0499 21.7175 20.783 21.995C20.7129 22.0682 20.6824 22.0621 20.6732 21.9691C20.6488 21.6001 20.4826 20.6028 19.3878 20.2674C17.8218 19.7886 16.8138 20.8819 16.5577 21.2768C16.4433 20.3833 15.69 19.691 14.7645 19.6895C13.7596 19.6895 12.9453 20.5022 12.9453 21.5071C12.9438 22.5104 13.7581 23.3247 14.7629 23.3247C15.2509 23.3262 15.6931 23.131 16.0194 22.8184C16.0301 22.8276 16.0347 22.8444 16.0286 22.8794C15.9523 23.3277 15.812 24.9624 17.5229 25.6287C18.2091 25.8941 18.7931 25.6958 19.2765 25.3573C19.4198 25.2551 19.4442 25.2978 19.4229 25.4335C19.3619 25.8544 19.4396 26.7541 20.7022 27.2649C21.6613 27.6552 22.2301 27.2557 22.6022 26.9126C22.7638 26.7647 22.808 26.7876 22.8156 27.0163C22.8614 28.2332 23.8724 29.1984 25.0983 29.1999C26.3624 29.1999 27.3871 28.1783 27.3871 26.9157C27.3887 25.6516 26.3655 24.6406 25.1014 24.6269Z" fill="white"/>
<path d="M25.1001 29.0369C23.9549 29.0354 23.0232 28.1449 22.9805 27.0119C22.979 26.9143 22.9683 26.6551 22.7503 26.6551C22.6588 26.6551 22.581 26.71 22.4911 26.7908C22.2395 27.0241 21.9192 27.262 21.4511 27.262C21.2376 27.262 21.0074 27.2117 20.7649 27.1126C19.5542 26.6231 19.5374 25.792 19.5862 25.4581C19.6 25.3681 19.6045 25.2751 19.5435 25.2035L19.4688 25.1379H19.3941C19.3331 25.1379 19.2691 25.1623 19.1837 25.2233C18.833 25.4688 18.4975 25.5877 18.1559 25.5877C17.9684 25.5877 17.7762 25.5496 17.5826 25.4749C15.9906 24.8558 16.1172 23.3523 16.195 22.9009C16.2056 22.8079 16.1828 22.7378 16.1248 22.6905L16.012 22.5975L15.9068 22.6981C15.5972 22.997 15.1901 23.1617 14.7647 23.1617C13.8513 23.1602 13.1087 22.4191 13.1102 21.5072C13.1102 20.5938 13.8543 19.8543 14.7662 19.8543C15.5911 19.8543 16.2926 20.4749 16.3978 21.2983L16.4542 21.7421L16.6982 21.3669C16.7256 21.3227 17.3935 20.3118 18.6225 20.3133C18.8558 20.3133 19.0968 20.3499 19.3407 20.4261C20.3197 20.725 20.4859 21.6124 20.5118 21.983C20.5286 22.198 20.6826 22.2087 20.7131 22.2087C20.797 22.2087 20.8595 22.1553 20.9037 22.108C21.0882 21.9159 21.4908 21.5957 22.1205 21.5957C22.4087 21.5957 22.7167 21.6643 23.0324 21.8C24.5892 22.4679 23.8832 24.4456 23.8756 24.467C23.7414 24.7948 23.7353 24.9397 23.8619 25.0235L23.9229 25.0525H23.9686C24.0388 25.0525 24.1257 25.022 24.269 24.9732C24.481 24.9 24.8012 24.7902 25.1001 24.7902H25.1016C26.2727 24.8039 27.2257 25.757 27.2257 26.9159C27.2242 28.0854 26.2712 29.0369 25.1001 29.0369ZM41.5928 19.5036C39.0219 17.2605 33.0811 12.0959 31.4724 10.8867C30.5529 10.1959 29.9262 9.82996 29.3757 9.6668C29.1287 9.59208 28.7856 9.50669 28.3449 9.50669C27.9363 9.50669 27.4971 9.57989 27.0381 9.72627C25.9982 10.0556 24.9628 10.8791 23.9595 11.675L23.9076 11.7162C22.9744 12.4588 22.0107 13.2258 21.2803 13.389C20.9616 13.4606 20.6338 13.4972 20.3075 13.4972C19.4886 13.4972 18.7552 13.2609 18.4792 12.9101C18.4334 12.8507 18.4624 12.7577 18.5692 12.622L18.5844 12.6037L20.8457 10.167C22.6161 8.39508 24.2889 6.72385 28.1406 6.63541C28.2031 6.63388 28.2687 6.63236 28.3327 6.63236C30.7298 6.63388 33.1253 7.70738 33.3937 7.83089C35.6413 8.92725 37.9621 9.48382 40.2936 9.48535C42.7242 9.48687 45.2326 8.88456 47.8691 7.67078C47.5748 7.42375 47.2683 7.18283 46.9526 6.94648C44.6364 7.94983 42.4299 8.4576 40.3013 8.4576C38.1253 8.45455 35.9539 7.93305 33.8435 6.90378C33.7322 6.85041 31.0866 5.60309 28.3327 5.60156C28.2611 5.60156 28.1879 5.60309 28.1162 5.60461C24.882 5.67933 23.0598 6.82906 21.8338 7.83546C20.6429 7.86443 19.6137 8.15111 18.7003 8.40728C17.883 8.63296 17.1785 8.82966 16.4908 8.82966C16.2072 8.82966 15.6979 8.80374 15.6521 8.80221C14.8623 8.77782 10.8778 7.80192 7.7092 6.60186C7.38593 6.83059 7.07486 7.06694 6.77142 7.30787C10.0819 8.66498 14.1105 9.71407 15.3822 9.79641C15.736 9.82081 16.1126 9.86046 16.4893 9.86046C17.331 9.86046 18.1696 9.62563 18.9824 9.39843C19.4612 9.26272 19.9903 9.11633 20.5484 9.00959C20.399 9.15598 20.2511 9.30389 20.1016 9.4518L17.8052 11.9373C17.6237 12.1203 17.2303 12.6082 17.4896 13.2075C17.5933 13.4499 17.8022 13.6817 18.0949 13.8784C18.6408 14.2474 19.6213 14.496 20.5332 14.4975C20.8778 14.4975 21.2056 14.4624 21.506 14.3953C22.4682 14.1788 23.4792 13.3737 24.5496 12.5228C25.402 11.8458 26.6127 10.9858 27.5413 10.7327C27.8006 10.6625 28.1193 10.6183 28.3739 10.6183C28.4502 10.6198 28.5233 10.6214 28.5904 10.632C29.2034 10.7083 29.7951 10.9172 30.8533 11.7116C32.7395 13.1282 41.085 20.4292 41.1674 20.5024C41.1719 20.5069 41.7041 20.9644 41.6675 21.7283C41.6477 22.1538 41.4113 22.5319 41.0012 22.7942C40.6444 23.0199 40.2769 23.1342 39.9063 23.1342C39.3482 23.1342 38.964 22.872 38.938 22.8552C38.9076 22.8293 36.0485 20.2081 34.9963 19.3267C34.8286 19.1879 34.6654 19.0629 34.5007 19.0629C34.4138 19.0629 34.3361 19.0995 34.2827 19.1666C34.118 19.3709 34.3025 19.653 34.5221 19.8391L37.8615 23.1952C37.8661 23.1998 38.2778 23.5856 38.322 24.101C38.3495 24.6576 38.0826 25.1226 37.5291 25.4856C37.1357 25.7448 36.7362 25.8774 36.3458 25.8774C35.8335 25.8774 35.4721 25.6426 35.3928 25.5877L34.914 25.115C34.0387 24.2535 33.1345 23.363 32.4727 22.811C32.3111 22.6768 32.1388 22.5533 31.9741 22.5533C31.8933 22.5533 31.8201 22.5822 31.7636 22.6417C31.6889 22.7256 31.6356 22.8765 31.8246 23.1266C31.9009 23.2288 31.9924 23.3142 31.9924 23.3142L34.4306 26.0528C34.4504 26.0772 34.9323 26.6505 34.4855 27.2208L34.3986 27.3291C34.3269 27.4099 34.2476 27.4846 34.1729 27.5487C33.7566 27.8902 33.2016 27.9268 32.982 27.9268C32.8646 27.9268 32.7502 27.9162 32.6526 27.8979C32.4117 27.8552 32.2501 27.7881 32.1708 27.6951L32.1418 27.6646C32.0091 27.5273 30.7801 26.2724 29.7631 25.4246C29.6304 25.3117 29.4627 25.1699 29.2903 25.1699C29.205 25.1699 29.1287 25.2035 29.0692 25.269C28.868 25.4886 29.1699 25.818 29.298 25.94L31.3779 28.2318C31.3748 28.2516 31.3489 28.2989 31.2986 28.3721C31.2239 28.4743 30.9723 28.7274 30.2175 28.8219C30.1275 28.8341 30.0345 28.8387 29.9415 28.8387C29.1638 28.8387 28.3343 28.4605 27.9073 28.2349C28.1025 27.8231 28.2031 27.3703 28.2031 26.9174C28.2031 25.205 26.814 23.8128 25.1031 23.8128C25.0665 23.8128 25.0284 23.8128 24.9918 23.8143C25.0467 23.0336 24.9369 21.5545 23.4182 20.9034C22.9805 20.7143 22.5444 20.6182 22.122 20.6182C21.7896 20.6182 21.4709 20.6747 21.1721 20.789C20.8564 20.1776 20.3349 19.7323 19.6533 19.5005C19.2767 19.3709 18.9016 19.3038 18.5402 19.3038C17.9074 19.3038 17.3264 19.4899 16.8064 19.8589C16.3093 19.2413 15.5576 18.8738 14.7662 18.8738C14.0739 18.8738 13.4076 19.1513 12.915 19.6408C12.267 19.1468 9.70065 17.5152 2.82969 15.9553C2.49728 15.8806 1.73485 15.661 1.26673 15.5253C1.18896 15.8958 1.12949 16.2724 1.08984 16.6521C1.08984 16.6521 2.35699 16.9556 2.60707 17.012C9.62593 18.5704 11.9437 20.1913 12.3371 20.4978C12.2029 20.8165 12.1343 21.1596 12.1343 21.5072C12.1328 22.9558 13.313 24.1376 14.7631 24.1391C14.9263 24.1391 15.0879 24.1239 15.245 24.0949C15.4646 25.1623 16.1629 25.972 17.2288 26.3867C17.5414 26.5057 17.8571 26.5682 18.1666 26.5682C18.3664 26.5682 18.5692 26.5438 18.7659 26.4935C18.9626 26.9936 19.4063 27.6173 20.3974 28.0198C20.7451 28.1601 21.0928 28.2333 21.4298 28.2333C21.7058 28.2333 21.9757 28.1845 22.2334 28.09C22.7076 29.2474 23.839 30.0128 25.0985 30.0128C25.9342 30.0143 26.7362 29.6743 27.3218 29.072C27.8219 29.351 28.8786 29.8542 29.946 29.8558C30.0848 29.8558 30.2144 29.8451 30.344 29.8298C31.4053 29.6972 31.8978 29.2809 32.125 28.9592C32.1662 28.9027 32.2028 28.8433 32.2348 28.7807C32.4849 28.8539 32.7594 28.9119 33.075 28.9134C33.6545 28.9134 34.211 28.7152 34.7722 28.305C35.3242 27.9085 35.716 27.3367 35.7725 26.8503C35.774 26.8427 35.7755 26.8366 35.777 26.8289C35.9615 26.8671 36.1537 26.8869 36.3443 26.8869C36.9405 26.8869 37.526 26.7009 38.0872 26.3334C39.1683 25.6258 39.3559 24.7003 39.3391 24.0934C39.5266 24.133 39.7203 24.1528 39.9124 24.1528C40.472 24.1528 41.0225 23.9851 41.5455 23.6512C42.2165 23.2227 42.619 22.567 42.68 21.8031C42.7227 21.2846 42.5946 20.7616 42.3202 20.3118C44.1317 19.531 48.2716 18.0214 53.1466 16.922C53.1176 16.5439 53.0627 16.1703 52.9956 15.7982C47.0975 17.1081 42.6953 19.0126 41.5928 19.5036Z" fill="#253E8B"/>
<path d="M89.9203 27.8365C89.9203 26.6868 89.6962 25.8024 89.2463 25.1817C88.798 24.5642 88.1561 24.2516 87.3174 24.2516C86.5123 24.2516 85.8825 24.5642 85.4327 25.1817C85.0164 25.7429 84.8075 26.6303 84.8075 27.8365C84.8075 28.9618 85.0301 29.799 85.48 30.3601C85.9267 30.9807 86.5718 31.2903 87.4074 31.2903C88.185 31.2903 88.798 30.9807 89.2463 30.3601C89.6962 29.741 89.9203 28.9024 89.9203 27.8365ZM84.8075 36.092C84.8075 36.5037 84.6581 36.859 84.3562 37.1533C84.0588 37.4491 83.7005 37.597 83.2811 37.597H81.7578V26.9948C81.7578 24.9332 82.4516 23.6432 83.5953 22.7694C84.3516 22.193 85.4769 21.6426 87.5873 21.6426C89.0115 21.6426 90.6797 22.1961 91.5809 23.294C92.5918 24.5291 93.0127 25.906 93.0127 27.7038C93.0127 29.5642 92.5644 31.0646 91.6693 32.2189C90.7727 33.3412 89.6199 33.8993 88.214 33.8993C87.4668 33.8993 86.8096 33.7666 86.2424 33.5028C85.6416 33.207 85.1658 32.7496 84.8075 32.1289V36.092Z" fill="#00AEEF"/>
<path d="M108.204 27.8386C108.204 29.8727 108.793 30.9996 109.967 31.2222C111.14 31.4403 112.007 31.1673 112.565 30.4018C112.831 30.0801 113.02 29.5693 113.139 28.8785C113.255 28.1862 113.264 27.5001 113.16 26.823C113.059 26.143 112.815 25.5391 112.433 25.0085C112.053 24.4793 111.493 24.2125 110.76 24.2125C109.761 24.2125 109.087 24.583 108.733 25.3165C108.38 26.0545 108.204 26.8947 108.204 27.8386ZM113.227 32.9224V32.1737C112.699 33.0002 111.984 33.5125 111.089 33.7199C110.194 33.9258 109.305 33.8526 108.427 33.4973C107.544 33.145 106.788 32.4894 106.156 31.5318C105.525 30.5711 105.211 29.3116 105.211 27.7486C105.211 25.9234 105.629 24.4412 106.464 23.3067C107.302 22.1723 108.646 21.6538 110.496 21.6035C112.318 21.5547 113.378 21.9679 114.416 22.7532C115.551 23.6148 116.222 24.9353 116.222 26.9984V33.235C116.226 35.2188 114.842 38.8968 110.496 38.5857C107.803 38.3905 106.309 37.285 105.475 34.7827H108.691C108.925 35.1944 109.284 35.5101 109.77 35.7297C110.252 35.9538 110.74 36.0118 111.22 35.9081C111.705 35.8044 112.146 35.5162 112.545 35.0465C112.94 34.5754 113.168 33.8663 113.227 32.9224Z" fill="#00AEEF"/>
<path d="M101.058 29.0678C101.038 30.0848 100.747 30.7847 100.189 31.169C99.6289 31.5517 99.0175 31.7439 98.3542 31.7439C97.9333 31.7439 97.578 31.628 97.2868 31.3977C96.994 31.1675 96.8476 30.7908 96.8476 30.2709C96.8476 29.6899 97.087 29.2599 97.5658 28.9824C97.851 28.8192 98.3145 28.6789 98.9626 28.5676L99.6549 28.4395C100.001 28.374 100.272 28.3038 100.469 28.2291C100.67 28.1559 100.864 28.0598 101.058 27.9378V29.0678ZM102.599 22.4438C101.607 21.9421 100.472 21.6875 99.1959 21.6875C97.2303 21.6875 95.8458 22.1998 95.0376 23.223C94.5314 23.8772 94.2462 24.7113 94.1807 25.7299H97.116C97.1877 25.28 97.331 24.9247 97.5475 24.6625C97.851 24.3072 98.3648 24.1303 99.0907 24.1303C99.7433 24.1303 100.234 24.2187 100.568 24.4017C100.902 24.5832 101.071 24.9125 101.071 25.3883C101.071 25.7787 100.853 26.0669 100.416 26.2529C100.173 26.3596 99.7677 26.4481 99.2004 26.5197L98.1605 26.6463C96.9803 26.7957 96.0821 27.0458 95.4753 27.3935C94.3636 28.0339 93.8086 29.0678 93.8086 30.4965C93.8086 31.5975 94.1532 32.4499 94.844 33.0507C95.5332 33.6499 96.41 33.9046 97.4682 33.9534C104.1 34.2492 104.027 30.4554 104.088 29.667V25.3014C104.088 23.9016 103.592 22.9501 102.599 22.4438Z" fill="#00AEEF"/>
<path d="M125.336 30.4338C124.862 31.0651 124.182 31.3792 123.296 31.3792C122.409 31.3792 121.726 31.0651 121.25 30.4338C120.769 29.8056 120.532 28.9105 120.532 27.7501C120.532 26.5897 120.769 25.6961 121.25 25.0694C121.726 24.4427 122.409 24.1316 123.296 24.1316C124.182 24.1316 124.862 24.4427 125.336 25.0694C125.811 25.6961 126.049 26.5897 126.049 27.7501C126.049 28.9105 125.811 29.8056 125.336 30.4338ZM127.761 23.4058C126.782 22.1798 125.297 21.5684 123.304 21.5684C121.315 21.5684 119.829 22.1798 118.851 23.4058C117.872 24.6302 117.383 26.0773 117.383 27.7501C117.383 29.4503 117.872 30.9019 118.851 32.1111C119.829 33.3158 121.315 33.9211 123.304 33.9211C125.297 33.9211 126.782 33.3158 127.761 32.1111C128.738 30.9019 129.225 29.4503 129.225 27.7501C129.225 26.0773 128.738 24.6302 127.761 23.4058Z" fill="#00AEEF"/>
<path d="M144.108 13.5033C143.634 14.133 142.956 14.4472 142.068 14.4472C141.182 14.4472 140.499 14.133 140.022 13.5033C139.543 12.8735 139.305 11.9769 139.305 10.8165C139.305 9.65608 139.543 8.76252 140.022 8.13581C140.499 7.51063 141.182 7.19651 142.068 7.19651C142.956 7.19651 143.634 7.51063 144.108 8.13581C144.583 8.76252 144.822 9.65608 144.822 10.8165C144.822 11.9769 144.583 12.8735 144.108 13.5033ZM146.533 6.47221C145.554 5.24775 144.07 4.63477 142.077 4.63477C140.087 4.63477 138.602 5.24775 137.625 6.47221C136.646 7.69818 136.156 9.14526 136.156 10.8165C136.156 12.5167 136.646 13.9699 137.625 15.1791C138.602 16.3837 140.087 16.9891 142.077 16.9891C144.07 16.9891 145.554 16.3837 146.533 15.1791C147.512 13.9699 148 12.5167 148 10.8165C148 9.14526 147.512 7.69818 146.533 6.47221Z" fill="#F8F8F8"/>
<path d="M119.995 12.0717C119.975 13.0887 119.684 13.7902 119.125 14.1729C118.565 14.5572 117.953 14.7508 117.29 14.7508C116.871 14.7508 116.516 14.6334 116.223 14.4032C115.93 14.1714 115.785 13.7963 115.785 13.2763C115.785 12.6953 116.023 12.2653 116.502 11.9863C116.787 11.8246 117.25 11.6844 117.9 11.573L118.592 11.4449C118.937 11.3794 119.208 11.3092 119.407 11.2345C119.608 11.1613 119.802 11.0637 119.995 10.9418V12.0717ZM121.537 5.44773C120.544 4.94606 119.41 4.69141 118.132 4.69141C116.168 4.69141 114.782 5.20375 113.975 6.22693C113.467 6.88261 113.184 7.7167 113.117 8.73377H116.05C116.124 8.28547 116.267 7.93018 116.483 7.66791C116.787 7.31262 117.301 7.13421 118.028 7.13421C118.678 7.13421 119.17 7.22265 119.506 7.40716C119.84 7.58709 120.007 7.91646 120.007 8.39221C120.007 8.78409 119.791 9.07076 119.352 9.2568C119.108 9.36353 118.704 9.45198 118.136 9.52364L117.096 9.65173C115.916 9.79964 115.018 10.0497 114.411 10.3989C113.3 11.0393 112.746 12.0717 112.746 13.502C112.746 14.6029 113.089 15.4553 113.78 16.0561C114.469 16.6569 115.346 16.9085 116.404 16.9588C123.039 17.2546 122.964 13.4623 123.025 12.6725V8.30682C123.025 6.90701 122.528 5.95398 121.537 5.44773Z" fill="#F8F8F8"/>
<path d="M106.405 7.29221C107.165 7.29221 107.721 7.52704 108.081 7.99516C108.328 8.3413 108.482 8.73319 108.541 9.16625H111.815C111.635 7.51484 111.057 6.36205 110.082 5.70789C109.103 5.05831 107.851 4.73047 106.318 4.73047C104.514 4.73047 103.099 5.28399 102.076 6.3895C101.051 7.49654 100.539 9.04273 100.539 11.0311C100.539 12.7908 101.003 14.2257 101.93 15.3327C102.857 16.4367 104.304 16.9902 106.271 16.9902C108.24 16.9902 109.725 16.3284 110.727 15.0018C111.353 14.1799 111.706 13.3077 111.78 12.3867H108.519C108.451 12.9951 108.261 13.4922 107.945 13.875C107.631 14.2562 107.1 14.4483 106.35 14.4483C105.295 14.4483 104.575 13.968 104.193 13.0012C103.984 12.4874 103.878 11.8058 103.878 10.9564C103.878 10.0659 103.984 9.35228 104.193 8.81401C104.591 7.80151 105.329 7.29221 106.405 7.29221Z" fill="#F8F8F8"/>
<path d="M99.6655 4.73047C92.9424 4.73047 93.3404 10.6835 93.3404 10.6835V16.7295H96.3901V11.0586C96.3901 10.1299 96.5075 9.44072 96.7408 8.99394C97.1586 8.20102 97.9775 7.80303 99.1973 7.80303C99.2888 7.80303 99.4093 7.80761 99.5587 7.81523C99.7066 7.82133 99.8759 7.83506 100.07 7.85793V4.75334C99.9338 4.74419 99.8469 4.74114 99.8088 4.73657C99.7691 4.73352 99.7219 4.73047 99.6655 4.73047Z" fill="#F8F8F8"/>
<path d="M84.356 7.88995C84.786 7.44927 85.3883 7.22817 86.1644 7.22817C86.8811 7.22817 87.4789 7.43555 87.9622 7.85335C88.4441 8.26811 88.714 8.87957 88.7689 9.68317H83.5493C83.6576 8.92837 83.9275 8.33215 84.356 7.88995ZM88.4563 13.57C88.3282 13.753 88.191 13.91 88.0385 14.032C87.6085 14.3873 87.0229 14.4941 86.3337 14.4941C85.6811 14.4941 85.1718 14.3949 84.7097 14.1037C83.9488 13.6371 83.5204 12.8457 83.4746 11.6822H91.9162C91.9284 10.6819 91.8948 9.91647 91.814 9.38277C91.6737 8.47549 91.3657 7.67495 90.8915 6.98724C90.3654 6.20652 89.696 5.6347 88.8878 5.27179C88.0812 4.9104 87.1739 4.73047 86.1644 4.73047C84.4642 4.73047 83.0843 5.26569 82.0199 6.33613C80.9556 7.4081 80.4219 8.94667 80.4219 10.9534C80.4219 13.0973 81.012 14.6435 82.1922 15.5935C83.3709 16.5435 84.7326 17.0207 86.2742 17.0207C88.1422 17.0207 89.5953 16.4565 90.6338 15.3297C91.1934 14.7365 91.5441 14.1494 91.692 13.57H88.4563Z" fill="#F8F8F8"/>
<path d="M79.1978 16.7281H76.4104V9.71077C76.4104 9.07034 76.2 7.54549 74.361 7.54549C73.135 7.54549 72.2491 8.4299 72.2491 9.71077V16.7281H69.4602V9.71077C69.4602 9.07034 69.2695 7.54549 67.4321 7.54549C66.1848 7.54549 65.3187 8.4299 65.3187 9.71077V16.7281H62.5312V9.77786C62.5312 6.88066 64.4526 4.68945 67.4321 4.68945C68.9112 4.68945 70.1143 5.31159 70.8966 6.30731C71.72 5.31159 72.9444 4.68945 74.361 4.68945C77.4031 4.68945 79.1978 6.79222 79.1978 9.77786V16.7281Z" fill="#F8F8F8"/>
<path d="M131.589 13.5297C131.144 14.1687 130.489 14.4873 129.633 14.4873C128.774 14.4873 128.135 14.1656 127.714 13.5252C127.293 12.8817 127.083 11.9485 127.083 10.878C127.083 9.88536 127.289 9.05432 127.704 8.38491C128.117 7.7155 128.766 7.38004 129.654 7.38004C130.235 7.38004 130.746 7.56302 131.186 7.93203C131.901 8.54197 132.26 9.63528 132.26 11.0534C132.26 12.0659 132.036 12.8924 131.589 13.5297ZM135.249 1.06717C135.249 1.06717 132.174 0.739331 132.174 3.20806L132.173 6.4758C131.833 5.92991 131.391 5.50143 130.845 5.19493C130.3 4.88691 129.677 4.73138 128.972 4.73138C127.449 4.73138 126.234 5.29862 125.322 6.43311C124.41 7.56759 123.957 9.20223 123.957 11.18C123.957 12.8954 124.419 14.3013 125.343 15.3977C126.269 16.491 128.083 16.9713 129.694 16.9713C135.311 16.9713 135.245 12.1528 135.245 12.1528L135.249 1.06717Z" fill="#F8F8F8"/>
</svg>
