<svg width="23" height="28" viewBox="0 0 23 28" fill="none" xmlns="http://www.w3.org/2000/svg">
<path fill-rule="evenodd" clip-rule="evenodd" d="M11.4944 28C-4.39985 16.1229 17.3888 16.1463 11.1336 0C12.1021 12.4127 -3.72382 24.4384 6.63687 4.45295C4.83355 6.12611 3.26403 8.04831 1.97304 10.1648C-2.88448 18.6484 4.98478 24.325 11.5058 27.9844L11.4944 28ZM11.764 27.9257C15.6151 23.3829 23.6933 19.6649 18.0648 5.64144C26.3708 15.2471 22.1589 23.0271 11.764 27.9218V27.9257ZM10.9589 25.9475C4.12266 17.7375 17.1267 16.2714 15.2163 3.42474C20.7803 17.1784 8.65356 14.8562 10.9589 25.9436V25.9475Z" fill="white"/>
</svg>
